<svg xmlns="http://www.w3.org/2000/svg" xml:space="preserve" version="1.1" viewBox="0 0 11639 8700"
    xmlns:xlink="http://www.w3.org/1999/xlink">
    <g>
        <path
            d="M11638 6477c-6,-57 -37,-107 -85,-137 -33,-22 -3078,-1970 -4598,-3291l57 -57c364,-364 364,-955 0,-1318 -354,-355 -926,-363 -1291,-25 -90,-158 -139,-283 -164,-377 290,-291 290,-764 -1,-1054 -290,-291 -763,-291 -1054,0 -150,150 -287,420 -267,653 -31,665 179,1263 490,1775l-4453 4463c-363,364 -363,955 0,1318 364,363 955,363 1318,0l4370 -4380c127,149 197,302 202,444 5,135 -49,256 -164,372 -36,36 -56,84 -55,135 1,48 21,94 55,128 1,2 3,3 5,5 622,580 1584,1291 2573,1903 420,260 815,482 1113,627 440,213 619,244 736,127l1160 -1159c40,-40 59,-96 53,-152l0 0zm-7030 -5602c1,-10 0,-21 -1,-32 -12,-94 64,-267 159,-362 145,-145 382,-145 527,0 145,146 145,382 0,528 -15,14 -31,28 -49,40 -57,41 -87,110 -76,180 23,163 98,391 282,691l-453 453c-253,-442 -417,-946 -389,-1498l0 0zm-4072 7289c-218,-218 -218,-573 0,-791l5422 -5436c218,-217 573,-217 791,1 218,218 218,572 0,790l-5422 5436c-218,218 -573,218 -791,0zm10338 -1352c-915,-368 -1792,-1008 -2833,-1801 -80,-61 -200,-45 -261,36 -61,80 -44,199 36,261 519,394 1026,776 1526,1102 398,259 811,498 1247,687l-378 378c-180,-46 -740,-316 -1582,-847 -862,-544 -1669,-1138 -2243,-1652 104,-152 155,-321 149,-498 -8,-233 -117,-474 -311,-696l468 -469c1326,1160 3756,2756 4466,3215l-284 284zm0 0z" />
        <path
            d="M1603 7360c-72,73 -190,73 -263,0 -73,-73 -73,-191 0,-264 73,-72 191,-72 263,0 73,73 73,191 0,264zm0 0z" />
        <path
            d="M5965 2998c-73,73 -191,73 -264,0 -72,-72 -72,-190 0,-263 73,-73 191,-73 264,0 73,73 73,191 0,263zm0 0z" />
        <path
            d="M7467 4843c-73,73 -191,73 -263,0 -73,-73 -73,-191 0,-263 72,-73 190,-73 263,0 73,72 73,190 0,263zm0 0z" />
    </g>
</svg>