<svg viewBox="0 0 512 512" xmlns="http://www.w3.org/2000/svg"><path d="m508.261719 6.703125c-2.363281-1.898437-5.460938-2.625-8.417969-1.96875-2.089844.460937-191.519531 42.074219-299.339844 49.601563l-.003906-4.335938c0-27.570312-22.429688-50-50-50-26.914062 0-48.914062 21.375-49.949219 48.039062-9.402343-2.570312-16-5.460937-20.550781-8.070312-.019531-22.042969-17.953125-39.96875-40-39.96875-22.054688 0-40 17.945312-40 40 0 11.382812 5.019531 26.828125 14.632812 34.910156 24.070313 26.421875 54.699219 41.132813 85.957032 48.742188l.410156 338.347656c0 27.570312 22.429688 50 50 50s50-22.429688 50-50.011719l-.402344-332.027343c10.472656.875 18.972656 4.011718 24.542969 9.203124 5.289063 4.929688 7.859375 11.582032 7.859375 20.335938 0 2.714844 1.101562 5.3125 3.054688 7.195312 1.867187 1.800782 4.359374 2.804688 6.945312 2.804688.117188 0 .238281-.003906.355469-.007812 45.628906-1.621094 109.136719-11.132813 169.882812-25.4375 25.777344-6.070313 49.210938-12.621094 65.988281-18.441407 24.808594-8.605469 32.773438-14.222656 32.773438-23.113281v-88c0-3.03125-1.375-5.898438-3.738281-7.796875zm-479.300781 54.234375c-.386719-.429688-.8125-.824219-1.265626-1.179688-4.027343-3.152343-7.695312-12.570312-7.695312-19.757812 0-11.027344 8.972656-20 20-20s20 8.972656 20 20c0 1.109375-.097656 2.253906-.296875 3.402344-.628906 3.707031.871094 7.453125 3.886719 9.699218 7.125 5.308594 18.597656 11.144532 36.933594 15.53125l.042968 34.359376c-26.386718-7.140626-51.757812-20.046876-71.605468-42.054688zm122.039062 431.0625c-16.542969 0-30-13.457031-30-30.011719l-.5-411.996093c.003906-16.539063 13.460938-29.992188 30-29.992188 16.542969 0 30 13.457031 30 30.011719l.5 411.988281c0 16.542969-13.457031 30-30 30zm341-443.539062c-48.714844 20.746093-106.246094 29.710937-175.828125 39.128906-5.382813.726562-9.300781 5.890625-8.570313 11.261718.730469 5.386719 5.902344 9.253907 11.257813 8.558594 34.679687-4.730468 68.402344-9.519531 99.730469-16.109375 24.929687-5.253906 49.6875-11.886719 73.410156-21.246093v28.695312c-8.605469 5.097656-40.074219 16.066406-92.171875 27.875-53.351563 12.09375-106.519531 20.144531-147.777344 22.449219-1.839843-9.71875-6.339843-18.074219-13.269531-24.539063-9.171875-8.550781-22.453125-13.570312-38.207031-14.625l-.042969-35.53125c94.320312-6.328125 247.074219-37.972656 291.46875-47.480468zm0 0"/><path d="m161 421c0 5.523438-4.476562 10-10 10s-10-4.476562-10-10 4.476562-10 10-10 10 4.476562 10 10zm0 0"/><path d="m161 90c0 5.523438-4.476562 10-10 10s-10-4.476562-10-10 4.476562-10 10-10 10 4.476562 10 10zm0 0"/><path d="m288 103c0 5.523438-4.476562 10-10 10s-10-4.476562-10-10 4.476562-10 10-10 10 4.476562 10 10zm0 0"/></svg>