<svg version="1.1" xmlns="http://www.w3.org/2000/svg" xmlns:xlink="http://www.w3.org/1999/xlink" x="0px" y="0px"
	 viewBox="0 0 24 24" style="enable-background:new 0 0 24 24;" xml:space="preserve">
<style type="text/css">
	.st0{fill:#ffffff;}
</style>
<g id="Layer_1">
	<path class="st0" d="M0,4.8C0,2.1,2.1,0,4.8,0c0,0,0,0,0,0h14.4C21.9,0,24,2.1,24,4.8v14.4c0,2.7-2.1,4.8-4.8,4.8H4.8
		C2.1,24,0,21.9,0,19.2V4.8z M4.8,2.4c-1.3,0-2.4,1.1-2.4,2.4l0,0v14.4c0,1.3,1.1,2.4,2.4,2.4h14.4c1.3,0,2.4-1.1,2.4-2.4V4.8
		c0-1.3-1.1-2.4-2.4-2.4H4.8z"/>
</g>
<g id="Layer_2">
	<g>
		<path class="st0" d="M18.7,15.8C18.6,15.8,18.6,15.7,18.7,15.8c-0.3-0.5-0.8-1.1-1.5-1.7l0,0l0,0l0,0h0c-0.3-0.3-0.5-0.5-0.6-0.6
			c-0.2-0.2-0.2-0.4-0.1-0.6c0.1-0.2,0.3-0.5,0.7-1c0.2-0.3,0.4-0.5,0.5-0.6c0.9-1.1,1.2-1.9,1.1-2.2l0-0.1c0,0-0.1-0.1-0.2-0.1
			c-0.1,0-0.3,0-0.5,0l-2.1,0c0,0-0.1,0-0.1,0c-0.1,0-0.1,0-0.1,0l0,0l0,0c0,0-0.1,0-0.1,0.1c0,0-0.1,0.1-0.1,0.1
			c-0.2,0.6-0.5,1.2-0.8,1.7c-0.2,0.3-0.4,0.6-0.5,0.8c-0.2,0.2-0.3,0.4-0.4,0.5c-0.1,0.1-0.2,0.2-0.3,0.3c-0.1,0.1-0.1,0.1-0.2,0.1
			c0,0-0.1,0-0.1,0c-0.1,0-0.1-0.1-0.2-0.2c0-0.1-0.1-0.2-0.1-0.3c0-0.1,0-0.2,0-0.3c0-0.1,0-0.2,0-0.4c0-0.2,0-0.3,0-0.3
			c0-0.2,0-0.4,0-0.6c0-0.2,0-0.4,0-0.5c0-0.1,0-0.3,0-0.4s0-0.3,0-0.3c0-0.1,0-0.2-0.1-0.2c0-0.1-0.1-0.1-0.2-0.2
			c-0.1,0-0.1-0.1-0.2-0.1c-0.3-0.1-0.6-0.1-1-0.1c-0.9,0-1.5,0-1.8,0.2C9.4,8.7,9.4,8.8,9.3,8.8C9.2,9,9.2,9,9.2,9
			c0.3,0,0.5,0.2,0.6,0.3l0,0.1c0,0.1,0.1,0.2,0.1,0.3c0,0.2,0.1,0.3,0.1,0.5c0,0.4,0,0.7,0,0.9c0,0.3,0,0.5-0.1,0.6
			s-0.1,0.3-0.1,0.3c0,0.1-0.1,0.1-0.1,0.2c0,0,0,0,0,0c-0.1,0-0.1,0-0.2,0c-0.1,0-0.2,0-0.3-0.1C9.2,12.3,9.1,12.2,9,12
			c-0.1-0.1-0.2-0.3-0.4-0.5c-0.1-0.2-0.3-0.5-0.4-0.8l-0.1-0.2c-0.1-0.1-0.2-0.3-0.3-0.6C7.7,9.7,7.6,9.4,7.5,9.2
			c0-0.1-0.1-0.2-0.2-0.2l0,0c0,0-0.1,0-0.1-0.1c-0.1,0-0.1,0-0.2,0l-2,0c-0.2,0-0.3,0-0.4,0.1l0,0c0,0,0,0.1,0,0.1
			c0,0.1,0,0.1,0,0.2c0.3,0.7,0.6,1.4,1,2s0.7,1.2,0.9,1.6c0.3,0.4,0.5,0.8,0.8,1.1c0.3,0.4,0.4,0.6,0.5,0.7
			c0.1,0.1,0.2,0.2,0.2,0.2l0.2,0.2c0.1,0.1,0.3,0.3,0.5,0.4c0.2,0.2,0.5,0.3,0.8,0.5c0.3,0.2,0.6,0.3,1,0.4
			c0.4,0.1,0.7,0.1,1.1,0.1h0.9c0.2,0,0.3-0.1,0.4-0.2l0,0c0,0,0-0.1,0.1-0.1c0-0.1,0-0.1,0-0.2c0-0.2,0-0.4,0-0.6
			c0-0.2,0.1-0.3,0.1-0.4c0-0.1,0.1-0.2,0.2-0.2c0.1-0.1,0.1-0.1,0.1-0.1c0,0,0,0,0.1,0c0.1,0,0.3,0,0.4,0.1
			c0.2,0.1,0.3,0.3,0.5,0.4c0.1,0.2,0.3,0.4,0.5,0.6c0.2,0.2,0.4,0.4,0.5,0.5l0.1,0.1c0.1,0.1,0.2,0.1,0.4,0.2c0.2,0,0.3,0.1,0.4,0
			l1.9,0c0.2,0,0.3,0,0.4-0.1c0.1-0.1,0.2-0.1,0.2-0.2c0-0.1,0-0.2,0-0.3C18.7,15.9,18.7,15.8,18.7,15.8z"/>
	</g>
</g>
</svg>
