<?xml version="1.0" encoding="UTF-8"?>
<!DOCTYPE svg PUBLIC "-//W3C//DTD SVG 1.1//EN" "http://www.w3.org/Graphics/SVG/1.1/DTD/svg11.dtd">
<!-- Creator: CorelDRAW 2019 (64-Bit) -->
<svg xmlns="http://www.w3.org/2000/svg" xml:space="preserve" width="2490.62mm" height="672.425mm" version="1.1" style="shape-rendering:geometricPrecision; text-rendering:geometricPrecision; image-rendering:optimizeQuality; fill-rule:evenodd; clip-rule:evenodd"
viewBox="0 0 241537.05 65211.03"
 xmlns:xlink="http://www.w3.org/1999/xlink">
 <defs>
  <style type="text/css">
   <![CDATA[
    .fil1 {fill:#2B2A29}
    .fil0 {fill:#2B2A29;fill-rule:nonzero}
   ]]>
  </style>
 </defs>
 <g id="Layer_x0020_1">
  <metadata id="CorelCorpID_0Corel-Layer"/>
  <path class="fil0" d="M41948.63 46778.11c-253.24,1409.39 -2014.99,6859.77 -4228.16,10152.02 -2334.31,3358.32 -4800.74,5472.4 -9293.17,5703.63 -4217.15,231.23 -6639.56,-1827.8 -6859.77,-5989.91 -264.27,-5076.01 3688.64,-5219.15 3622.58,-6474.38 -55.05,-1123.1 -682.68,-1750.73 -1739.72,-1695.67 -2048.02,110.11 -4129.07,3259.22 -3963.9,6364.27 385.37,7388.29 5307.23,10372.24 10647.5,10096.96 11286.13,-594.59 14985.78,-13157.98 17529.28,-22748.43 1101.1,-4228.17 5031.97,-7608.5 4723.66,-13477.3 -66.07,-1123.1 -836.82,-2081.05 -1893.87,-2025.99 -3237.18,176.17 -5714.63,10889.74 -6485.39,13972.78 -858.84,3611.56 -6089,4811.75 -6683.6,4844.78 -4558.49,242.24 -6353.27,-5087.01 -6606.52,-9975.83 -671.66,-12728.56 8401.29,-28815.43 18233.99,-29332.93 1915.89,-99.11 3380.34,1277.25 3490.44,3391.33 154.15,2906.87 -3391.34,9898.77 -7872.76,10141.01 -990.99,44.05 -1838.83,-1035.02 -1893.87,-2025.99 -165.16,-3226.19 2345.32,-1970.94 2213.18,-4547.48 -33.04,-528.52 -528.52,-1222.21 -1387.37,-1178.17 -1849.83,99.09 -3996.94,2059.03 -3842.79,4899.84 143.13,2697.66 2114.08,5109.04 4822.75,4965.9 5934.85,-308.31 10548.41,-6969.88 10262.14,-12508.35 -132.14,-2576.53 -2037.01,-6111.01 -7388.29,-5835.75 -12860.68,682.67 -20832.55,20215.94 -20293.01,30511.09 583.57,11209.06 6397.31,13620.43 10955.81,13378.19 1904.87,-99.09 3127.08,-957.94 3710.66,-990.97 198.19,-11.02 275.27,55.05 220.21,385.37z"/>
  <path id="1" class="fil0" d="M71734.59 25634.25c-253.25,-5009.95 -1189.17,-7608.5 -5076.01,-7399.3 -8313.2,429.42 -12365.2,19103.84 -13091.92,22913.6 -1134.12,6144.06 1420.41,11957.8 4987.92,11770.62 6727.63,-352.35 13708.52,-17320.09 13180.01,-27284.92zm-1552.53 -638.63c627.62,11869.71 -7476.37,25258.91 -10504.36,25424.08 -2312.28,121.12 -2433.4,-6089 -330.33,-13741.55 1277.26,-4767.69 4822.76,-15272.06 8588.48,-15470.26 1915.88,-99.09 2125.09,1541.53 2246.2,3787.73z"/>
  <path id="2" class="fil0" d="M126062.76 22003.66c-495.49,-4283.23 -1959.93,-13334.15 -2147.12,-16890.66 -66.06,-1189.16 -33.03,-1915.88 -352.33,-2895.86 -319.32,-1112.1 -1486.47,-1838.82 -2532.51,-1783.76 -396.38,22.01 -726.71,99.1 -1046.02,319.31 -9700.57,5604.53 -5208.14,4239.19 -23761.44,8522.41 -3798.74,792.78 -7784.68,4173.11 -7553.45,8731.62 231.24,4283.22 3259.22,6639.54 7949.84,6397.3 3556.51,-187.18 5549.48,-3798.74 5461.39,-5450.37 -77.08,-1585.57 -858.84,-2532.51 -2048.02,-2466.43 -1970.95,99.09 -1948.93,5659.58 -5703.63,5846.77 -2312.29,121.12 -3677.62,-1915.88 -3787.73,-3963.91 -165.17,-3237.19 2367.33,-6606.52 8059.94,-7894.78 583.58,-165.16 14644.44,-3149.11 15943.74,-3622.57 66.06,-0.01 132.12,-66.07 198.19,-66.07 264.27,-22.01 528.52,33.03 792.78,88.09 0,0 -6441.34,23486.16 -8841.72,30687.26 -572.57,1618.61 -4976.91,18652.39 -13213.04,19081.83 -4954.89,264.27 -7795.68,-3424.38 -8081.97,-8896.77 -451.45,-8709.6 5571.5,-14842.65 8478.36,-14996.8 2774.73,-143.14 3611.56,2059.04 3688.64,3446.4 66.06,1376.35 -671.67,3732.68 -2433.4,5351.27 -319.31,209.2 -1200.18,1189.17 -1178.16,1585.57 33.03,660.65 1112.1,858.84 1827.8,825.81 3963.91,-209.2 5615.54,-2741.71 5417.34,-6628.53 -198.2,-3765.73 -3237.19,-6254.17 -6804.71,-6066.99 -5406.33,286.27 -13036.85,6309.22 -12530.35,15943.73 506.49,9557.42 7333.23,11187.03 10702.55,11010.85 7982.87,-418.42 12343.17,-7993.88 15756.54,-18751.49 4206.15,-13124.95 10041.91,-33076.63 10306.16,-33087.65 1442.42,-77.07 3534.49,19599.34 3567.52,20182.91 44.04,924.91 -308.31,1805.78 -924.91,2631.59 -2279.25,3226.19 -3611.57,8059.96 -3545.51,9249.12 0,132.13 88.1,396.4 220.22,451.45 341.34,176.17 561.56,-693.68 671.67,-1024.01 792.78,-2488.45 1453.43,-3787.73 3875.82,-6881.78 429.43,3083.03 561.56,5725.65 -11.01,8533.41 -385.38,1673.66 -1101.09,3027.99 -2356.32,3094.06 -462.46,22.02 -748.74,-286.29 -726.72,110.1 33.03,528.52 1046.04,1001.99 1970.95,946.94 4756.69,-242.24 5670.59,-6705.61 5450.38,-10933.78 -77.08,-1519.5 -363.36,-3149.11 -418.42,-4140.08 -77.07,-1453.44 -121.12,-2312.28 880.87,-3490.44 2422.4,-2906.87 4734.68,-5472.4 5846.77,-6925.84 66.07,-66.06 264.27,-143.13 396.39,-77.07 132.13,55.05 143.14,187.18 154.16,385.38 22.01,528.52 -3908.86,13829.64 -3798.75,20964.67 121.12,9788.66 2774.73,16263.05 8775.65,15954.73 792.78,-44.04 1761.74,-429.42 1717.7,-1222.2 -11.02,-264.26 -286.29,-440.43 -550.55,-429.42 0,0 -132.12,0 -264.27,11.02 -2037,110.11 -5659.58,-2081.05 -5505.42,-10493.35 440.43,-21922.63 8753.63,-34926.45 11010.85,-41059.5 55.06,-132.13 110.12,-341.34 99.11,-539.53 -33.04,-660.65 -814.82,-1673.65 -1937.92,-1618.6 -1244.22,66.06 -2158.13,1574.55 -2631.59,2653.61 -3479.45,6804.71 -11517.36,17672.43 -14534.34,19291.03z"/>
  <path id="3" class="fil0" d="M157699.52 21129.02c-253.25,-5009.95 -1189.16,-7608.51 -5076.01,-7399.3 -8313.2,429.42 -12365.2,19103.84 -13091.91,22913.6 -1134.12,6144.06 1420.4,11957.8 4987.91,11770.62 6727.63,-352.35 13708.52,-17320.09 13180.01,-27284.92zm-1552.53 -638.63c627.62,11869.71 -7476.37,25258.91 -10504.36,25424.08 -2312.28,121.12 -2433.4,-6089 -330.33,-13741.55 1277.26,-4767.7 4822.76,-15272.06 8588.48,-15470.26 1915.88,-99.09 2125.09,1541.52 2246.2,3787.73z"/>
  <path id="4" class="fil0" d="M168563.54 36377.08c1816.8,-1948.93 8588.47,-6474.39 9535.4,-14787.59 660.65,-6452.36 -4492.43,-10019.88 -10129.99,-9061.93 -979.97,121.12 -1552.53,539.53 -1849.82,1354.33 11.02,66.07 -9172.04,30643.23 -9623.49,32118.69 -429.42,2014.98 1695.67,2092.06 3215.18,2081.05 5758.67,-33.04 10185.04,-1387.37 10812.65,-7113.02 220.22,-1992.97 -737.73,-3864.81 -1959.93,-4591.52zm-3391.35 -1541.53c-682.66,-363.36 -198.19,-1178.16 -88.09,-1651.63 2103.08,-7916.82 4899.85,-17584.35 5020.95,-17859.61 231.24,-671.67 814.81,-836.83 1431.42,-473.47 2653.61,1453.43 2642.61,6342.25 1739.71,9238.12 -957.94,3160.11 -3391.34,8511.39 -7124.02,10559.41 -253.26,143.14 -649.65,297.29 -979.98,187.18zm1585.57 6331.24c-44.05,2917.88 -2136.11,4613.54 -3985.94,4701.64 -517.51,165.16 -1001.99,-275.27 -902.89,-803.79 88.1,-935.93 187.19,-1398.39 1618.61,-5648.58 231.22,-803.79 682.66,-957.94 1486.46,-803.79 1079.05,341.34 1838.82,1101.09 1783.76,2554.52z"/>
  <path id="5" class="fil0" d="M188255.93 11995.22c-1123.1,55.05 -1640.61,418.42 -1992.96,1222.2 -352.34,814.81 -8995.87,27791.42 -9370.24,30588.18 -297.3,2003.97 1134.12,2719.68 2708.68,2642.61 990.98,-55.05 1519.48,-1409.39 1805.77,-2345.32 0,0 9480.35,-29740.33 9480.35,-29740.33 506.49,-1805.77 -1123.11,-2455.43 -2631.6,-2367.34z"/>
  <path id="6" class="fil0" d="M199734.15 43008.98c-2510.46,132.13 -5593.52,561.56 -5593.52,561.56 -858.84,-22.01 -1211.19,-407.4 -1057.04,-1200.18 154.16,-935.92 363.36,-1871.85 649.64,-2752.72 297.3,-803.79 4195.15,-13444.26 8896.77,-24609.27 880.88,-2092.07 330.33,-3919.87 -1057.03,-3842.8 -858.85,44.05 -2499.47,198.21 -3545.51,1838.83 -484.47,814.8 -8577.46,24322.98 -8797.67,29035.64 -44.05,1585.56 363.35,4283.22 3314.27,3798.75 2279.24,-583.58 4514.45,-836.84 6760.67,-1024.02 792.78,-33.03 1772.74,-88.09 1805.77,-880.87 33.04,-473.47 -517.5,-1035.02 -1376.36,-924.92z"/>
  <path id="7" class="fil0" d="M210935.76 34551.99c330.32,44.05 2378.34,-121.12 2642.61,-143.14 979.96,-110.11 1354.34,-594.59 1332.3,-990.98 -22.01,-462.45 -440.43,-836.83 -1431.41,-781.77 -726.71,33.03 -1057.04,55.05 -1706.68,154.15 -1519.49,77.07 -1948.92,-429.42 -1497.48,-1904.88 2059.04,-7454.36 4217.16,-12992.82 5439.37,-16163.95 473.47,-1211.19 638.63,-1750.72 957.94,-2037.01 319.32,-209.19 4723.66,-770.75 5042.98,-858.84 198.21,-11.01 451.45,-286.28 440.44,-484.47 55.05,-198.21 -99.09,-528.52 -231.23,-649.64 -275.27,-187.19 -616.61,-363.36 -880.87,-352.35 -2378.35,121.12 -4679.62,242.23 -6980.89,627.62 -913.91,121.13 -1684.66,682.68 -2037.01,1563.55 -3908.85,8544.43 -5318.24,13378.19 -7289.18,22407.1 -528.53,2543.51 -528.52,7641.53 1926.89,9028.9 1497.48,847.84 3027.99,836.83 4800.73,748.73 264.26,-22.01 506.5,-495.48 561.56,-627.62 33.03,-726.72 -1167.15,-869.85 -1838.81,-1035.02 -1057.05,-132.13 -1299.28,-847.84 -1552.54,-1827.81 -77.07,-396.39 -176.16,-858.84 -198.19,-1321.3 110.1,-1717.7 154.15,-2125.1 594.58,-3798.75 286.29,-935.93 847.85,-1497.47 1904.89,-1552.53z"/>
  <path class="fil1" d="M-0 60215.21l1409.58 34.37c214.6,0.94 273.66,-33.33 467.49,-35.71 152.49,-1.87 320.53,9.63 471.05,1.48l2850.8 -134.61c162.66,-8.7 340.29,6.22 504.38,1.33 426.11,-12.79 965.79,-70.56 1408.14,-67.89 215.6,1.43 289.52,-29.73 468.03,-35.02 665.27,-19.9 1253.14,-56.54 1914.26,-64.73l3284.76 -170.22c455.94,-13.63 972.76,4.34 1419.05,-56.89l2875.89 -109.37c204.3,1.18 274.66,-25.49 435.4,-34.22 162.71,-8.74 340.77,9.09 503.49,0.35 80.78,-4.35 143.26,-12.74 210.56,-20.1 -42.82,-297.52 -63.55,-593.02 -63.45,-884.95 -751.58,4.69 -1545.38,101.82 -2294.78,98.61 -323.99,-1.43 -988.45,71.11 -1441.92,67.51l-1408.78 67.06c-384.92,-3.02 -938.23,69.78 -1409.13,66.86 -215,-1.43 -273.37,33.28 -467.44,35.61l-941.84 30.86c-193.87,2.27 -252.74,36.79 -467.58,35.71 -197.57,-1.04 -330.36,3.15 -479.44,23.65l-2373.44 108.68c-380.92,-0.3 -1331.21,155.25 -1766.8,212.38 -555.38,72.99 -1168.79,174.96 -1726.35,252.83 -1118.33,156.24 -2280.95,319.79 -3381.89,576.42zm42760.97 -1783.63c110.76,-7.81 189.67,-22.66 307.05,-29.04 162.71,-8.75 340.68,9.14 503.39,0.39l1409.97 -65.97c193.97,-2.38 252.69,-36.89 467.5,-35.71 781.25,4.1 1567.39,-102.76 2349.44,-99.1l5232.93 -234.61c201.63,-0.24 243.25,-33.68 433.62,-36.05 159.15,-1.98 347.44,12.39 502.69,-0.45l1411.7 -64.19c207.45,-0.35 259.85,-35.66 467.29,-35.9 370.4,-0.45 609.45,-33.28 974.63,-31.65 205.58,0.99 259.3,-30.22 434.15,-35.41l974.24 -32.05c215.84,1.53 289.46,-29.72 468.08,-35.11l1908.13 -70.91c145.62,-16.35 245.47,-30.22 441.07,-28.54l937.29 -35.41c160.25,-13.33 261.17,-33.38 471.35,-31.85 195.25,1.43 295.54,-12.35 440.97,-28.7l1907.78 -71.2c214.7,0.98 273.76,-33.28 467.49,-35.66 163.45,-2.02 343.39,10.17 504.57,1.44l1409.43 -66.52c214.75,1.04 273.57,-33.23 467.44,-35.65 156.44,-1.98 348.03,13.43 499.63,-3.56l1883.18 -95.84c195.31,1.48 295.54,-12.25 441.02,-28.54 158.07,-17.83 338.16,3.8 498.35,-4.84l940.8 -65.53c147.89,-12.2 318.46,3.85 468.92,-0.7l2351.71 -130.36c155.45,-17.49 340.18,0.88 499.39,-3.85 452.08,-13.49 937.59,-66.57 1408.78,-67.11 207.4,-0.25 259.89,-35.56 467.24,-35.8 632.07,-0.94 1279.85,-67.95 1913.9,-65.23 334.06,1.43 971.67,-71.16 1407.95,-67.95l1883.29 -95.75c158.16,-17.73 338.2,3.9 498.35,-4.69 166.96,-9.04 255.69,-35.5 469.32,-33.97 314.65,2.37 552.67,-23.91 873.74,-30.92 -226.21,-347.15 -411.54,-708.71 -558.65,-1079.02l-2159.57 136.93c-160.24,8.64 -340.23,-13.09 -498.39,4.74l-2351.56 130.66c-357.33,4.34 -594.6,33.33 -941.15,31.45l-1408.89 67.16c-214.81,-1.09 -273.57,33.28 -467.49,35.71 -367.79,4.44 -613.36,33.08 -974.83,31.35 -205.57,-0.89 -259.24,30.27 -434.15,35.5 -466.2,13.97 -996.99,-5.58 -1452.59,56.89l-2837.02 114.76c-155.36,17.48 -269.87,29.98 -474.65,28.49l-2817.82 133.97c-347.34,-2.72 -966.88,66.02 -1443.05,66.37l-923.82 48.89c-165.67,25.19 -306.36,19.45 -484.53,18.61 -334.75,-1.58 -956.5,70.67 -1408.48,67.56 -215.8,-1.48 -289.38,29.72 -467.98,35.11 -165.82,4.84 -339.65,-7.21 -505.37,-2.27 -407.1,12.2 -975.22,69.53 -1408.39,67.46l-1845.86 99.69c-159.79,13.29 -339.83,-9.68 -499.58,3.61 -261.03,21.53 -648.18,41.92 -909.25,63.55l-971.02 35.21c-201.18,-1.77 -285.87,19.31 -437.62,31.9l-971.37 35.01c-378.26,-3.5 -941.2,69.68 -1409.18,66.72 -214.95,-1.39 -273.33,33.28 -467.53,35.65l-4285.57 175.6c-236.58,32.54 -662.05,35.15 -916.56,56.25l-971.02 35.2c-201.18,-1.73 -285.91,19.41 -437.71,31.9 -159.79,13.24 -340.33,-7.06 -501.51,1.58l-2654.52 130.02c-5.32,348.48 -39,696.52 -101.08,1040.26zm59035.37 -2642.02l877.35 -37.23c207.4,-0.35 259.94,-35.66 467.24,-35.95 673.85,-0.89 1250.96,-68.1 1913.9,-65.24 214.66,0.99 273.62,-33.28 467.49,-35.6l1914.55 -64.54c350.31,-4.3 963.13,-69.68 1408.19,-67.7l1879.39 -99.61c159.74,-13.28 340.28,7.01 501.46,-1.68l3286.84 -168.09c161.13,-8.74 341.22,3.56 504.73,1.53 193.67,-2.46 252.68,-36.59 467.34,-35.75 776.56,3.1 1593.22,-59.22 2348.64,-100.05 162.66,-8.79 340.74,9.09 503.39,0.3 166.91,-8.99 255.65,-35.5 469.22,-33.87l940.55 -32.25c207.41,-0.25 259.94,-35.6 467.29,-35.9l1409.77 -66.12c161.18,-8.69 341.72,11.71 501.56,-1.58l1378.32 -64c193.97,-2.37 252.68,-36.89 467.49,-35.7 353.87,1.87 606.89,-26.97 974.77,-31.51 190.37,-2.32 232.09,-35.76 433.61,-36l974.24 -32c215.8,1.48 289.52,-29.72 468.13,-35.11 154.61,-4.6 317.13,6.82 471.78,2.12 456.88,-13.58 980.9,-69.78 1441.23,-68.15l1906.94 -72c295.79,-33.23 605.06,-43.31 911.22,-49.92 -244.93,-492.82 -415.93,-1002.58 -518.3,-1517.57l-5558.35 258.41c-136.74,15.41 -323.54,4.74 -465.52,4.15 -322.15,-1.39 -997.88,71.21 -1441.57,67.95 -757.6,-5.63 -1587.54,98.61 -2349.05,99.5 -207.5,0.24 -259.88,35.7 -467.28,35.79 -362.81,0.4 -607.29,26.72 -975.28,31.21l-3251.87 169.38c-211.1,-1.93 -310.65,18.17 -471.69,31.5l-937.3 35.46c-210.55,-1.87 -310.94,18.38 -471.48,31.7 -159.75,13.19 -340.29,-7.11 -501.52,1.53l-1409.92 65.97c-193.92,2.37 -252.68,36.89 -467.49,35.76 -473.96,-2.62 -1031.22,70.21 -1409.18,66.66 -504.47,-4.74 -903.82,66.12 -1410.22,65.72l-4696.51 267.79c-150.76,12.5 -312.63,-10.16 -462.95,6.72l-2062.44 113.92c-86.82,491.84 -230.81,972.31 -428.72,1430.02zm44253.9 -1958.84l5863.28 -260.24c207.45,-0.19 259.89,-35.55 467.34,-35.79 621.26,-0.84 1247.6,-68.15 1880.23,-65.24l1408.19 -67.7c416.62,3.06 1009.99,-70.37 1442.51,-66.95l4694.83 -236.09c775.13,4.1 1605.22,-97.82 2383.36,-98.76 309.87,-0.39 991.47,-71.36 1407.66,-68.24l970.97 -35.36c260.93,-21.58 648.12,-41.97 909.1,-63.55l2380.9 -101.32c207.5,0 259.75,-35.85 467.29,-35.85 600.12,-0.15 1306.81,-50.27 1881.26,-97.82l2347.31 -101.33c207.5,0 259.79,-35.7 467.29,-35.8l1908.17 -70.85c374.65,-42.22 1192.39,-42.82 1408.78,-67.22l3316.37 -172.09c412.97,-56.64 947.08,-25.68 1360.05,-82.32l4695.86 -235.01c161.62,-22.17 330.02,-0.1 494.2,-8.98 267.11,-14.37 671.69,-53.09 938.78,-67.51 643.92,-34.51 1267.71,-48.04 1880.27,-98.71l3284.91 -170.22c387.5,3.66 1493.28,-104.44 1878.64,-100.33 443.05,4.84 917,-68.69 1409.77,-66.12l1876.97 -101.97c441.91,4.09 1473.38,-104.79 1878.9,-100.15 373.31,4.3 1400.14,-95.35 1879.67,-99.45l6571.95 -371.54c627.24,1.47 1261.29,-101.03 1880.43,-98.71l1872.42 -106.46c916.01,-102.61 1868.71,-113.63 2789.08,-162.81l8854.08 -538.11c214.75,0.84 302.89,-24.15 470.3,-32.74 930.58,-47.9 1898.15,-59.21 2822.66,-162.86l12084.47 -762.69c280.29,-42.21 659.04,-47.75 958.53,-47.75l0 -33.57c-360.82,0 -597.21,35.01 -939.91,32.84 -205.87,-1.38 -259.05,30.17 -434.31,35.41 -164.04,4.94 -341.62,-9.98 -504.27,-1.23l-1409.72 66.22c-178.86,5.29 -252.14,36.69 -468.14,35.01 -472.18,-3.75 -1016.45,70.22 -1408.78,67.16 -450.55,-3.61 -1395.65,74.37 -1878.6,100.39l-939.62 33.03c-216.39,-2.02 -289.07,29.73 -468.22,35.07 -359.45,10.76 -627.59,31.26 -974.93,31.3l-3285.8 169.18c-162.71,8.74 -340.74,-9.14 -503.49,-0.35 -763.57,41.28 -1573.03,98.71 -2348.94,99.7 -207.4,0.24 -259.89,35.6 -467.24,35.85l-1411.74 64.19c-158.08,13.14 -341.38,-4.15 -502.41,0.69 -178.65,5.33 -252.33,36.6 -468.13,35.12l-940.4 32.29c-318.76,-1.39 -993.45,70.56 -1441.53,67.85 -326.11,-1.82 -587.09,27.95 -940.45,32.34l-1876.87 102.23c-162.66,8.74 -340.33,-6.23 -504.38,-1.29 -178.41,5.38 -252.48,36.35 -468.08,35.12 -1266.32,-7.46 -2550.08,138.31 -3825.04,133.03 -205.58,-0.83 -259.4,30.17 -434.15,35.41 -165.67,5.03 -339.14,-4.44 -505.61,-2.46 -193.68,2.46 -252.74,36.64 -467.44,35.75 -936.85,-3.85 -1888.03,104.88 -2818.81,99.45 -215.55,-1.23 -289.62,29.78 -467.98,35.16 -165.73,4.89 -339.59,-7.17 -505.37,-2.22 -178.41,5.38 -252.39,36.34 -468.03,35.11 -968.86,-5.68 -1876.57,97.73 -2852.73,99.05 -207.35,0.3 -259.85,35.61 -467.2,35.9l-2402.03 80.14c-573.36,86.82 -1330.76,-8.44 -1921.21,57.88 -595.54,66.86 -1286.82,11.9 -1915.09,63.95 -506.05,41.92 -1454.51,12.84 -1904.42,74.57 -583.53,80.05 -1313.18,2.27 -1896.71,82.36l-2372.8 75.8c-215.5,-1.18 -289.67,29.83 -468.03,35.21 -164.64,4.89 -339.49,-2.62 -505.37,-2.27 -207.45,0.24 -259.89,35.55 -467.29,35.84 -156.58,0.2 -315.74,-4.39 -472.08,-2.51 -193.72,2.46 -252.73,36.59 -467.44,35.65 -981.14,-3.95 -1933.3,103.6 -2885.36,100.04l-1443.5 32.34c-207.4,0.3 -259.94,35.5 -467.29,35.85 -651.93,0.94 -1304.01,13.58 -1914.79,64.2 -629.91,52.19 -1318.08,-3.06 -1915.04,64 -587.68,65.97 -1329.43,-13.04 -1882.7,62.91 -418.79,57.38 -1447.5,19.7 -1907.62,71.36 -480.28,53.97 -962.49,40.68 -1437.62,38.27l-1407.45 68.39c-163.75,4.94 -339.99,-1.13 -505.02,-1.82l-1406.62 69.23c-167.49,1.97 -337.81,-2.76 -505.61,-2.42 -207.45,0.25 -259.99,35.5 -467.28,35.8 -156.99,0.19 -314.56,-1.29 -471.54,-1.98 -214.66,-0.83 -273.77,33.28 -467.49,35.76 -166.76,2.02 -337.86,-0.84 -504.87,-1.74l-1417.53 58.37c-306.11,41.92 -667.68,-18.46 -977.69,28.49 -564.42,85.48 -1350.46,-21.48 -1922.15,56.94 -272.98,37.43 -648.47,-6.37 -939.22,33.58 -278.11,38.17 -672.66,-6.13 -967.76,38.51 -564.08,85.48 -1352.54,2.03 -1901.66,77.38 -366.55,50.23 -1033.34,44.59 -1433.38,42.47l-1407.45 68.5c-164.68,4.94 -339.49,-2.47 -505.37,-2.27 -207.34,0.34 -259.88,35.6 -467.28,35.84 -1220.5,1.74 -2639.31,135.94 -3824.89,133.18 -153.77,-0.39 -318.41,-5.67 -470.74,-1.13 -178.36,5.38 -252.48,36.4 -468.09,35.12l-1444.03 31.85c-193.72,2.37 -252.79,36.49 -467.54,35.6 -1165.93,-4.74 -2649.47,137.92 -3791.12,133.37 -339.44,-1.28 -604.42,32.05 -973.69,32.55l-48.34 0.74c-34.82,498.4 -128.24,992.31 -278.26,1470.07z"/>
 </g>
</svg>
