<?xml version="1.0" encoding="UTF-8"?>
<!DOCTYPE svg PUBLIC "-//W3C//DTD SVG 1.1//EN" "http://www.w3.org/Graphics/SVG/1.1/DTD/svg11.dtd">
<!-- Creator: CorelDRAW X7 -->
<svg xmlns="http://www.w3.org/2000/svg" xml:space="preserve" width="356.847mm" height="217.185mm" version="1.1" style="shape-rendering:geometricPrecision; text-rendering:geometricPrecision; image-rendering:optimizeQuality; fill-rule:evenodd; clip-rule:evenodd"
viewBox="0 0 5051 3074"
 xmlns:xlink="http://www.w3.org/1999/xlink">
 <defs>
  <style type="text/css">
   <![CDATA[
    .fil0 {fill:#2B2A29;fill-rule:nonzero}
   ]]>
  </style>
 </defs>
 <g id="Layer_x0020_1">
  <metadata id="CorelCorpID_0Corel-Layer"/>
  <path class="fil0" d="M691 252c-3,67 -320,1312 -320,1322 2,39 50,54 73,53 19,-1 35,-14 46,-35 0,0 198,-775 225,-901 43,-190 313,-616 495,-625 58,-3 78,91 81,149 12,227 -146,793 -361,804 -42,2 -80,-41 -84,-104 -4,-94 39,-208 119,-275 7,-8 14,-18 14,-27 -1,-17 -15,-34 -42,-32 -109,5 -171,236 -167,329 7,117 79,191 224,183 271,-14 438,-557 424,-814 -9,-180 -77,-279 -225,-271 -140,7 -311,253 -372,308 -6,0 -2,-8 -3,-16 2,-7 35,-128 57,-169 7,-14 11,-26 10,-37 -2,-32 -37,-51 -54,-60 -8,-5 -16,-6 -25,-6 -72,4 -271,375 -517,387 -98,6 -167,-42 -172,-142 -4,-76 73,-133 70,-188 -1,-24 -31,-55 -69,-53 -61,3 -118,105 -113,205 8,142 109,233 306,223 130,-7 244,-79 334,-177 11,-12 29,-30 46,-31z"/>
  <path id="1" class="fil0" d="M1461 1139c51,-3 78,26 97,65 46,98 45,170 151,206 23,9 55,1 63,-26 4,-19 -20,-29 -40,-37 -20,-11 -34,-27 -39,-49 -23,-115 -53,-148 -78,-165 -18,-13 -7,-26 3,-34 8,-7 17,-9 24,-15 162,-69 290,-267 281,-430 -11,-214 -161,-221 -341,-211 -45,-2 -71,13 -88,55 0,0 -164,633 -212,793 -17,52 -14,139 43,136 51,-3 58,-43 71,-89 17,-66 25,-94 43,-162 3,-13 11,-36 22,-37zm350 -534c9,170 -93,437 -314,449 -13,1 -18,-7 -18,-17 -2,-30 86,-309 127,-471 15,-65 26,-73 68,-75 92,-5 137,46 137,114z"/>
  <path id="2" class="fil0" d="M2100 1098c10,1 68,-4 76,-4 28,-3 39,-17 38,-29 -1,-13 -13,-24 -41,-22 -21,1 -30,2 -49,4 -43,3 -56,-12 -43,-54 59,-214 121,-373 156,-463 14,-35 18,-51 28,-59 9,-6 135,-22 144,-24 6,-1 13,-9 13,-14 1,-6 -3,-15 -7,-19 -8,-5 -18,-10 -25,-10 -68,3 -134,7 -200,18 -26,3 -49,20 -59,45 -112,245 -152,383 -209,642 -15,73 -15,219 56,259 43,24 86,24 137,21 8,0 15,-14 16,-18 1,-21 -33,-25 -52,-29 -31,-4 -38,-25 -45,-53 -2,-11 -5,-24 -6,-38 4,-49 5,-61 18,-109 8,-26 24,-42 54,-44z"/>
  <path id="3" class="fil0" d="M3023 682c7,-1 -3,25 -4,34 -57,157 -137,422 -158,545 -13,78 47,96 70,91 20,-5 36,-25 42,-51 0,0 3,-61 156,-545 8,-29 97,-246 93,-324 -2,-34 -13,-65 -49,-63 -38,2 -64,41 -118,135 -68,123 -289,529 -365,635 -31,-165 -30,-471 -73,-663 -12,-53 -22,-66 -42,-80 -13,-11 -34,-7 -41,8 -9,16 -13,31 -18,46 -102,334 -194,722 -236,832 -10,23 -31,96 -2,95 17,-1 24,-7 31,-25 99,-314 115,-447 183,-637 1,-7 6,-25 15,-25 8,-1 11,16 11,22 12,85 41,502 53,579 4,34 17,77 53,75 36,-2 48,-33 59,-65 17,-51 265,-494 320,-599 3,-6 10,-20 20,-20z"/>
  <path id="4" class="fil0" d="M3500 344c-32,2 -47,12 -57,35 -10,23 -258,797 -269,877 -8,57 33,78 78,76 28,-2 43,-41 52,-68 0,0 271,-852 271,-852 15,-52 -32,-71 -75,-68z"/>
  <path id="5" class="fil0" d="M3580 1117c4,150 67,196 128,198 144,4 268,-211 455,-936 10,-27 16,-59 -12,-58 -23,0 -29,26 -37,53 -37,127 -225,875 -371,882 -23,2 -42,-43 -42,-79 -9,-178 101,-530 186,-751 10,-23 20,-99 -45,-106 -29,-4 -57,11 -67,36 -63,170 -204,595 -195,761z"/>
  <path id="6" class="fil0" d="M4847 586c8,0 -2,25 -4,34 -56,157 -137,423 -157,545 -13,79 47,96 69,91 21,-4 37,-24 43,-51 0,0 3,-61 156,-545 8,-29 97,-246 93,-323 -2,-34 -13,-66 -49,-64 -38,2 -64,41 -118,135 -68,123 -289,529 -365,635 -31,-165 -30,-470 -73,-663 -12,-53 -22,-65 -42,-80 -14,-10 -34,-7 -41,8 -9,16 -14,31 -19,47 -102,333 -193,721 -235,831 -10,24 -31,97 -2,95 17,-1 24,-7 31,-24 99,-314 114,-448 182,-637 2,-8 7,-25 16,-26 8,0 11,17 11,22 12,85 41,502 53,580 3,34 17,76 53,75 36,-2 48,-33 59,-66 17,-50 264,-494 320,-599 3,-6 10,-19 19,-20z"/>
  <path class="fil0" d="M1214 1214c-216,11 -626,421 -595,1026 11,202 161,282 314,274 276,-15 505,-567 492,-820 -12,-220 -86,-273 -245,-264 -40,2 -69,35 -68,52 0,2 3,6 4,8 3,3 10,7 16,7 2,0 2,0 4,-3 19,-2 35,-13 65,-14 61,-4 93,36 102,203 9,174 -178,756 -422,769 -84,4 -180,-57 -188,-216 -19,-370 231,-950 564,-968 242,-13 232,384 234,422 24,458 -354,993 -526,1002 -3,0 -7,1 -11,-1 -140,-76 -204,-120 -315,-114 -38,1 -96,46 -94,94 7,119 210,135 325,129 21,-2 50,-5 51,-5 80,-4 322,279 640,262 193,-10 256,-131 254,-174 -2,-36 -27,-54 -52,-52 -13,0 -22,8 -29,20 -5,8 -11,16 -16,23 -34,71 -134,121 -179,124 -153,8 -473,-188 -475,-237 -1,-11 5,-19 17,-28 486,-322 555,-815 545,-1004 -15,-288 -125,-531 -412,-515zm-392 1535c-89,5 -211,9 -216,-68 -2,-40 40,-50 73,-51 61,-4 126,40 166,76 6,6 14,16 14,26 -3,17 -23,16 -37,17z"/>
  <path id="1" class="fil0" d="M1660 2423c5,149 68,195 128,197 144,5 268,-211 456,-935 9,-27 15,-60 -13,-58 -23,-1 -29,26 -37,53 -37,127 -225,874 -371,882 -22,1 -42,-43 -42,-79 -9,-178 101,-531 186,-752 11,-23 20,-99 -45,-105 -29,-4 -56,10 -67,35 -63,171 -203,595 -195,762z"/>
  <path id="2" class="fil0" d="M2816 1719c-4,-85 -45,-136 -115,-132 -151,8 -238,189 -409,619 -4,7 -5,17 -10,25 -12,25 -27,30 -42,29 -20,-5 -39,-21 -51,-30 -16,-11 -34,2 -35,19 -1,47 42,51 66,61 17,6 23,16 18,33 -22,88 -40,139 -61,204 -3,14 -7,44 8,47 12,3 20,-10 24,-22 26,-75 47,-141 77,-215 12,-27 25,-43 53,-48 130,-22 131,-24 162,-18 15,3 24,16 22,31 -6,61 -60,123 -52,193 2,30 28,59 53,61 30,6 58,-5 72,-34 12,-23 20,-46 26,-71 174,-591 198,-685 194,-752zm-293 518c-43,4 -109,12 -153,12 -29,0 -41,-15 -31,-42 7,-23 212,-553 324,-559 43,-3 46,58 37,91 -50,171 -83,277 -130,446 -2,10 -5,18 -9,25 -8,18 -21,24 -38,27z"/>
  <path id="3" class="fil0" d="M3082 2477c-72,4 -161,16 -161,16 -24,-1 -35,-12 -30,-34 4,-27 10,-54 19,-79 8,-23 120,-386 255,-706 25,-60 9,-112 -31,-110 -24,2 -71,6 -101,53 -14,23 -246,697 -253,832 -1,46 11,123 95,109 66,-17 130,-24 194,-29 23,-1 51,-3 52,-25 1,-14 -15,-30 -39,-27z"/>
  <path id="4" class="fil0" d="M3533 1547c-32,2 -47,12 -57,35 -10,24 -257,797 -268,877 -9,57 32,78 77,76 29,-2 44,-41 52,-68 0,0 272,-852 272,-852 14,-52 -32,-70 -76,-68z"/>
  <path id="5" class="fil0" d="M3843 1590c36,0 69,-10 25,114 0,0 -166,558 -225,748 -12,42 15,59 49,58 34,-2 59,-30 67,-53 8,-23 17,-45 23,-68 127,-479 181,-629 201,-693 10,-29 20,-58 31,-89 9,-21 25,-33 48,-36 20,-3 39,-4 60,-6 9,-2 19,-1 28,-5 6,-2 13,-10 13,-15 1,-8 -3,-16 -9,-19 -7,-4 -15,-7 -25,-6 -21,1 -43,2 -66,5 0,0 -308,27 -308,27 -5,1 -12,3 -14,7 -4,6 -5,14 -1,19 2,6 10,9 17,8 29,3 57,3 86,4z"/>
  <path id="6" class="fil0" d="M4664 1486c-8,-7 -19,-1 -24,7 -42,76 -187,383 -223,381 -15,1 -36,-106 -47,-177 -16,-74 -68,-202 -158,-197 -32,2 -45,16 -36,48 7,20 14,42 21,63 37,127 59,258 82,388 -42,131 -113,364 -121,423 -9,56 32,76 78,74 28,-1 43,-40 51,-65 0,0 119,-372 148,-467 7,-13 16,-27 23,-41 69,-117 147,-258 207,-382 5,-10 10,-22 12,-31 -1,-8 -7,-19 -13,-24z"/>
 </g>
</svg>
