<svg xmlns="http://www.w3.org/2000/svg" xml:space="preserve" version="1.1"
    style="shape-rendering:geometricPrecision; text-rendering:geometricPrecision; image-rendering:optimizeQuality; fill-rule:evenodd; clip-rule:evenodd"
    viewBox="0 0 6533 1918" xmlns:xlink="http://www.w3.org/1999/xlink">
    <g id="Layer_x0020_1">
        <path 
            d="M2272 123c-3,-21 -9,-40 -24,-54 -45,-38 -101,-69 -161,-66 -155,8 -356,338 -426,499 -4,8 -14,24 -24,24 -9,1 -3,-38 1,-51 7,-32 16,-62 25,-92 18,-63 40,-122 58,-182 2,-7 4,-13 6,-17 2,-7 1,-13 1,-20 -2,-35 -29,-66 -63,-70 -3,-3 -5,-3 -7,-3 -15,-1 -33,6 -48,14 -8,4 -17,9 -27,14 -263,131 -757,161 -792,490 -16,143 108,235 202,244 119,13 216,-90 220,-132 4,-43 -31,-75 -61,-78 -58,-7 -87,130 -216,116 -44,-7 -88,-72 -82,-120 31,-301 638,-405 703,-412 8,1 13,7 13,16 3,44 -299,1091 -296,1161 2,42 49,87 77,85 13,-1 25,-10 33,-23 6,-9 9,-21 13,-32 9,-37 17,-74 26,-110 142,-545 468,-1249 691,-1261 40,-2 42,34 44,66 18,360 -394,932 -491,938 -13,0 -28,-1 -43,-9 -7,-1 -11,-3 -17,-3 -7,-4 -15,-3 -22,-3 -15,1 -27,6 -39,15 -19,11 -26,31 -25,48 1,17 10,33 27,41 22,11 48,17 74,22 12,3 27,2 43,4 12,31 15,54 14,82 -5,191 -143,551 -474,569 -59,3 -264,35 -279,-264 -10,-195 63,-416 275,-558 12,-8 18,-19 17,-29 0,-9 -5,-19 -12,-27 -16,-14 -37,-24 -56,-23 -108,6 -327,298 -313,567 13,246 192,419 444,406 431,-22 536,-453 527,-620 -2,-32 -8,-64 -18,-95 -2,-11 -5,-19 -5,-25 -1,-17 7,-26 29,-42 191,-140 481,-642 466,-922 -1,-25 -5,-53 -8,-78z" />
        <path id="1" 
            d="M2760 629c-5,-96 -51,-152 -129,-149 -170,10 -268,212 -459,694 -4,9 -5,20 -11,28 -14,29 -30,34 -47,33 -22,-6 -44,-24 -57,-34 -18,-11 -39,3 -40,22 -1,53 48,57 74,68 19,7 27,18 21,37 -25,99 -45,156 -69,229 -3,15 -8,49 9,53 14,3 23,-12 27,-25 29,-84 53,-158 87,-241 13,-30 27,-48 59,-53 145,-25 147,-27 182,-21 17,4 26,18 25,35 -7,68 -68,137 -59,215 2,34 31,67 59,70 34,7 65,-6 81,-38 13,-27 23,-53 29,-81 195,-662 222,-768 218,-842zm-329 581c-48,4 -122,12 -171,13 -32,-1 -46,-17 -35,-47 8,-26 238,-621 363,-627 49,-3 52,65 41,102 -56,192 -92,311 -146,501 -1,10 -5,19 -9,27 -9,20 -24,27 -43,31z" />
        <path id="2" 
            d="M2932 1241c57,-4 87,29 108,73 53,110 51,190 170,231 26,9 61,1 70,-29 5,-22 -22,-33 -44,-43 -22,-11 -38,-30 -44,-55 -25,-128 -59,-165 -88,-184 -20,-14 -8,-30 4,-39 8,-7 19,-9 27,-16 181,-78 325,-300 315,-482 -13,-240 -181,-248 -382,-237 -51,-2 -80,15 -99,62 0,0 -184,709 -238,888 -19,59 -15,156 48,153 57,-3 66,-48 80,-100 19,-73 28,-105 48,-181 3,-15 13,-41 25,-41zm392 -599c10,191 -104,490 -352,503 -15,1 -20,-8 -20,-18 -2,-34 96,-347 142,-528 17,-73 30,-83 76,-85 104,-6 154,51 154,128z" />
        <path id="3" 
            d="M3777 1175c58,-63 276,-208 306,-475 22,-207 -144,-322 -325,-291 -32,4 -50,17 -60,43 1,2 -294,985 -309,1032 -14,65 55,67 104,67 185,-1 327,-44 347,-228 7,-64 -24,-125 -63,-148zm-109 -49c-22,-12 -6,-38 -3,-54 68,-254 158,-564 162,-573 7,-22 26,-27 46,-16 85,47 84,204 55,297 -30,102 -109,274 -228,340 -9,4 -21,9 -32,6zm51 203c-1,94 -69,148 -128,151 -17,5 -32,-9 -29,-26 3,-30 6,-45 52,-181 7,-26 22,-31 48,-26 34,11 59,35 57,82z" />
        <path id="4" 
            d="M4305 1160c11,2 77,-4 85,-4 32,-4 44,-20 43,-32 -1,-15 -14,-27 -46,-25 -23,1 -34,1 -55,5 -49,2 -62,-14 -48,-62 66,-239 136,-417 175,-519 15,-39 20,-56 31,-65 10,-7 151,-25 162,-28 6,0 14,-9 14,-16 2,-6 -3,-17 -8,-21 -8,-6 -19,-11 -28,-11 -76,4 -150,8 -224,20 -30,4 -54,22 -66,51 -125,274 -171,429 -234,719 -17,82 -17,246 62,291 48,27 97,26 154,24 9,-1 17,-16 18,-21 1,-23 -37,-27 -59,-33 -34,-4 -41,-27 -50,-59 -2,-12 -5,-27 -6,-42 4,-55 5,-68 19,-122 9,-30 27,-48 61,-50z" />
        <path id="5" 
            d="M4698 1148c57,-3 86,29 108,73 52,110 50,191 169,231 26,10 62,1 71,-29 5,-22 -23,-33 -45,-42 -22,-12 -38,-30 -43,-55 -26,-129 -60,-165 -88,-185 -20,-14 -8,-29 4,-38 8,-7 19,-10 27,-17 181,-77 324,-299 315,-482 -13,-239 -181,-247 -383,-237 -51,-1 -80,15 -98,63 0,0 -184,709 -239,888 -18,58 -15,156 49,153 57,-3 65,-48 80,-100 19,-74 28,-106 48,-181 3,-15 12,-41 25,-42zm391 -598c11,190 -104,489 -352,503 -14,0 -19,-8 -19,-19 -2,-33 96,-347 142,-528 17,-73 29,-82 76,-85 104,-5 154,52 153,129z" />
        <path id="6" 
            d="M5485 682c-8,-159 69,-306 142,-309 48,-3 74,40 76,89 3,57 -21,120 -45,151 -16,18 -27,42 -7,58 15,14 34,4 48,-9 46,-58 59,-126 55,-205 -4,-87 -74,-162 -146,-158 -161,8 -281,161 -270,376 13,235 119,354 118,495 -1,72 -34,210 -102,214 -65,3 -142,-112 -113,-224 1,-11 7,-24 6,-34 0,-9 -9,-19 -18,-23 -4,-4 -15,-1 -21,1 -19,8 -26,25 -30,44 -12,48 -16,95 -7,145 17,78 105,176 247,168 80,-4 186,-95 196,-236 15,-238 -125,-318 -129,-543z" />
        <path 
            d="M0 1861l38 3c6,0 7,-2 13,-2 4,1 8,1 12,1l77 -4c5,0 10,1 14,1 12,-1 26,-3 38,-2 6,0 8,-1 13,-2 18,0 34,-1 52,-1l88 -5c13,0 27,1 39,-1l78 -3c5,0 7,-1 11,-1 5,0 10,1 14,0 5,0 7,-1 13,-1l25 -1c9,1 27,-2 39,-1l38 -2c6,0 8,-1 13,-1 18,-1 34,-1 52,-2 4,0 6,-1 11,-1l27 -1c9,0 26,-2 38,-2 6,1 8,-1 13,-1 4,0 9,1 13,1 5,0 6,-2 12,-2l39 -1c1,0 2,0 4,0 -6,-13 -11,-26 -15,-40l-11 1 -50 3c-20,-1 -43,2 -63,2l-26 2c-4,1 -9,0 -13,0 -16,2 -35,3 -51,3 -5,0 -7,1 -12,1l-39 2c-5,0 -7,1 -12,1l-26 1c-6,0 -7,1 -13,1 -20,-1 -42,3 -63,3 -9,-1 -27,2 -39,1l-38 2c-11,0 -26,3 -38,2 -6,0 -8,1 -13,1l-25 1c-6,0 -7,1 -13,1 -5,0 -9,0 -13,1l-64 3c-11,0 -36,5 -48,8 -15,2 -32,6 -47,9 -30,6 -62,12 -92,22zm1781 -74l36 -2c6,1 7,-1 13,-1 4,0 9,1 13,0l51 -2c5,0 8,-1 12,-1 4,-1 9,0 13,0l26 -2c4,-1 8,0 13,0l63 -4c4,0 9,0 14,0 12,0 25,-2 38,-1 5,0 7,-2 12,-2 17,1 35,-2 52,-1 9,0 26,-2 38,-2l51 -3c4,0 9,1 14,0 4,0 7,-1 12,-1 9,1 16,-1 26,0l77 -4c5,0 7,-1 12,-1 4,-1 9,0 13,0l38 -2c6,0 8,-1 13,-1 4,0 9,0 14,0 5,0 7,-1 12,-1 18,1 34,-2 51,-1l51 -3c4,0 9,0 13,0l128 -7c4,0 9,1 13,1l64 -3c5,0 7,-1 12,-1 19,0 34,-2 52,-1 6,0 7,-2 13,-2l51 -1c10,0 27,-2 39,-2l50 -3c5,0 10,1 14,0l89 -4c4,-1 9,0 13,0 6,0 7,-1 13,-1 21,0 43,-2 64,-3 4,0 9,1 13,0 5,0 7,-1 13,-1l25 0c6,0 7,-2 13,-2l38 -1c5,-1 9,0 14,0l37 -2c5,0 7,-1 13,-1 9,0 16,-1 26,-1 5,0 6,-1 12,-1l26 -1c6,1 8,-1 13,-1 4,0 8,1 12,1 13,-1 27,-3 39,-2l52 -2c12,-2 26,-1 38,-2 12,0 26,-2 38,-1l51 -4c10,1 17,0 26,0l39 -2c5,0 8,-1 12,-1 4,0 9,0 13,0l39 -2c5,0 7,-1 12,-1 4,0 9,1 13,1l26 -2c4,-1 8,0 12,0 6,0 8,-1 13,-1 5,-1 9,0 14,0l24 -2c6,-1 29,0 39,-2l166 -7c6,0 7,-2 13,-1 17,0 34,-2 51,-2l38 -2c11,1 27,-2 39,-2l127 -6c21,0 43,-3 64,-3 9,0 27,-2 38,-2l27 -1c7,0 17,-1 24,-2l65 -2c5,0 7,-2 12,-2 17,1 36,-1 51,-2l64 -3c5,0 7,-1 12,-1l52 -2c10,-2 32,-1 38,-2l90 -5c11,-2 25,0 37,-2l127 -7c4,-1 9,0 13,0 7,-1 18,-2 25,-2 18,-1 35,-2 51,-3l89 -5c11,0 41,-4 51,-3 12,0 25,-2 38,-2l51 -3c12,0 40,-3 51,-3 10,1 38,-3 51,-3l177 -11c17,0 35,-3 51,-3l51 -3c25,-4 50,-4 75,-5l240 -17c6,0 8,-1 13,-1 25,-1 51,-1 76,-5l327 -24c8,-1 18,-1 26,-1l0 -2c-10,0 -16,1 -25,1 -6,0 -7,1 -12,1 -4,0 -9,0 -14,0l-38 2c-5,0 -7,1 -12,1 -13,-1 -28,2 -39,2 -12,-1 -37,2 -50,3l-26 1c-6,-1 -8,1 -12,1 -10,0 -17,1 -27,0l-89 5c-4,0 -9,0 -13,0 -21,1 -43,3 -64,2 -5,0 -7,2 -12,2l-39 1c-4,1 -9,0 -13,0 -5,0 -7,1 -13,1l-25 1c-9,0 -27,2 -39,2 -9,0 -16,1 -26,1l-51 3c-4,0 -9,-1 -13,-1 -5,0 -7,2 -13,1 -34,-1 -69,4 -103,3 -6,0 -7,1 -12,2 -4,0 -9,-1 -14,-1 -5,0 -6,1 -12,1 -26,-1 -51,3 -76,3 -6,-1 -8,1 -13,1 -5,0 -9,-1 -14,-1 -5,0 -7,2 -12,1 -27,0 -51,3 -78,3 -5,0 -7,1 -12,1l-65 2c-16,3 -36,-2 -52,1 -16,2 -35,-1 -52,1 -14,2 -39,0 -51,2 -16,3 -36,-1 -52,2l-64 2c-6,-1 -8,1 -12,1 -5,0 -10,0 -14,-1 -6,0 -7,2 -13,2 -4,0 -8,-1 -13,-1 -5,0 -6,2 -12,1 -27,0 -52,3 -78,3l-39 0c-6,0 -7,1 -13,1 -17,0 -35,0 -52,2 -17,1 -35,-1 -51,1 -16,2 -36,-2 -51,1 -12,2 -39,0 -52,2 -13,2 -26,1 -39,1l-38 2c-4,0 -9,-1 -13,-1l-38 2c-5,0 -10,0 -14,0 -6,0 -7,1 -13,1 -4,0 -8,0 -12,-1 -6,0 -8,2 -13,2 -5,0 -9,-1 -14,-1l-38 2c-8,1 -18,-2 -27,0 -15,3 -36,-2 -51,1 -8,2 -18,0 -26,1 -7,2 -18,-1 -26,1 -15,3 -37,-1 -51,2 -10,2 -28,1 -39,1l-38 2c-5,0 -9,-1 -14,-1 -5,0 -7,2 -13,1 -32,0 -71,4 -103,3 -4,0 -9,0 -13,0 -4,0 -7,1 -12,1l-39 1c-6,0 -7,1 -13,1 -31,-1 -72,4 -102,3 -10,0 -17,1 -27,1 -5,-1 -6,1 -12,1 -4,0 -9,-1 -13,-1l-26 2c-10,1 -28,1 -39,1 -5,0 -7,1 -12,1 -4,0 -9,0 -13,0 -5,0 -7,1 -13,1 -31,-1 -72,4 -103,3 -9,0 -16,1 -26,1 -6,-1 -7,1 -12,1 -5,0 -9,-1 -14,-1 -4,1 -7,2 -12,2l-26 0c-6,0 -8,1 -13,1 -4,1 -9,0 -13,0 -5,0 -7,1 -13,1l-38 2c-4,0 -9,-1 -14,0l-153 7c-4,0 -9,0 -13,0 -8,-1 -27,2 -39,2 -20,-1 -43,3 -63,2 -6,0 -7,2 -13,1 -10,0 -16,1 -26,1l-88 5c-6,0 -8,1 -13,1l-25 1c-6,0 -9,0 -13,1 -4,0 -9,-1 -13,0l-39 1c-5,0 -6,2 -12,2 -13,-1 -28,2 -38,1 -14,0 -25,3 -39,2l-127 8c-4,1 -8,0 -12,0l-64 4c-6,0 -8,1 -12,1l-39 2c-5,0 -7,1 -12,1 -15,0 -37,4 -51,3l-38 3c-8,2 -17,0 -26,1l-100 8c-9,0 -18,-1 -26,1l-125 9c-7,2 -17,2 -25,2l-100 8c-5,0 -10,-1 -14,0l-63 3c-10,0 -17,1 -26,1l-38 2c-6,0 -7,1 -13,1 -10,0 -16,1 -26,1 -6,0 -7,1 -12,1 -12,0 -27,-1 -39,1l-77 3c-4,1 -7,1 -13,1l-76 4c-4,0 -11,0 -17,1 -2,15 -5,30 -9,45z" />
    </g>
</svg>