<?xml version="1.0" encoding="UTF-8"?>
<!DOCTYPE svg PUBLIC "-//W3C//DTD SVG 1.1//EN" "http://www.w3.org/Graphics/SVG/1.1/DTD/svg11.dtd">
<!-- Creator: CorelDRAW X7 -->
<svg xmlns="http://www.w3.org/2000/svg" xml:space="preserve" width="575.673mm" height="134.331mm" version="1.1" style="shape-rendering:geometricPrecision; text-rendering:geometricPrecision; image-rendering:optimizeQuality; fill-rule:evenodd; clip-rule:evenodd"
viewBox="0 0 12007 2802"
 xmlns:xlink="http://www.w3.org/1999/xlink">
 <defs>
  <style type="text/css">
   <![CDATA[
    .fil1 {fill:#2B2A29}
    .fil0 {fill:#2B2A29;fill-rule:nonzero}
   ]]>
  </style>
 </defs>
 <g id="Layer_x0020_1">
  <metadata id="CorelCorpID_0Corel-Layer"/>
  <path class="fil0" d="M3560 442c-4,-28 -11,-53 -31,-71 -59,-50 -133,-91 -211,-87 -204,11 -469,444 -561,656 -5,11 -18,31 -32,32 -11,1 -3,-51 2,-67 9,-43 21,-83 33,-122 23,-83 53,-160 77,-239 2,-9 4,-17 7,-23 2,-8 2,-17 1,-25 -2,-47 -38,-88 -83,-93 -3,-3 -6,-3 -8,-3 -20,-1 -45,8 -64,18 -10,6 -22,12 -35,18 -346,172 -995,211 -1042,644 -21,189 142,309 266,322 157,17 284,-119 289,-175 6,-56 -41,-98 -80,-102 -76,-10 -114,171 -283,152 -59,-8 -117,-94 -109,-157 41,-395 838,-532 925,-542 11,2 17,10 17,21 3,59 -394,1434 -389,1526 3,56 65,114 101,113 17,-1 33,-13 43,-31 8,-11 12,-28 17,-42 12,-48 23,-97 35,-145 186,-716 615,-1641 908,-1657 53,-3 55,45 57,87 25,473 -517,1225 -645,1232 -17,1 -37,-1 -57,-11 -8,-2 -14,-5 -22,-4 -9,-5 -20,-5 -28,-4 -20,1 -36,7 -52,19 -25,15 -34,41 -33,64 1,21 13,43 36,53 29,15 63,22 97,29 16,4 36,4 56,5 16,41 20,72 19,108 -6,252 -188,725 -623,748 -78,4 -347,46 -367,-347 -14,-256 83,-546 361,-734 16,-9 24,-23 23,-37 -1,-12 -7,-25 -16,-36 -20,-18 -49,-31 -74,-29 -142,7 -429,391 -410,745 16,323 252,551 583,533 566,-29 704,-595 692,-815 -2,-42 -10,-84 -23,-125 -3,-14 -7,-25 -7,-33 -1,-22 9,-34 39,-55 250,-184 632,-843 613,-1211 -2,-34 -7,-70 -12,-103z"/>
  <path id="1" class="fil0" d="M3592 1943c14,2 100,-5 111,-6 42,-4 58,-25 57,-42 -1,-19 -19,-35 -61,-33 -30,2 -44,3 -72,7 -64,3 -82,-18 -63,-80 87,-315 178,-549 230,-683 20,-51 27,-74 40,-86 14,-9 200,-33 213,-37 9,0 19,-12 19,-20 2,-8 -4,-22 -10,-27 -12,-8 -26,-16 -37,-15 -101,5 -198,10 -295,26 -39,5 -71,29 -86,66 -165,361 -225,565 -308,947 -22,107 -22,322 81,381 64,36 128,35 203,32 11,-1 22,-21 24,-27 1,-31 -49,-37 -78,-44 -44,-5 -55,-35 -65,-77 -4,-17 -8,-36 -9,-56 5,-72 7,-89 25,-160 12,-40 36,-63 81,-66z"/>
  <path id="2" class="fil0" d="M4787 1076c-7,-126 -66,-200 -170,-195 -222,12 -351,278 -603,912 -5,11 -7,25 -15,37 -17,37 -39,44 -61,42 -29,-7 -58,-30 -75,-43 -24,-16 -51,2 -52,27 -2,70 62,75 97,90 25,10 35,23 28,49 -33,130 -60,205 -91,301 -5,20 -10,65 12,69 17,5 30,-15 35,-32 39,-111 70,-208 114,-317 18,-40 36,-63 78,-70 191,-33 193,-36 239,-27 22,4 34,23 33,46 -10,90 -89,180 -78,283 3,45 41,87 78,91 45,9 86,-7 106,-50 18,-34 30,-69 39,-106 256,-871 291,-1009 286,-1107zm-432 763c-64,6 -161,17 -225,17 -43,0 -60,-21 -46,-61 10,-34 313,-816 477,-825 64,-3 69,87 54,134 -73,253 -121,409 -191,659 -3,14 -7,26 -13,37 -12,26 -31,35 -56,39z"/>
  <path id="3" class="fil0" d="M5013 1880c76,-4 114,39 143,96 69,145 66,251 222,304 34,12 81,2 93,-38 7,-29 -30,-43 -59,-56 -28,-15 -49,-39 -56,-72 -34,-169 -79,-217 -117,-243 -26,-18 -10,-39 6,-50 11,-10 25,-13 35,-22 238,-102 427,-394 414,-634 -16,-315 -237,-325 -502,-311 -67,-3 -106,19 -130,82 0,0 -242,932 -313,1167 -24,77 -20,205 63,201 75,-4 87,-63 105,-131 26,-97 38,-139 63,-238 5,-20 17,-54 33,-55zm515 -787c14,251 -136,644 -463,662 -19,1 -25,-11 -26,-25 -2,-44 127,-456 187,-694 23,-96 39,-108 101,-111 136,-8 202,67 201,168z"/>
  <path id="4" class="fil0" d="M6421 1658c130,-359 147,-885 -274,-863 -131,7 -135,-18 -183,127 -24,74 -306,1142 -342,1208 -8,15 -9,31 -12,49 -3,83 84,101 168,97 223,-12 480,-165 643,-618zm-205 -780c131,-7 180,343 56,707 -113,333 -205,466 -377,581 -14,9 -27,16 -44,22 -22,7 -45,-11 -38,-34 109,-420 334,-1194 344,-1228 12,-31 14,-45 59,-48z"/>
  <path id="5" class="fil0" d="M8900 162c-5,-28 -12,-52 -32,-71 -59,-50 -133,-91 -211,-87 -204,11 -469,444 -561,656 -5,11 -18,31 -32,32 -11,1 -2,-50 2,-67 9,-42 21,-82 33,-122 24,-82 53,-160 77,-239 2,-8 5,-17 7,-22 2,-9 2,-18 1,-26 -2,-47 -38,-87 -82,-93 -4,-3 -6,-3 -9,-3 -20,-1 -44,8 -64,18 -10,6 -21,12 -35,18 -346,172 -995,212 -1042,645 -21,188 142,308 266,321 157,17 284,-119 290,-174 5,-57 -42,-99 -81,-103 -76,-9 -114,171 -283,152 -59,-8 -117,-94 -109,-156 41,-396 839,-533 925,-543 11,2 17,10 17,21 4,59 -394,1435 -389,1527 3,55 65,114 101,112 17,-1 33,-13 43,-30 8,-12 12,-29 18,-43 11,-48 22,-97 34,-144 186,-717 615,-1642 908,-1658 53,-2 55,45 57,87 25,473 -517,1225 -645,1232 -16,1 -36,0 -56,-11 -9,-2 -14,-4 -23,-4 -9,-5 -20,-5 -28,-4 -20,1 -36,7 -52,19 -24,15 -34,41 -33,64 1,22 13,43 36,54 29,15 63,21 97,28 17,5 36,4 56,6 16,41 21,71 20,107 -7,252 -189,726 -624,748 -78,5 -347,46 -367,-347 -13,-256 83,-546 361,-734 17,-9 24,-23 23,-37 0,-11 -6,-25 -16,-36 -20,-18 -48,-31 -74,-29 -142,7 -429,391 -410,745 17,323 252,551 583,534 566,-30 704,-596 692,-816 -1,-42 -9,-83 -23,-125 -3,-14 -7,-24 -7,-33 -1,-22 10,-34 39,-55 250,-184 632,-843 613,-1211 -2,-34 -7,-70 -11,-103z"/>
  <path id="6" class="fil0" d="M8862 1678c75,-4 114,39 142,96 69,145 66,251 223,304 34,13 81,2 92,-38 7,-29 -29,-43 -58,-56 -29,-15 -50,-39 -57,-72 -34,-169 -79,-217 -116,-243 -26,-18 -10,-38 5,-50 11,-9 25,-13 36,-22 237,-102 426,-394 414,-633 -17,-315 -238,-326 -503,-312 -67,-2 -105,20 -130,82 0,0 -241,932 -313,1168 -24,76 -20,205 64,201 75,-5 86,-64 105,-132 25,-96 37,-139 63,-238 4,-20 16,-54 33,-55zm515 -786c13,250 -137,644 -463,661 -19,1 -26,-10 -26,-24 -3,-44 127,-457 187,-695 23,-95 39,-108 100,-111 137,-7 202,68 202,169z"/>
  <path id="7" class="fil0" d="M10305 907c-11,-212 -50,-322 -214,-313 -351,18 -523,807 -553,968 -48,260 60,505 210,497 285,-15 579,-731 557,-1152zm-65 -27c26,501 -316,1067 -444,1074 -98,5 -103,-258 -14,-581 54,-201 204,-645 363,-653 81,-4 89,65 95,160z"/>
  <path class="fil1" d="M0 2702l70 2c11,0 14,-2 23,-2 8,0 16,0 24,0l141 -7c9,0 17,0 26,0 21,0 48,-3 70,-3 10,0 14,-2 23,-2 33,-1 62,-3 95,-3l163 -9c23,0 49,1 71,-2l143 -6c10,0 13,-1 21,-2 8,0 17,1 25,0 9,0 13,-1 24,-1l46 -2c17,0 49,-3 72,-3l70 -4c11,1 15,-1 24,-1 32,-2 62,-2 95,-4 8,0 11,-1 21,-1l49 -2c18,0 47,-3 70,-3 10,0 14,-2 23,-2 8,0 17,0 25,0 9,0 11,-2 22,-2l71 -3c8,0 16,0 24,0 22,0 47,-3 70,-3 10,0 13,-2 21,-2 7,0 14,0 21,0 -5,-15 -9,-31 -12,-48 -55,3 -110,6 -165,8l-92 5c-38,0 -79,5 -117,5l-47 3c-8,1 -16,0 -24,1 -29,2 -64,4 -94,4 -10,0 -12,2 -21,2l-72 3c-10,0 -14,2 -22,2l-48 2c-11,0 -13,1 -24,1 -38,0 -78,6 -116,5 -16,0 -49,4 -72,4l-70 3c-19,0 -47,4 -70,3 -11,0 -14,2 -23,2l-47 2c-10,0 -13,2 -23,1 -10,0 -17,1 -24,2l-118 5c-19,0 -66,8 -88,11 -28,3 -58,8 -86,12 -55,8 -113,16 -168,29zm2887 -123l8 -1c10,0 14,-1 23,-1l95 -4c7,-1 12,-1 22,-1l46 -2c8,-1 13,-2 24,-2 9,0 14,0 22,-1l95 -4c10,0 13,-1 23,-1 8,0 17,0 25,0l70 -4c11,0 14,-1 23,-1 8,0 17,0 25,-1l94 -4c9,0 14,-1 22,-2 7,-1 16,0 24,0l47 -3c7,-1 16,0 23,0l117 -7c8,-1 17,0 25,0 23,-1 47,-3 70,-3 10,0 13,-2 23,-2 32,0 64,-3 96,-3 16,0 48,-4 69,-4l94 -4c8,-1 17,0 25,-1 8,0 13,-1 23,-1 17,0 29,-2 47,-2l142 -7c10,0 13,-1 21,-1 8,-1 17,0 25,0l70 -4c11,0 15,-1 24,-1 8,-1 17,0 25,0 9,0 12,-2 23,-2 32,0 62,-3 94,-3l93 -5c7,-1 16,0 23,0l235 -12c8,-1 17,0 25,0l117 -5c10,0 13,-2 23,-2 34,0 62,-3 95,-3 11,0 14,-2 24,-2l95 -3c17,0 48,-3 70,-3l93 -5c8,-1 17,0 25,0l164 -9c8,0 17,0 25,0 9,0 12,-2 23,-1 39,0 79,-3 117,-5 8,-1 17,0 25,0 8,-1 12,-2 23,-2l47 -2c10,0 13,-1 23,-1l70 -4c8,0 17,1 25,0l69 -3c9,0 12,-2 23,-2 17,0 30,-1 48,-1 10,-1 12,-2 22,-2l48 -2c11,0 15,-1 23,-2 8,0 16,1 24,1 23,-1 49,-4 72,-4l94 -3c23,-3 48,-3 71,-3 22,-1 46,-4 70,-4l93 -5c18,0 31,-2 48,-1l70 -4c11,0 16,-1 24,-1 7,-1 16,0 23,0l72 -4c10,0 12,-1 21,-2 9,0 17,1 26,1l17 -1c-8,-24 -13,-49 -17,-74 -52,1 -113,6 -161,6 -16,0 -30,2 -48,2 -10,0 -12,1 -21,2 -9,0 -18,-1 -26,-1 -8,1 -12,2 -23,2l-47 2c-10,0 -15,1 -23,1 -8,1 -17,0 -25,0 -9,1 -13,2 -23,2l-70 3c-8,1 -17,0 -25,0l-282 14c-7,0 -16,0 -24,0 -16,0 -49,3 -71,3 -38,0 -79,5 -117,5 -10,0 -13,2 -23,2 -18,0 -30,1 -49,1l-161 9c-11,0 -16,1 -24,1l-46 2c-11,0 -16,1 -24,2 -8,0 -17,-1 -25,0l-70 3c-9,0 -12,2 -23,2 -24,0 -51,3 -70,3 -25,0 -45,3 -70,3l-234 14c-7,0 -15,-1 -23,0l-117 7c-10,-1 -15,1 -23,1l-70 4c-11,-1 -14,1 -23,1 -27,1 -69,5 -94,5l-69 5c-15,2 -32,1 -47,2l-186 11c-15,2 -31,1 -46,3l-230 15c-12,1 -31,2 -45,3l-185 11c-8,1 -17,0 -25,1l-117 6c-18,0 -30,2 -47,2l-70 3c-11,0 -14,2 -23,2 -18,0 -31,1 -49,1 -10,0 -13,2 -21,2 -23,1 -50,0 -72,3l-141 6c-8,0 -14,1 -24,1l-140 7c-17,-1 -48,3 -72,3l-46 2c-8,2 -15,1 -24,1 -17,0 -47,4 -70,4 -11,0 -14,1 -23,1 -8,1 -17,0 -25,0 -21,1 -49,4 -70,4l-92 5c-3,0 -6,0 -9,0 1,17 0,34 -2,52zm5475 -246l82 -3c10,0 13,-2 23,-2 30,0 65,-2 94,-5l116 -5c11,0 13,-2 24,-2l94 -3c19,-2 60,-2 70,-4l165 -8c21,-3 47,-1 68,-4l233 -12c8,-1 17,0 25,0 13,-1 33,-3 47,-4 32,-1 63,-2 93,-5l163 -8c20,0 75,-5 94,-5 22,0 45,-3 70,-3l93 -5c22,0 73,-6 94,-5 18,0 69,-5 93,-5l327 -19c31,0 62,-5 93,-5l93 -5c46,-5 93,-6 139,-8l440 -27c11,0 15,-1 23,-1 47,-3 95,-3 141,-9l601 -37c13,-3 32,-3 47,-3l0 -1c-18,0 -30,1 -47,1 -10,0 -12,2 -21,2 -8,0 -17,-1 -25,0l-70 3c-9,0 -13,2 -24,2 -23,0 -50,3 -70,3 -22,0 -69,4 -93,5l-47 2c-10,0 -14,1 -23,2 -18,0 -31,1 -48,1l-164 9c-8,0 -17,-1 -25,0 -38,2 -78,4 -117,5 -10,0 -13,1 -23,1l-70 3c-8,1 -17,0 -25,1 -9,0 -13,1 -23,1l-47 2c-16,0 -49,3 -72,3 -16,0 -29,2 -46,2l-94 5c-8,0 -17,0 -25,0 -9,0 -12,2 -23,2 -63,-1 -127,6 -190,6 -10,0 -13,2 -22,2 -8,0 -17,0 -25,0 -10,0 -12,2 -23,2 -47,-1 -94,5 -140,5 -11,0 -15,1 -24,1 -8,1 -16,0 -25,0 -9,0 -12,2 -23,2 -48,0 -93,5 -142,5 -10,0 -13,2 -23,2l-119 4c-29,4 -67,-1 -96,3 -29,3 -64,0 -95,3 -25,2 -72,0 -95,3 -29,4 -65,1 -94,5l-118 3c-11,0 -14,2 -23,2 -8,0 -17,0 -25,0 -11,0 -13,2 -24,2 -7,0 -15,-1 -23,0 -10,0 -13,1 -23,1 -49,0 -96,6 -144,5l-72 2c-10,0 -12,2 -23,2 -32,0 -65,0 -95,3 -31,3 -65,0 -95,3 -29,3 -66,-1 -94,3 -21,3 -72,1 -95,4 -23,2 -47,2 -71,2l-70 3c-8,0 -17,0 -25,0l-70 3c-8,1 -17,0 -25,0 -10,0 -13,2 -23,2 -8,0 -16,0 -24,0 -10,0 -13,2 -23,2 -8,0 -17,0 -25,0l-71 3c-1,0 -3,0 -5,0 1,20 1,40 -1,60z"/>
 </g>
</svg>
