<?xml version="1.0" encoding="UTF-8"?>
<!DOCTYPE svg PUBLIC "-//W3C//DTD SVG 1.1//EN" "http://www.w3.org/Graphics/SVG/1.1/DTD/svg11.dtd">
<!-- Creator: CorelDRAW X7 -->
<svg xmlns="http://www.w3.org/2000/svg" xml:space="preserve" width="409.576mm" height="136.456mm" version="1.1" style="shape-rendering:geometricPrecision; text-rendering:geometricPrecision; image-rendering:optimizeQuality; fill-rule:evenodd; clip-rule:evenodd"
viewBox="0 0 6434 2144"
 xmlns:xlink="http://www.w3.org/1999/xlink">
 <defs>
  <style type="text/css">
   <![CDATA[
    .fil0 {fill:#2B2A29;fill-rule:nonzero}
   ]]>
  </style>
 </defs>
 <g id="Layer_x0020_1">
  <metadata id="CorelCorpID_0Corel-Layer"/>
  <path class="fil0" d="M1482 366c-3,-21 -8,-39 -23,-53 -45,-38 -101,-69 -159,-66 -154,9 -354,335 -423,494 -4,8 -14,24 -24,24 -8,1 -2,-38 2,-50 6,-32 15,-62 24,-92 18,-62 41,-120 58,-180 2,-6 4,-13 6,-17 1,-7 1,-13 1,-19 -2,-36 -29,-66 -63,-70 -2,-2 -4,-2 -6,-2 -15,-1 -34,6 -48,13 -8,5 -16,9 -27,14 -260,129 -749,159 -784,485 -16,142 107,232 200,242 118,13 214,-89 218,-131 4,-43 -31,-74 -61,-77 -57,-8 -86,129 -213,114 -44,-6 -88,-71 -82,-118 31,-298 632,-401 697,-409 8,2 12,8 13,17 2,44 -297,1080 -293,1149 2,42 48,86 76,85 12,-1 25,-10 32,-23 6,-9 9,-22 13,-32 9,-37 17,-73 26,-109 140,-540 464,-1236 684,-1248 40,-2 42,34 43,65 19,357 -389,923 -486,928 -12,1 -27,0 -42,-8 -7,-2 -11,-4 -17,-3 -7,-4 -15,-4 -21,-3 -15,0 -27,5 -40,14 -18,12 -25,31 -25,48 1,16 11,33 28,41 21,11 47,16 73,21 12,3 27,3 42,4 12,31 15,54 15,81 -5,190 -142,547 -470,564 -58,3 -261,34 -276,-262 -11,-193 62,-411 272,-552 12,-7 18,-18 17,-29 0,-8 -5,-18 -12,-26 -15,-14 -37,-24 -56,-23 -107,6 -323,295 -309,561 13,244 190,415 440,402 426,-22 530,-448 521,-614 -2,-31 -8,-63 -18,-94 -2,-10 -5,-18 -5,-25 -1,-16 7,-25 29,-41 189,-139 476,-635 462,-912 -2,-26 -5,-53 -9,-78z"/>
  <path id="1" class="fil0" d="M1506 1497c11,1 76,-4 84,-5 31,-3 43,-18 42,-31 0,-15 -14,-27 -45,-25 -23,1 -34,2 -54,5 -49,2 -62,-14 -48,-61 66,-237 134,-413 173,-514 15,-38 20,-56 31,-65 10,-6 150,-24 160,-27 6,0 14,-9 14,-15 2,-7 -3,-17 -7,-21 -9,-6 -20,-12 -28,-11 -76,4 -149,7 -222,20 -30,4 -54,21 -65,49 -125,272 -169,426 -232,713 -17,81 -17,243 61,287 48,27 96,27 153,24 8,0 16,-15 18,-20 1,-23 -37,-27 -59,-33 -33,-4 -41,-27 -49,-58 -3,-12 -6,-27 -6,-42 3,-54 4,-67 18,-121 10,-29 27,-47 61,-49z"/>
  <path id="2" class="fil0" d="M2018 1058c-9,-158 68,-303 139,-306 49,-3 74,40 76,88 3,57 -21,119 -44,150 -16,17 -28,41 -8,57 16,14 34,4 48,-9 46,-57 59,-125 55,-203 -5,-85 -74,-160 -145,-156 -160,8 -278,160 -267,372 12,233 117,351 116,490 0,72 -33,208 -100,212 -65,3 -141,-111 -113,-222 2,-10 7,-23 7,-34 -1,-8 -10,-18 -18,-22 -5,-4 -15,-1 -21,1 -19,7 -26,25 -29,44 -13,47 -17,93 -8,143 17,77 104,174 245,166 79,-4 184,-93 194,-233 15,-236 -124,-315 -127,-538z"/>
  <path id="3" class="fil0" d="M2515 754c40,0 77,-11 28,127 0,0 -184,620 -249,829 -14,47 16,67 54,65 37,-2 65,-33 74,-59 10,-25 19,-49 26,-75 140,-531 201,-698 223,-769 11,-32 21,-64 34,-98 10,-24 28,-38 53,-41 23,-4 44,-5 67,-6 10,-3 21,-1 31,-6 7,-2 14,-11 14,-17 2,-9 -3,-17 -9,-21 -9,-4 -18,-7 -28,-7 -23,2 -48,3 -73,6 0,0 -342,31 -342,31 -6,0 -14,2 -16,7 -4,6 -6,15 -1,21 2,6 11,10 19,9 32,3 63,4 95,4z"/>
  <path id="4" class="fil0" d="M3241 712c-25,-3 -35,-22 -42,-38 -97,-201 -58,-386 34,-484 32,-33 66,-62 109,-85 76,-40 -56,-105 -128,-76 -42,17 -78,46 -106,79 -57,73 -91,178 -89,297 4,152 70,296 149,361 7,4 11,10 18,16 18,16 21,37 13,58 -1,11 -5,22 -9,30 -65,197 -81,341 -68,551 12,214 153,463 403,450 393,-21 687,-667 663,-1123 -8,-145 -42,-279 -115,-337 -33,-26 -47,-58 -45,-98 1,-105 -36,-207 -208,-198 -239,13 -462,342 -563,581 -4,6 -12,11 -16,16zm896 -18c32,621 -404,1095 -589,1102 -187,6 -277,-236 -287,-425 -7,-96 7,-269 57,-434 11,-38 21,-47 59,-39 53,10 106,7 158,4 40,0 49,9 59,44 41,137 122,189 157,187 32,-6 39,-25 28,-41 -25,-37 -46,-74 -55,-115 -3,-15 -5,-29 -8,-44 -10,-56 11,-95 62,-128 143,-85 210,-299 215,-316 15,-40 40,-46 71,-14 40,42 68,133 73,219zm-181 -403c2,53 2,59 -37,68 -14,4 -31,9 -48,12 -72,19 -120,66 -166,121 -59,74 -90,156 -109,247 -1,13 -1,25 -8,37 -6,12 -16,28 -28,33 -52,21 -107,22 -162,6 -17,-7 -24,-24 -19,-41 11,-34 245,-554 501,-567 43,-5 68,17 74,59 1,8 1,17 2,25 0,0 0,0 0,0zm-184 395c-18,5 2,-47 33,-103 34,-63 85,-131 109,-119 14,16 4,33 -4,46 -21,46 -94,163 -138,176z"/>
  <path id="5" class="fil0" d="M4449 1229c-15,1 -5,-20 -4,-27 58,-190 137,-399 168,-497 3,-13 9,-28 14,-41 10,-19 24,-31 47,-32 29,-1 90,-2 120,-12 8,-5 18,-14 17,-24 0,-9 -7,-19 -22,-20 -42,-6 -227,9 -275,16 -35,4 -55,20 -64,52 -11,41 -247,800 -281,867 -25,46 -40,168 51,168 53,1 85,-28 99,-79 25,-87 50,-175 77,-261 9,-30 29,-45 62,-47 28,-2 63,-4 90,-9 15,-5 31,-17 32,-33 0,-17 -12,-27 -35,-26 0,0 -58,3 -96,5z"/>
  <path id="6" class="fil0" d="M5036 1198c-14,1 -5,-20 -3,-27 57,-190 137,-399 167,-497 4,-13 10,-28 15,-41 10,-19 24,-30 47,-31 29,-2 90,-3 119,-13 8,-5 18,-14 18,-24 -1,-9 -7,-19 -22,-20 -43,-6 -227,10 -275,17 -36,3 -56,19 -65,51 -10,41 -246,800 -280,867 -25,46 -40,168 50,168 53,2 85,-28 100,-79 24,-87 49,-175 76,-261 9,-29 29,-45 63,-47 27,-1 63,-3 90,-9 15,-5 31,-16 32,-33 -1,-17 -12,-27 -35,-26 0,0 -59,3 -97,5z"/>
  <path id="7" class="fil0" d="M5523 1286c11,2 76,-3 84,-4 31,-4 43,-19 42,-32 0,-14 -14,-26 -45,-24 -23,1 -34,1 -54,4 -49,3 -62,-13 -48,-60 65,-237 134,-413 173,-514 15,-39 20,-56 30,-65 11,-7 151,-25 161,-27 6,-1 14,-10 14,-16 2,-6 -3,-17 -7,-21 -9,-5 -20,-11 -28,-11 -76,4 -149,8 -223,20 -29,4 -53,22 -64,50 -125,272 -170,426 -232,713 -17,81 -17,243 61,287 48,27 96,27 153,24 8,-1 16,-16 18,-20 1,-23 -37,-28 -59,-33 -33,-4 -41,-27 -49,-58 -3,-13 -6,-28 -7,-42 4,-55 5,-68 19,-121 10,-30 27,-48 61,-50z"/>
  <path id="8" class="fil0" d="M5912 1275c56,-4 85,29 107,72 52,109 49,189 167,229 26,9 61,1 70,-29 5,-22 -22,-32 -44,-42 -22,-11 -37,-30 -43,-55 -25,-127 -59,-163 -87,-182 -20,-14 -8,-29 4,-38 8,-7 19,-10 27,-17 179,-76 321,-296 311,-477 -12,-237 -179,-245 -378,-234 -51,-2 -79,14 -98,62 0,0 -182,701 -236,879 -18,58 -15,154 48,151 57,-3 65,-48 79,-99 19,-73 28,-104 48,-179 3,-15 12,-41 25,-41zm387 -593c10,189 -103,485 -348,498 -15,1 -19,-8 -20,-18 -2,-33 96,-344 141,-523 17,-72 29,-81 76,-84 102,-5 152,51 151,127z"/>
 </g>
</svg>
