<svg xmlns="http://www.w3.org/2000/svg" xml:space="preserve" version="1.1"
    style="shape-rendering:geometricPrecision; text-rendering:geometricPrecision; image-rendering:optimizeQuality; fill-rule:evenodd; clip-rule:evenodd"
    viewBox="0 0 7690 2325" xmlns:xlink="http://www.w3.org/1999/xlink">
    <g id="Layer_x0020_1">
        <metadata id="CorelCorpID_0Corel-Layer" />
        <path 
            d="M1964 397c-4,-23 -9,-43 -26,-58 -48,-41 -109,-74 -173,-71 -166,9 -382,363 -458,536 -4,9 -15,26 -26,26 -9,1 -2,-41 2,-55 7,-34 17,-67 27,-99 19,-68 43,-131 63,-195 2,-7 3,-14 5,-19 2,-7 2,-14 1,-21 -1,-38 -31,-71 -67,-76 -3,-2 -5,-2 -7,-2 -16,-1 -36,6 -52,14 -9,5 -18,10 -29,16 -283,140 -813,172 -851,526 -17,154 116,252 217,262 128,14 232,-97 237,-142 4,-46 -34,-81 -66,-84 -62,-8 -93,140 -231,124 -49,-6 -96,-77 -89,-128 33,-323 685,-435 755,-443 9,2 14,8 14,18 3,47 -321,1171 -318,1246 3,46 53,94 83,92 14,-1 27,-11 35,-25 6,-9 10,-23 14,-35 10,-39 19,-78 28,-117 152,-586 503,-1341 742,-1354 43,-2 45,36 47,71 20,386 -422,1001 -527,1006 -14,1 -30,0 -46,-9 -7,-2 -12,-4 -18,-3 -8,-4 -17,-4 -24,-4 -16,1 -29,7 -42,16 -20,13 -28,34 -27,52 1,18 11,36 29,44 24,12 52,18 80,23 13,4 29,3 45,5 13,33 17,58 16,88 -5,206 -153,592 -509,611 -63,3 -283,38 -300,-284 -11,-209 68,-446 295,-599 14,-8 20,-19 19,-31 0,-9 -5,-20 -13,-29 -17,-15 -40,-25 -60,-24 -117,6 -351,320 -336,609 14,264 206,450 477,436 462,-25 575,-487 565,-667 -1,-34 -8,-68 -19,-101 -2,-12 -5,-21 -5,-27 -1,-19 7,-28 31,-46 205,-150 516,-688 501,-989 -2,-27 -5,-57 -9,-84z" />
        <path id="1" 
            d="M1989 1624c12,1 83,-4 92,-5 33,-4 46,-21 46,-34 -1,-16 -16,-29 -50,-27 -25,1 -36,2 -59,5 -52,3 -67,-15 -51,-66 71,-257 145,-448 187,-558 17,-41 22,-60 33,-70 11,-7 163,-26 174,-29 7,-1 16,-10 16,-17 1,-7 -4,-18 -8,-23 -10,-6 -22,-12 -31,-12 -82,4 -161,9 -241,22 -31,4 -58,23 -70,54 -135,295 -183,461 -251,773 -19,88 -19,264 66,312 52,29 105,28 166,25 9,0 17,-17 19,-21 1,-25 -40,-30 -63,-36 -37,-5 -45,-29 -54,-63 -3,-14 -6,-30 -7,-46 4,-59 6,-73 21,-131 10,-32 29,-51 65,-53z" />
        <path id="2" 
            d="M2544 1147c-9,-171 74,-328 152,-332 52,-2 80,44 82,96 4,62 -23,129 -48,163 -17,19 -30,44 -8,62 16,15 36,4 52,-10 49,-62 63,-136 59,-220 -5,-93 -80,-174 -157,-170 -173,9 -302,174 -290,404 13,252 127,381 126,532 0,77 -36,225 -109,229 -70,4 -152,-120 -122,-240 2,-11 8,-25 8,-37 -1,-9 -11,-20 -20,-24 -5,-4 -16,-2 -23,1 -20,8 -28,27 -32,47 -13,51 -17,102 -8,156 19,83 113,188 266,180 86,-4 200,-102 210,-253 16,-256 -134,-342 -138,-584z" />
        <path id="3" 
            d="M3084 818c43,0 84,-12 30,137 0,0 -200,673 -270,900 -16,51 17,72 58,70 41,-2 72,-36 81,-64 10,-27 21,-53 28,-81 152,-576 218,-757 242,-834 12,-35 23,-70 37,-107 11,-26 30,-41 57,-44 25,-4 48,-5 73,-7 11,-2 23,-1 34,-6 7,-2 15,-12 15,-19 2,-9 -3,-18 -10,-22 -9,-4 -19,-8 -30,-8 -25,2 -53,3 -80,7 0,0 -370,33 -370,33 -7,0 -16,3 -18,8 -4,7 -6,16 -1,23 2,7 12,10 21,10 34,3 68,3 103,4z" />
        <path id="4" 
            d="M3871 772c-27,-3 -37,-23 -45,-41 -105,-218 -63,-419 36,-525 35,-36 72,-67 118,-93 83,-43 -60,-113 -138,-81 -45,18 -85,50 -115,86 -62,78 -99,192 -97,322 4,164 77,320 162,391 7,4 12,11 19,17 20,17 23,40 15,63 -2,12 -6,23 -10,33 -70,213 -87,370 -73,597 12,232 165,502 436,488 426,-22 745,-723 719,-1217 -8,-158 -45,-304 -124,-366 -36,-28 -51,-64 -49,-107 1,-114 -39,-224 -226,-214 -259,14 -501,371 -610,630 -4,7 -13,12 -18,17zm972 -19c35,674 -438,1187 -638,1195 -203,6 -301,-256 -312,-460 -8,-105 7,-293 62,-472 11,-41 22,-51 64,-42 58,11 115,8 171,5 44,0 53,9 64,47 45,148 132,205 171,203 34,-6 42,-27 30,-45 -28,-39 -51,-79 -60,-125 -3,-16 -6,-31 -9,-47 -10,-61 13,-103 68,-138 155,-93 227,-325 233,-343 16,-44 43,-51 77,-16 43,46 74,145 79,238zm-197 -437c3,57 3,64 -39,73 -16,5 -34,11 -52,14 -79,20 -131,71 -180,130 -64,81 -99,170 -119,269 -1,14 -1,27 -9,39 -6,14 -17,31 -30,36 -56,24 -115,24 -175,7 -19,-8 -27,-26 -21,-45 12,-37 265,-600 543,-615 47,-5 74,19 81,65 0,9 1,18 1,27 0,0 0,0 0,0zm-199 428c-20,5 2,-50 36,-112 37,-68 92,-141 118,-129 15,18 4,36 -4,50 -22,50 -103,177 -150,191z" />
        <path id="5" 
            d="M5181 1333c-16,1 -5,-22 -3,-29 62,-207 148,-433 181,-539 4,-14 10,-31 16,-45 10,-20 26,-33 51,-34 32,-2 98,-3 129,-14 9,-5 20,-15 20,-26 -1,-9 -8,-20 -25,-21 -46,-7 -246,10 -298,18 -38,4 -60,21 -70,56 -11,43 -267,867 -304,940 -27,49 -43,182 55,182 57,2 92,-30 107,-85 27,-95 54,-190 84,-283 9,-33 31,-50 68,-52 29,-1 68,-4 97,-10 16,-5 34,-17 35,-36 -1,-18 -13,-29 -38,-27 0,0 -64,3 -105,5z" />
        <path id="6" 
            d="M5819 1300c-16,1 -6,-23 -4,-30 62,-206 148,-432 181,-539 4,-14 10,-30 16,-44 11,-21 26,-33 51,-35 32,-1 98,-3 130,-13 8,-5 19,-15 19,-26 -1,-10 -8,-21 -24,-22 -46,-7 -246,11 -298,18 -39,4 -61,21 -71,56 -11,44 -267,868 -304,941 -27,49 -43,182 55,182 58,1 92,-30 108,-86 27,-95 54,-190 83,-283 10,-32 31,-49 68,-51 30,-2 68,-4 98,-10 16,-5 33,-18 34,-36 -1,-18 -13,-29 -38,-28 0,0 -63,4 -104,6z" />
        <path id="7" 
            d="M6346 1395c12,2 82,-4 92,-5 33,-3 46,-20 46,-34 -1,-16 -16,-29 -50,-27 -25,1 -36,2 -59,6 -52,2 -67,-15 -51,-66 71,-257 145,-448 187,-558 17,-42 22,-60 33,-70 11,-7 163,-27 174,-30 7,0 16,-10 15,-16 2,-7 -3,-19 -7,-23 -10,-6 -22,-12 -31,-12 -82,4 -161,8 -241,22 -31,4 -58,23 -70,54 -135,294 -184,461 -252,773 -18,87 -18,263 67,311 52,29 104,29 166,26 9,-1 17,-17 19,-22 1,-25 -40,-30 -63,-35 -37,-5 -45,-30 -54,-63 -3,-14 -6,-30 -7,-46 4,-59 5,-73 21,-131 10,-32 29,-52 65,-54z" />
        <path id="8" 
            d="M6768 1382c61,-3 93,32 116,79 56,118 54,205 182,248 28,10 66,1 76,-31 5,-24 -25,-35 -48,-46 -24,-12 -41,-32 -47,-59 -27,-138 -64,-177 -95,-198 -21,-15 -8,-32 5,-41 9,-8 20,-10 29,-18 194,-83 348,-322 338,-517 -14,-258 -194,-266 -411,-255 -54,-2 -86,16 -106,67 0,0 -197,761 -255,954 -20,63 -17,167 52,164 61,-3 70,-52 85,-108 21,-78 31,-113 52,-194 3,-16 13,-44 27,-45zm420 -642c11,204 -111,526 -378,540 -15,1 -21,-8 -21,-20 -2,-36 104,-373 153,-567 18,-78 32,-88 82,-91 111,-6 165,55 164,138z" />
        <path 
            d="M0 2138l45 3c7,0 8,-1 15,-1 5,0 10,0 15,0l90 -4c6,0 11,1 16,1 14,0 31,-3 45,-2 7,0 9,-1 15,-1 21,-1 40,-2 61,-2l100 -5c-7,-12 -14,-25 -20,-38 -4,1 -8,1 -12,1 -6,-1 -8,1 -14,1l-30 0c-7,0 -9,2 -15,2 -7,-1 -11,0 -16,0l-75 3c-12,0 -43,6 -57,9 -17,2 -37,7 -55,10 -36,6 -73,12 -108,23zm1530 -53l158 -6c7,1 8,-1 14,-1 5,0 11,1 16,1l45 -2c6,0 8,-2 15,-1 12,0 19,-1 31,-1 6,0 8,-1 14,-1l31 -1c6,0 9,-1 15,-1l60 -2c5,-1 8,-1 14,-1l30 -1c5,0 8,-1 15,-1 6,0 10,0 14,-1l61 -1c7,0 9,-2 15,-2 5,0 11,1 16,1l45 -2c7,0 8,-1 15,-1 5,0 11,1 15,0l60 -3c7,0 10,0 15,-1 5,0 10,1 15,0l30 -2c5,0 10,1 15,1l75 -4c5,-1 11,0 16,0 14,0 30,-2 45,-2 6,0 8,-1 15,-1 20,0 41,-2 61,-2 10,1 31,-2 44,-2l60 -2c6,-1 11,0 16,0 6,-1 8,-2 15,-1 11,0 19,-1 30,-1l91 -4c6,0 9,-1 14,-1 5,0 11,1 16,0l45 -2c7,1 9,-1 15,-1 5,0 10,1 16,1 6,0 8,-2 15,-1 20,0 39,-2 59,-2l60 -3c5,0 10,1 15,0l151 -6c5,-1 11,0 16,0l74 -3c7,1 9,-1 15,-1 22,1 40,-2 61,-1 7,0 9,-2 15,-1l61 -2c11,0 31,-2 45,-2l60 -3c5,0 11,1 16,1l104 -5c5,-1 11,0 16,0 7,0 8,-1 15,-1 25,1 51,-1 75,-3 5,0 11,1 16,1 5,-1 8,-2 15,-1l25 -1c-12,-22 -22,-45 -29,-69l-67 3c-6,0 -10,1 -15,1l-30 1c-6,0 -9,1 -15,1 -5,1 -10,0 -15,0l-45 2c-7,0 -8,1 -15,1 -15,0 -33,2 -45,2 -16,-1 -29,2 -45,2l-150 8c-4,1 -10,-1 -14,0l-75 4c-7,0 -10,1 -15,1l-45 2c-7,0 -9,1 -15,1 -17,0 -44,4 -60,3l-44 3c-10,2 -21,1 -31,2l-118 7c-10,1 -20,0 -30,1l-147 10c-8,2 -20,2 -30,2l-118 8c-5,0 -11,-1 -16,0l-75 4c-11,-1 -19,1 -30,0l-45 2c-6,0 -8,1 -15,1 -11,0 -19,1 -31,1 -6,0 -8,1 -13,1 -15,0 -32,-1 -47,2l-90 3c-5,0 -9,1 -15,0l-90 4c-11,0 -31,2 -46,2l-29 2c-5,1 -10,0 -16,0 -10,0 -30,2 -44,2 -7,0 -10,1 -15,1 -6,0 -11,-1 -16,0 -13,0 -31,2 -45,1l-59 4c-5,0 -11,-1 -16,-1 -8,1 -21,2 -29,2l-31 1c-6,0 -9,1 -14,1l-31 1c-12,0 -30,2 -44,2 -7,0 -9,1 -15,1l-137 5c-1,0 -2,0 -3,0 -1,16 -3,32 -7,47zm3052 -114l13 -1c6,-1 33,0 46,-2l195 -7c7,0 8,-2 15,-2 20,1 40,-2 60,-1l45 -2c13,1 32,-2 45,-2l150 -7c25,1 51,-3 76,-2 10,0 31,-3 45,-2l31 -1c8,-1 20,-1 29,-2l75 -3c7,0 9,-1 15,-1 19,0 42,-1 60,-3l75 -3c6,1 8,-1 15,-1l60 -2c12,-1 38,-1 45,-1l106 -6c13,-2 30,0 43,-2l150 -7c5,-1 10,0 15,0 9,0 22,-2 30,-2 21,-1 41,-1 60,-3l105 -5c12,0 47,-4 60,-3 14,0 29,-3 45,-2l59 -3c14,0 47,-4 60,-3 12,0 45,-4 60,-3l209 -12c20,1 41,-3 60,-3l60 -3c29,-4 59,-4 89,-5l282 -17c7,0 9,-1 15,-2 29,-1 60,-1 90,-5l385 -24c9,-2 21,-2 30,-2l0 -1c-11,-1 -19,1 -30,0 -6,0 -8,2 -14,2 -5,0 -10,-1 -16,-1l-44 2c-6,0 -8,2 -15,1 -15,0 -33,3 -45,2 -14,0 -45,2 -60,3l-30 1c-7,0 -9,1 -15,1 -11,0 -20,1 -31,1l-104 5c-6,0 -11,-1 -16,-1 -25,2 -51,4 -75,3 -7,0 -9,1 -15,1l-45 2c-5,0 -11,-1 -16,0 -6,0 -8,1 -15,1l-30 0c-10,0 -32,3 -46,2 -10,0 -18,1 -30,1l-60 3c-5,0 -10,0 -16,0 -5,0 -8,1 -14,1 -41,-1 -82,4 -122,3 -7,0 -8,1 -14,1 -5,0 -11,0 -16,0 -6,-1 -8,1 -15,1 -30,-1 -60,3 -90,2 -7,0 -9,1 -15,1 -5,0 -10,0 -16,0 -5,0 -8,1 -15,1 -30,-1 -59,3 -90,2 -7,0 -9,1 -15,1l-77 2c-18,3 -42,-1 -61,1 -19,3 -41,0 -61,1 -16,2 -46,0 -60,2 -19,3 -42,-1 -61,2l-75 2c-7,0 -9,1 -15,1 -5,0 -11,0 -16,0 -7,-1 -9,1 -15,1 -5,0 -10,-1 -15,-1 -6,0 -8,2 -15,2 -31,-1 -62,3 -92,2l-46 0c-6,0 -8,1 -15,1 -20,0 -41,0 -61,2 -20,1 -41,-2 -61,1 -18,2 -42,-2 -59,1 -14,3 -46,0 -61,2 -15,2 -31,1 -46,1l-45 1c-5,1 -10,0 -16,0l-45 2c-5,0 -10,0 -16,-1 -6,0 -8,2 -14,2 -5,0 -10,-1 -15,-1 -7,0 -9,2 -15,1 -6,0 -11,0 -16,0l-46 1c-9,2 -21,-1 -31,1 -18,3 -42,-2 -61,1 -8,1 -20,-1 -30,1 -9,1 -21,-1 -30,1 -18,3 -43,-1 -61,2 -12,2 -33,1 -46,0l-44 2c-6,0 -11,0 -16,0 -7,0 -9,1 -15,1 -39,-1 -84,4 -122,3 -5,0 -10,-1 -15,0 -6,0 -8,1 -15,1l-46 0c-6,0 -8,1 -15,1 -37,-1 -84,4 -120,3 -11,0 -20,1 -31,1 -7,0 -8,1 -14,1 -6,0 -11,0 -16,0l-28 1c-5,23 -13,46 -22,68z" />
    </g>
</svg>