<?xml version="1.0" encoding="UTF-8"?>
<!DOCTYPE svg PUBLIC "-//W3C//DTD SVG 1.1//EN" "http://www.w3.org/Graphics/SVG/1.1/DTD/svg11.dtd">
<!-- Creator: CorelDRAW X7 -->
<svg xmlns="http://www.w3.org/2000/svg" xml:space="preserve" width="386.998mm" height="124.129mm" version="1.1" style="shape-rendering:geometricPrecision; text-rendering:geometricPrecision; image-rendering:optimizeQuality; fill-rule:evenodd; clip-rule:evenodd"
viewBox="0 0 5907 1895"
 xmlns:xlink="http://www.w3.org/1999/xlink">
 <defs>
  <style type="text/css">
   <![CDATA[
    .fil1 {fill:#2B2A29}
    .fil0 {fill:#2B2A29;fill-rule:nonzero}
   ]]>
  </style>
 </defs>
 <g id="Layer_x0020_1">
  <metadata id="CorelCorpID_0Corel-Layer"/>
  <path class="fil0" d="M583 1494c-10,-192 80,-458 224,-687 11,-16 23,-23 41,-24 4,0 11,-1 17,-1 26,3 55,1 83,0 323,-17 672,-223 659,-468 -4,-84 -42,-135 -128,-130 -291,15 -566,317 -721,477 -8,7 -14,11 -22,11 -18,1 -157,-79 -166,-249 -6,-116 53,-281 156,-329 20,-9 54,-31 53,-54 -2,-32 -53,-40 -88,-38 -76,4 -248,105 -233,399 9,165 162,282 221,315 15,8 21,16 22,25 0,7 -1,15 -7,26 -18,33 -232,365 -216,685 13,239 149,442 401,429 186,-9 493,-285 473,-656 -6,-114 -47,-198 -161,-192 -186,10 -290,205 -284,330 3,46 18,93 64,90 59,-3 47,-80 46,-102 -4,-80 41,-268 208,-277 66,-3 85,94 89,159 9,183 -178,598 -445,612 -177,9 -272,-164 -286,-351zm359 -755c-22,-5 -63,8 -65,-29 -2,-43 383,-433 603,-445 42,-2 68,13 70,62 1,4 -1,8 -1,12 -2,156 -315,385 -578,399 -9,0 -19,1 -29,1z"/>
  <path id="1" class="fil0" d="M2053 877c-7,-155 -36,-235 -156,-229 -257,14 -383,591 -405,709 -35,189 44,369 154,363 208,-10 424,-535 407,-843zm-48 -20c20,367 -231,781 -324,786 -72,4 -75,-188 -10,-425 39,-147 149,-472 265,-478 59,-3 66,48 69,117z"/>
  <path id="2" class="fil0" d="M2576 1095c-39,-90 -149,-274 -204,-418 -2,-13 -7,-23 -14,-32 -9,-18 -33,-17 -43,0 -7,17 -12,33 -15,50 -35,151 -258,862 -280,943 -11,35 -3,59 17,58 33,-2 51,-40 60,-73 5,-25 159,-558 189,-633 2,-6 12,-13 18,-12 6,0 13,8 18,14 0,0 196,350 196,350 4,13 7,32 4,47 -14,53 -36,122 -52,176 -17,70 -27,108 12,106 24,-2 45,-25 57,-71 12,-49 101,-338 176,-631 22,-82 42,-163 61,-246 14,-69 34,-119 -13,-116 -34,2 -49,29 -71,116 -28,104 -56,191 -102,367 -3,9 -7,19 -14,5z"/>
  <path id="3" class="fil0" d="M3044 656c39,0 75,-11 27,123 0,0 -179,602 -242,806 -14,46 16,64 52,63 37,-2 64,-32 73,-57 9,-25 18,-48 25,-73 136,-517 195,-679 216,-748 11,-31 21,-62 34,-95 9,-23 27,-37 51,-40 22,-3 43,-4 65,-6 10,-2 21,-1 31,-5 6,-2 13,-11 13,-17 2,-9 -3,-16 -9,-20 -9,-4 -17,-7 -27,-7 -23,1 -47,2 -71,6 0,0 -332,29 -332,29 -6,1 -14,3 -16,8 -4,6 -6,14 -1,20 2,6 11,10 19,9 30,3 61,3 92,4z"/>
  <path id="4" class="fil0" d="M3876 694c-5,-92 -48,-147 -124,-143 -163,9 -257,204 -441,667 -4,9 -5,19 -11,27 -13,28 -29,32 -46,31 -20,-5 -42,-22 -54,-32 -17,-11 -37,2 -38,21 -1,51 46,55 71,66 18,7 25,17 20,35 -24,96 -43,150 -66,220 -4,15 -8,48 9,51 12,4 21,-11 25,-24 28,-81 51,-151 84,-231 13,-29 26,-46 56,-52 140,-24 142,-26 175,-19 17,3 26,17 24,33 -6,66 -64,132 -56,207 2,33 30,64 57,67 33,7 63,-5 77,-37 13,-25 23,-50 29,-77 187,-637 213,-739 209,-810zm-316 558c-47,5 -118,13 -165,13 -31,0 -44,-16 -33,-45 7,-25 228,-597 349,-603 46,-3 50,62 39,98 -53,184 -88,299 -140,481 -2,11 -5,19 -9,27 -9,19 -23,26 -41,29z"/>
  <path id="5" class="fil0" d="M4421 913c29,-86 58,-224 29,-315 -18,-58 -64,-84 -125,-81 -69,4 -163,52 -224,179 -61,126 -220,486 -211,645 7,139 60,261 162,257 129,-2 212,-217 255,-338 7,-17 6,-39 -15,-42 -10,-1 -28,7 -35,33 -5,24 -103,264 -168,268 -59,3 -51,-153 -37,-207 72,-288 165,-515 243,-663 13,-23 42,-55 71,-57 83,-4 37,207 21,286 -2,8 -6,16 -5,22 -2,11 -1,21 9,27 9,5 23,-2 30,-14z"/>
  <path id="6" class="fil0" d="M4686 570c38,0 75,-11 27,123 0,0 -179,602 -242,806 -14,46 15,64 52,63 36,-2 64,-32 72,-58 9,-24 18,-47 25,-72 137,-517 196,-679 217,-748 10,-31 21,-62 33,-95 10,-23 27,-37 51,-40 23,-3 43,-4 66,-6 10,-2 20,-1 30,-5 6,-2 14,-11 13,-17 2,-9 -2,-16 -9,-20 -8,-4 -16,-7 -27,-7 -22,1 -47,2 -71,6 0,0 -332,29 -332,29 -6,1 -14,3 -16,8 -3,6 -5,14 -1,20 3,6 11,10 19,9 31,3 62,3 93,4z"/>
  <path id="7" class="fil0" d="M5201 812c-8,-153 67,-294 136,-297 47,-2 72,39 74,86 3,55 -21,116 -43,145 -16,17 -27,41 -8,56 15,14 33,4 47,-9 44,-55 57,-121 53,-197 -5,-83 -72,-155 -141,-152 -155,8 -270,155 -259,362 12,226 114,341 113,476 -1,70 -33,202 -98,206 -63,3 -136,-108 -109,-215 1,-11 7,-23 6,-33 0,-9 -9,-18 -17,-22 -5,-4 -15,-2 -21,1 -18,7 -25,24 -28,42 -12,46 -16,91 -7,140 16,74 101,168 237,161 78,-4 180,-91 189,-226 14,-230 -121,-307 -124,-524z"/>
  <path class="fil1" d="M0 1879l34 3c6,1 7,-1 12,-1 3,0 8,1 11,1l70 -3c4,0 8,1 12,1 11,0 24,-2 35,-2 5,1 7,-1 11,-1 16,0 31,-1 47,0l80 -4c11,0 24,1 35,-1l70 -1c5,0 7,-1 11,-1 4,0 8,0 12,0 4,0 6,-1 12,-1l23 0c8,0 24,-2 35,-1l34 -2c6,1 8,0 12,-1l4 0c-5,-11 -9,-24 -13,-36 -3,0 -6,0 -9,0 -4,0 -5,1 -10,1l-35 1c-5,0 -7,1 -11,1l-24 0c-5,0 -6,2 -11,1 -19,0 -39,3 -58,2 -8,0 -24,2 -35,1l-35 2c-9,-1 -23,2 -34,1 -5,0 -7,1 -11,1l-23 0c-5,0 -7,2 -12,1 -5,0 -8,0 -12,1l-58 2c-9,-1 -32,5 -43,7 -14,2 -29,6 -43,8 -27,6 -56,11 -83,20zm1124 -32c15,0 30,-2 44,-2l128 -4c5,0 6,-1 11,-1 4,0 8,1 12,1l35 -2c5,1 6,-1 11,-1 9,1 15,0 24,0 5,0 6,-1 11,-1l24 0c5,0 7,-1 11,-1l47 -1c3,-1 6,-1 10,-1l23 0c4,-1 7,-1 12,-1 5,0 7,0 11,-1l46 -1c6,0 7,-1 12,-1 4,0 8,1 12,1l34 -2c6,1 7,-1 12,-1 4,1 8,1 12,1l46 -2c5,0 7,0 11,-1 4,0 8,1 12,0l23 -1c4,-1 8,0 12,0l57 -3c4,0 8,1 12,1 11,-1 23,-2 35,-2 5,0 6,-1 11,-1 16,1 32,-1 47,-1 8,1 24,-1 34,-1l46 -2c4,0 9,1 13,0 4,0 6,-1 11,-1 8,1 14,0 23,0l70 -2c5,0 7,-1 11,-1 3,-1 8,0 12,0l34 -1c5,0 7,-1 12,-1 4,0 8,0 12,0 5,1 6,-1 11,-1 16,1 31,-1 46,0l46 -3c4,0 8,1 12,1l115 -5c4,0 9,1 13,1l57 -2c5,0 7,-1 12,-1 16,1 30,-2 46,-1 6,0 7,-1 12,-1l47 -1c8,1 23,-1 34,-1l46 -2c4,0 8,1 12,0l81 -3c4,0 8,0 12,0 5,1 6,-1 11,-1 19,1 39,0 58,-1 4,0 8,0 12,0 4,0 6,-1 12,-1l23 0c5,0 6,-1 11,-1l34 -1c4,-1 9,0 13,0l33 -1c5,0 7,-1 12,-1 8,0 15,-1 24,0 4,0 5,-2 10,-1l24 -1c5,1 7,-1 12,-1 3,0 7,1 11,1 11,0 24,-2 35,-1l47 -1c11,-2 23,-1 34,-2 12,0 23,-1 35,-1l46 -2c9,0 15,-1 24,0l34 -2c5,0 8,-1 12,-1 3,0 7,1 11,1l35 -2c5,1 6,-1 11,-1 4,1 8,1 12,1l24 -1c3,-1 7,0 11,0 5,0 7,-1 11,-1 4,0 9,1 12,0l23 -1c5,-1 26,0 35,-2l150 -5c5,1 6,-1 11,-1 16,1 31,-1 46,0l35 -2c10,1 25,-1 35,-1l115 -5c19,1 39,-2 58,-1 8,0 25,-2 35,-2l23 0c7,-1 16,-1 23,-2l58 -2c5,1 6,-1 11,-1 15,1 32,0 46,-2l58 -2c5,1 6,-1 11,0l47 -1c9,-2 29,-1 34,-2l81 -3c11,-2 23,-1 34,-2l115 -5c3,-1 8,0 12,0 6,0 16,-2 23,-2 15,-1 31,-1 46,-2l80 -4c9,1 36,-3 46,-2 11,1 22,-2 34,-1l46 -2c11,0 36,-3 46,-3 9,1 35,-2 46,-2l161 -8c15,0 31,-3 46,-3l46 -2c22,-3 46,-3 68,-4l217 -13c5,0 7,-1 11,-1 23,-1 47,0 69,-3l296 -19c7,-2 16,-2 24,-1l0 -2c-9,0 -15,1 -23,1 -5,-1 -7,1 -11,1 -4,0 -8,-1 -12,-1l-35 1c-4,0 -6,2 -11,1 -12,0 -25,2 -35,2 -10,-1 -34,1 -45,2l-23 0c-6,0 -8,1 -12,1 -9,0 -15,1 -24,0l-80 4c-4,0 -8,-1 -12,0 -19,0 -39,2 -58,1 -5,0 -6,1 -11,1l-35 1c-4,1 -8,0 -12,0 -4,0 -6,1 -11,1l-23 0c-8,0 -25,2 -36,2 -8,-1 -14,0 -23,0l-46 2c-4,0 -8,0 -12,0 -4,0 -6,1 -11,1 -31,-2 -63,3 -94,1 -5,0 -6,1 -10,1 -5,0 -9,0 -13,0 -5,0 -6,1 -11,1 -23,-1 -46,2 -69,1 -5,0 -7,1 -12,1 -4,0 -8,-1 -12,-1 -4,0 -6,1 -11,1 -24,-1 -46,2 -70,1 -5,0 -6,1 -12,1l-58 1c-14,3 -33,-2 -47,1 -15,2 -32,-1 -47,0 -12,1 -35,-1 -46,1 -15,3 -32,-1 -47,2l-58 1c-5,-1 -7,0 -11,0 -4,1 -9,0 -13,0 -5,0 -6,1 -11,1 -4,0 -8,-1 -12,-1 -4,0 -6,2 -11,1 -24,-1 -47,3 -70,1l-36 0c-5,0 -6,2 -11,1 -16,0 -32,0 -47,1 -15,1 -32,-1 -47,1 -14,2 -32,-2 -46,0 -10,2 -35,0 -46,1 -12,2 -24,1 -35,0l-35 2c-4,0 -8,-1 -12,-1l-35 2c-4,0 -8,-1 -12,-1 -5,0 -6,1 -11,1 -4,0 -8,0 -12,-1 -5,0 -7,2 -11,1 -4,0 -9,0 -13,0l-34 1c-8,1 -16,-2 -24,0 -14,3 -33,-2 -47,0 -7,2 -16,-1 -23,1 -7,1 -16,-1 -24,0 -14,3 -33,-1 -46,2 -9,1 -25,0 -35,0l-35 1c-4,0 -8,0 -12,0 -5,0 -6,1 -11,1 -30,-1 -65,3 -94,1 -4,0 -8,0 -11,0 -5,0 -6,1 -12,1l-35 0c-5,-1 -6,1 -11,1 -29,-2 -65,3 -93,1 -8,0 -15,1 -24,1 -5,-1 -6,1 -11,1 -4,-1 -8,-1 -12,-1l-23 1c-9,1 -26,1 -35,1 -5,-1 -7,1 -11,1 -4,0 -8,-1 -12,-1 -5,0 -6,1 -11,1 -28,-1 -66,3 -94,2 -8,-1 -15,0 -24,0 -5,0 -6,1 -10,1 -4,0 -9,-1 -13,-1 -4,1 -6,2 -11,1l-23 1c-5,-1 -7,0 -12,1 -4,0 -8,-1 -12,-1 -4,0 -6,1 -11,1l-35 1c-4,1 -8,0 -12,0l-139 5c-3,0 -8,0 -11,0 -8,-1 -25,1 -35,1 -19,-1 -39,2 -58,2 -5,-1 -6,1 -11,1 -9,-1 -15,0 -24,0l-80 4c-5,-1 -7,0 -11,0l-23 1c-5,0 -8,0 -12,1 -4,0 -8,-1 -12,-1l-34 1c-5,0 -7,2 -12,1 -11,0 -25,2 -34,2 -13,-1 -22,2 -35,1l-115 6c-3,1 -7,-1 -11,0l-58 3c-5,0 -7,1 -11,1l-35 1c-5,0 -6,1 -11,1 -13,0 -34,3 -46,2l-34 3c-7,1 -16,0 -23,0l-92 6c-7,1 -15,0 -22,1l-114 8c-6,1 -15,1 -22,1l-91 6c-4,0 -8,-1 -12,0l-58 3c-9,-1 -14,0 -23,0l-34 1c-6,0 -7,1 -12,1 -9,0 -15,1 -24,1 -5,-1 -6,1 -10,1 -12,0 -25,-2 -36,0l-69 2c-4,1 -7,1 -12,1l-69 3c-8,-1 -23,1 -35,1l-22 1c-5,1 -8,0 -12,0 -8,0 -24,2 -35,1 -5,0 -7,1 -11,1 -4,0 -8,0 -13,0 -9,0 -23,2 -34,1l-45 2c-4,1 -8,0 -12,0 -7,1 -16,1 -23,2l-23 0c-5,0 -7,1 -11,1l-24 0c-9,0 -23,2 -34,2 -5,-1 -7,1 -12,1l-104 3c-6,1 -17,0 -23,1l-24 0c-3,15 -7,29 -13,43z"/>
 </g>
</svg>
