<svg xmlns="http://www.w3.org/2000/svg" xml:space="preserve" version="1.1"
    style="shape-rendering:geometricPrecision; text-rendering:geometricPrecision; image-rendering:optimizeQuality; fill-rule:evenodd; clip-rule:evenodd"
    viewBox="0 0 4248 1522" xmlns:xlink="http://www.w3.org/1999/xlink">
    <g id="Layer_x0020_1">
        <path 
            d="M1493 1c-193,11 -369,645 -423,835 -9,28 -20,43 -50,47 -53,9 -150,31 -195,37 -12,1 -9,-7 -6,-21 3,-14 187,-721 268,-805 11,-13 20,-39 20,-53 0,-25 -23,-36 -37,-35 -47,3 -71,37 -104,70 -2,2 -6,4 -10,6 -216,112 -637,132 -678,408 -18,118 67,206 153,201 87,-4 181,-74 186,-109 7,-35 -24,-61 -46,-63 -48,-7 -46,87 -170,94 -57,3 -81,-59 -75,-97 40,-248 539,-334 593,-340 13,-2 2,21 4,26 0,0 -212,696 -219,708 -5,8 -11,15 -20,16 0,0 -1,0 -2,-2 -120,-8 -105,-80 -119,-112 0,-7 -9,-14 -14,-14 -18,1 -20,29 -19,45 0,61 46,146 122,142 14,-1 18,9 19,20 1,12 -37,87 -59,144 -43,107 -162,297 -349,307 -87,5 -211,-63 -213,-238 -1,-177 107,-282 222,-288 53,-3 74,32 73,74 1,94 -34,110 -33,133 1,22 32,40 54,39 31,-2 80,-72 80,-149 -2,-96 -88,-149 -180,-144 -169,9 -266,186 -266,322 2,204 147,317 312,308 312,-16 433,-497 508,-535 0,0 179,-36 179,-36 5,-2 10,-2 14,-2 17,-1 26,7 27,23 -1,12 -16,68 -22,103 -15,78 -41,222 -42,301 1,29 15,83 43,81 20,-1 31,-29 37,-45 0,0 74,-391 106,-532 39,-159 190,-671 366,-830 4,-5 7,-11 5,-16 1,-17 -17,-25 -40,-24z" />
        <path id="1" 
            d="M1860 479c-4,-79 -41,-125 -106,-122 -139,7 -219,174 -376,569 -3,7 -4,16 -9,23 -11,23 -25,27 -39,26 -18,-4 -36,-19 -47,-27 -14,-10 -31,2 -32,17 -1,44 39,47 61,56 15,7 21,15 17,31 -20,81 -37,128 -57,188 -3,12 -6,40 8,43 11,3 18,-10 22,-21 24,-69 43,-129 71,-197 11,-25 22,-39 48,-44 119,-20 121,-22 149,-16 14,2 22,14 21,28 -6,56 -55,113 -48,177 1,28 25,54 48,57 28,5 54,-5 66,-32 11,-21 19,-43 25,-66 159,-543 181,-629 178,-690zm-270 476c-39,3 -100,10 -140,10 -27,0 -38,-13 -29,-38 7,-21 195,-509 298,-514 40,-2 43,54 34,83 -46,158 -76,255 -120,411 -1,9 -4,16 -7,23 -8,16 -20,22 -36,25z" />
        <path id="2" 
            d="M2130 341c-30,1 -43,11 -53,32 -9,22 -237,732 -246,806 -8,53 29,72 71,70 26,-2 40,-38 47,-62 0,0 250,-784 250,-784 14,-47 -29,-64 -69,-62z" />
        <path id="3" 
            d="M2330 963c47,-3 71,24 88,60 43,90 42,156 139,189 21,8 51,1 58,-24 4,-17 -19,-26 -37,-34 -18,-10 -31,-25 -35,-45 -21,-106 -49,-136 -72,-152 -17,-11 -7,-24 3,-31 7,-6 15,-8 22,-14 148,-63 266,-245 258,-395 -10,-196 -148,-203 -313,-194 -42,-2 -66,12 -81,51 0,0 -151,581 -195,728 -16,48 -13,128 39,126 47,-3 54,-40 66,-83 15,-60 23,-86 39,-148 3,-12 10,-33 21,-34zm321 -491c8,157 -86,402 -289,413 -12,0 -16,-7 -16,-15 -2,-28 79,-285 116,-433 15,-60 25,-68 63,-70 85,-4 126,42 126,105z" />
        <path id="4" 
            d="M3197 620c24,-73 49,-191 24,-269 -14,-49 -54,-71 -106,-69 -59,3 -139,44 -191,153 -52,107 -187,414 -180,550 6,118 52,222 139,219 109,-2 180,-185 216,-288 7,-15 5,-34 -12,-36 -9,-1 -24,6 -30,28 -4,20 -87,225 -143,228 -51,3 -44,-130 -32,-176 62,-245 141,-439 207,-565 12,-20 36,-47 61,-48 71,-4 32,176 18,243 -2,7 -5,14 -5,19 -1,9 -1,17 8,22 8,5 20,-1 26,-11z" />
        <path id="5" 
            d="M3229 998c4,137 62,180 118,182 132,3 246,-194 418,-860 9,-25 15,-55 -11,-54 -21,0 -27,24 -34,49 -34,117 -208,804 -341,811 -21,1 -39,-40 -39,-73 -9,-163 93,-488 171,-690 10,-22 18,-92 -41,-98 -27,-3 -52,10 -62,33 -58,157 -187,547 -179,700z" />
        <path id="6" 
            d="M3952 299c33,0 64,-8 23,105 0,0 -152,514 -206,688 -12,38 13,54 45,53 31,-2 54,-27 62,-49 7,-21 15,-41 21,-62 116,-440 166,-578 184,-637 9,-27 18,-53 29,-81 8,-20 23,-31 43,-34 20,-3 37,-4 56,-5 8,-2 17,-1 26,-5 5,-2 11,-9 11,-14 2,-7 -2,-14 -8,-17 -7,-3 -14,-6 -23,-6 -19,1 -40,2 -60,5 0,0 -283,25 -283,25 -5,0 -12,2 -14,6 -3,5 -4,13 0,18 2,5 9,8 16,7 26,3 52,3 78,3z" />
    </g>
</svg>