<svg xmlns="http://www.w3.org/2000/svg" xml:space="preserve" width="321.949mm" height="183.957mm" version="1.1" style="shape-rendering:geometricPrecision; text-rendering:geometricPrecision; image-rendering:optimizeQuality; fill-rule:evenodd; clip-rule:evenodd"
viewBox="0 0 4162 2378"
 xmlns:xlink="http://www.w3.org/1999/xlink">
 <defs>
  <style type="text/css">
   <![CDATA[
    .fil0 {fill:#2B2A29;fill-rule:nonzero}
   ]]>
  </style>
 </defs>
 <g id="Layer_x0020_1">
  <metadata id="CorelCorpID_0Corel-Layer"/>
  <path class="fil0" d="M808 126c5,-1 5,8 6,15 3,62 -232,1285 -607,1304 -64,4 -145,-52 -151,-177 -8,-147 80,-248 192,-254 42,-2 68,7 72,76 1,29 -10,52 -8,78 2,33 30,45 49,44 38,-2 63,-44 60,-100 -3,-71 -47,-151 -172,-145 -196,10 -249,199 -245,280 9,162 111,257 252,250 468,-25 678,-1414 677,-1428 -1,-28 -42,-69 -66,-68 -15,1 -34,14 -45,23 -192,144 -600,231 -585,507 6,118 118,174 192,170 101,-5 163,-100 161,-134 -2,-35 -36,-58 -58,-56 -48,2 -55,115 -160,121 -36,1 -80,-46 -82,-86 -14,-256 502,-420 518,-420z"/>
  <path id="1" class="fil0" d="M1312 565c-6,-131 -31,-199 -133,-194 -217,11 -323,500 -342,600 -30,161 37,313 130,308 176,-9 359,-453 345,-714zm-40 -17c16,311 -196,661 -275,666 -61,3 -64,-160 -9,-360 33,-125 126,-400 225,-405 50,-3 55,40 59,99z"/>
  <path id="2" class="fil0" d="M1577 354c-30,1 -43,11 -52,32 -10,21 -236,727 -246,801 -7,52 30,71 71,69 26,-2 40,-37 47,-62 0,0 249,-778 249,-778 13,-47 -30,-64 -69,-62z"/>
  <path id="3" class="fil0" d="M2081 733c-33,-77 -126,-233 -172,-355 -3,-10 -6,-19 -12,-27 -8,-15 -28,-14 -37,0 -6,14 -10,28 -13,42 -29,128 -218,730 -237,799 -9,30 -2,50 15,49 28,-1 43,-33 50,-61 4,-21 135,-473 161,-537 1,-5 10,-11 15,-9 5,0 11,6 15,11 0,0 166,296 166,296 4,12 6,28 3,40 -11,46 -30,104 -44,149 -14,60 -22,92 10,90 21,-1 39,-21 49,-60 10,-42 85,-287 149,-534 19,-70 36,-139 51,-209 13,-58 30,-100 -10,-98 -30,2 -42,25 -61,98 -23,88 -47,162 -86,312 -3,6 -6,15 -12,4z"/>
  <path id="4" class="fil0" d="M3086 472c-7,-131 -31,-199 -133,-194 -218,12 -324,500 -343,600 -29,161 38,313 131,308 176,-9 359,-453 345,-714zm-41 -17c17,311 -195,661 -275,666 -60,3 -63,-160 -8,-360 33,-125 126,-400 224,-405 51,-2 56,40 59,99z"/>
  <path id="5" class="fil0" d="M3097 984c4,137 62,179 117,181 132,4 245,-193 416,-855 9,-25 14,-54 -12,-53 -20,0 -26,24 -33,49 -34,116 -206,798 -339,805 -21,1 -39,-39 -39,-72 -8,-162 93,-485 171,-686 9,-21 17,-91 -42,-97 -26,-3 -51,10 -61,33 -57,156 -186,543 -178,695z"/>
  <path id="6" class="fil0" d="M3732 870c47,-3 71,23 88,59 43,90 41,155 138,188 21,8 50,1 58,-24 4,-17 -19,-26 -37,-34 -18,-9 -31,-24 -35,-45 -21,-104 -49,-134 -72,-150 -16,-11 -6,-24 3,-31 7,-6 16,-8 22,-14 148,-63 265,-244 257,-393 -10,-195 -147,-201 -312,-193 -41,-1 -65,12 -80,51 0,0 -150,578 -194,724 -15,47 -12,127 39,124 47,-2 54,-39 65,-81 16,-60 24,-86 39,-147 3,-13 11,-34 21,-34zm319 -488c8,155 -85,399 -287,410 -12,0 -16,-7 -16,-15 -1,-28 79,-283 116,-431 14,-59 24,-67 62,-69 85,-4 125,42 125,105z"/>
  <path class="fil0" d="M1194 1536c33,0 63,-8 23,105 0,0 -152,510 -205,682 -12,39 13,55 44,53 31,-1 54,-27 62,-48 7,-21 15,-41 21,-62 115,-437 165,-574 183,-633 9,-26 18,-52 28,-81 8,-19 23,-30 44,-33 19,-3 36,-4 55,-5 8,-2 17,-1 26,-5 5,-2 11,-9 11,-14 1,-7 -2,-14 -8,-17 -7,-3 -14,-6 -23,-6 -19,1 -39,2 -60,5 0,0 -281,25 -281,25 -5,0 -12,2 -13,6 -4,5 -5,13 -1,18 2,5 9,8 16,7 26,2 52,3 78,3z"/>
  <path id="1" class="fil0" d="M1572 2084c9,1 63,-3 70,-3 25,-3 35,-16 34,-26 0,-12 -11,-22 -37,-21 -19,1 -28,2 -45,4 -39,2 -51,-11 -39,-50 54,-195 110,-340 142,-423 13,-31 17,-46 26,-53 8,-6 123,-20 132,-23 5,0 11,-7 11,-12 2,-5 -3,-14 -6,-17 -7,-5 -16,-10 -23,-9 -62,3 -123,6 -183,16 -24,3 -44,18 -53,41 -102,224 -139,350 -191,586 -14,67 -14,200 51,237 39,22 79,22 125,19 7,0 13,-13 15,-16 1,-19 -31,-23 -48,-27 -28,-4 -34,-22 -41,-48 -2,-10 -4,-22 -5,-35 3,-45 4,-55 16,-99 7,-25 22,-39 49,-41z"/>
  <path id="2" class="fil0" d="M2313 1547c-4,-78 -41,-124 -105,-121 -138,7 -218,172 -374,565 -3,7 -4,16 -9,23 -11,23 -25,27 -38,26 -18,-4 -36,-19 -47,-27 -14,-9 -31,2 -32,17 -1,44 39,47 60,56 16,6 22,14 17,30 -20,81 -36,127 -56,187 -3,12 -6,40 8,43 10,3 18,-10 21,-20 24,-69 44,-129 71,-196 11,-25 22,-40 48,-44 119,-20 120,-22 148,-17 14,3 22,15 21,29 -6,55 -55,111 -48,175 1,28 25,54 48,57 28,5 53,-5 66,-31 11,-22 18,-43 24,-66 159,-540 180,-626 177,-686zm-268 473c-39,4 -100,10 -139,10 -27,0 -38,-13 -29,-38 6,-21 194,-505 296,-511 40,-2 43,54 34,83 -46,157 -75,254 -119,409 -2,8 -4,15 -8,22 -7,16 -19,22 -35,25z"/>
  <path id="3" class="fil0" d="M2976 1675c7,-1 -2,23 -3,31 -52,143 -126,386 -144,498 -12,71 43,88 63,83 19,-4 34,-23 39,-47 0,0 3,-56 142,-498 8,-26 89,-224 85,-295 -2,-31 -12,-60 -45,-58 -34,2 -58,38 -107,123 -62,113 -264,483 -334,580 -28,-150 -27,-429 -66,-605 -11,-49 -20,-60 -38,-73 -13,-10 -32,-7 -38,7 -8,15 -12,28 -17,42 -93,305 -177,659 -215,760 -9,21 -28,88 -2,87 16,-1 22,-7 28,-23 91,-287 105,-409 167,-582 2,-7 6,-22 15,-23 6,0 9,15 9,20 11,78 38,459 49,530 3,30 16,70 48,68 33,-2 44,-30 54,-60 15,-46 242,-451 292,-547 3,-5 10,-18 18,-18z"/>
 </g>
</svg>
