<?xml version="1.0" encoding="UTF-8"?>
<!DOCTYPE svg PUBLIC "-//W3C//DTD SVG 1.1//EN" "http://www.w3.org/Graphics/SVG/1.1/DTD/svg11.dtd">
<!-- Creator: CorelDRAW X7 -->
<svg xmlns="http://www.w3.org/2000/svg" xml:space="preserve" width="449.346mm" height="156.503mm" version="1.1" style="shape-rendering:geometricPrecision; text-rendering:geometricPrecision; image-rendering:optimizeQuality; fill-rule:evenodd; clip-rule:evenodd"
viewBox="0 0 8105 2823"
 xmlns:xlink="http://www.w3.org/1999/xlink">
 <defs>
  <style type="text/css">
   <![CDATA[
    .fil0 {fill:#2B2A29;fill-rule:nonzero}
   ]]>
  </style>
 </defs>
 <g id="Layer_x0020_1">
  <metadata id="CorelCorpID_0Corel-Layer"/>
  <path class="fil0" d="M1101 199c12,0 15,14 16,29 2,24 -197,931 -464,1556 -67,153 -204,267 -377,276 -111,6 -198,-127 -204,-253 -9,-161 122,-427 281,-435 68,-3 89,87 92,135 2,34 -8,80 -33,121 -6,12 -8,24 -7,34 1,31 34,51 75,49 43,-2 88,-29 98,-68 19,-57 23,-117 21,-141 -4,-82 -87,-196 -268,-187 -203,11 -331,279 -322,457 15,268 196,354 296,349 466,-24 554,-365 689,-778 22,-59 28,-74 52,-75 55,-3 74,108 76,161 4,79 -5,273 -2,331 10,183 118,407 313,396 24,-1 34,-4 48,-12 7,-5 14,-18 13,-27 0,-12 -11,-24 -28,-23 -5,1 -17,1 -21,4 -10,3 -17,3 -27,4 -105,5 -141,-206 -146,-309 -6,-106 0,-237 -4,-304 -3,-63 -16,-125 -55,-179 -21,-30 -44,-51 -45,-70 -1,-12 6,-22 25,-35 366,-249 638,-1109 806,-1118 65,-3 13,154 78,151 27,-2 33,-26 31,-53 -4,-86 -59,-166 -168,-160 -371,20 -586,1121 -863,1135 -17,1 -27,-8 -28,-25 0,0 218,-872 218,-872 10,-31 26,-98 24,-131 -4,-77 -72,-132 -104,-130 -14,0 -26,8 -39,21 -334,324 -919,357 -898,765 7,137 125,257 298,248 138,-8 181,-111 179,-150 -3,-43 -57,-70 -84,-68 -58,3 -74,115 -187,121 -48,3 -106,-40 -112,-149 -17,-337 545,-444 703,-564 16,-12 33,-25 54,-27z"/>
  <path id="1" class="fil0" d="M1766 1445c12,2 87,-4 96,-5 36,-4 50,-21 49,-36 -1,-17 -16,-31 -52,-29 -27,2 -39,3 -62,6 -56,3 -72,-16 -55,-69 75,-273 154,-475 199,-591 17,-44 23,-64 34,-74 12,-8 173,-28 185,-32 7,0 16,-10 16,-17 2,-8 -4,-20 -9,-24 -10,-7 -22,-13 -32,-13 -87,4 -171,9 -255,23 -33,4 -61,25 -74,57 -143,312 -195,489 -266,819 -20,92 -20,279 70,329 55,31 110,31 175,28 10,-1 19,-18 21,-23 1,-27 -43,-32 -67,-38 -39,-5 -48,-31 -57,-67 -3,-14 -7,-31 -7,-48 4,-63 5,-78 21,-139 11,-34 31,-55 70,-57z"/>
  <path id="2" class="fil0" d="M2942 915c9,0 -4,32 -6,44 -71,199 -174,538 -200,694 -16,100 60,123 88,116 27,-6 47,-31 55,-65 0,0 3,-78 198,-694 10,-37 124,-314 118,-413 -2,-43 -16,-83 -62,-81 -48,2 -82,53 -150,172 -86,157 -368,674 -465,810 -40,-211 -39,-600 -93,-846 -15,-67 -28,-83 -54,-101 -17,-14 -43,-10 -52,10 -11,20 -17,39 -24,59 -130,425 -246,919 -299,1060 -13,30 -40,123 -4,121 22,-1 31,-9 40,-31 126,-401 146,-571 233,-812 2,-10 8,-32 20,-33 10,0 13,21 14,29 15,107 52,640 67,738 5,43 22,98 68,95 46,-2 60,-41 75,-83 21,-64 337,-629 407,-763 5,-8 14,-25 26,-26z"/>
  <path id="3" class="fil0" d="M3431 1358c12,2 87,-4 97,-5 36,-4 49,-22 48,-36 0,-17 -16,-31 -52,-29 -26,1 -39,2 -62,6 -56,3 -71,-16 -55,-70 75,-272 154,-474 199,-590 17,-44 23,-64 35,-75 11,-7 172,-28 184,-31 7,0 16,-10 16,-18 2,-7 -4,-19 -8,-23 -10,-7 -23,-14 -33,-13 -86,4 -171,9 -255,23 -33,4 -61,25 -74,57 -143,312 -194,488 -266,818 -20,93 -20,279 70,330 55,31 111,31 176,27 9,0 18,-18 20,-22 1,-27 -43,-32 -67,-38 -39,-5 -48,-31 -57,-67 -3,-15 -6,-31 -7,-48 4,-63 6,-78 22,-139 10,-34 31,-55 69,-57z"/>
  <path id="4" class="fil0" d="M3877 1345c66,-4 99,33 123,82 60,125 58,217 193,263 29,11 70,2 80,-33 6,-24 -26,-37 -51,-48 -24,-13 -43,-34 -49,-63 -29,-146 -68,-187 -100,-209 -23,-16 -9,-34 5,-44 9,-8 21,-11 30,-19 206,-88 369,-340 358,-548 -14,-272 -205,-281 -435,-269 -58,-2 -90,17 -112,71 0,0 -209,806 -270,1010 -21,66 -18,177 55,173 64,-3 74,-54 90,-113 22,-84 33,-120 55,-206 3,-17 14,-47 28,-47zm446 -681c11,217 -119,557 -401,572 -16,1 -22,-9 -22,-21 -2,-38 110,-395 162,-600 19,-83 33,-94 86,-97 118,-6 175,59 175,146z"/>
  <path id="5" class="fil0" d="M5126 677c-10,-183 -44,-278 -186,-270 -304,16 -452,698 -478,837 -41,224 52,437 182,430 246,-13 501,-633 482,-997zm-57 -23c23,433 -273,923 -384,929 -84,4 -89,-223 -12,-502 47,-175 176,-558 314,-566 70,-3 77,57 82,139z"/>
  <path id="6" class="fil0" d="M5403 1364c-12,0 -15,-16 -10,-51 4,-29 101,-754 83,-864 -4,-41 -30,-66 -78,-64 -55,3 -71,33 -77,89 -30,265 -85,874 -95,969 -1,22 -5,41 -6,63 -3,85 67,130 96,130 10,0 19,-3 29,-13 43,-39 600,-1131 615,-1161 9,-20 17,-42 21,-66 4,-12 1,-27 -12,-36 -15,-9 -29,-1 -38,12 -13,18 -27,37 -38,57 -211,398 -460,902 -460,902 -9,19 -20,32 -30,33z"/>
  <path id="7" class="fil0" d="M6535 603c-9,-183 -43,-278 -185,-270 -304,16 -452,698 -478,837 -42,224 52,437 182,430 246,-13 501,-633 481,-997zm-56 -23c23,434 -273,923 -384,929 -85,4 -89,-223 -12,-502 47,-174 176,-558 314,-565 70,-4 77,56 82,138z"/>
  <path id="8" class="fil0" d="M7377 284c-41,2 -60,15 -73,45 -13,29 -329,1015 -342,1117 -11,73 41,99 99,97 36,-2 55,-52 66,-86 0,0 346,-1086 346,-1086 18,-66 -41,-90 -96,-87z"/>
  <path id="9" class="fil0" d="M7795 656c-9,-181 78,-348 160,-352 56,-2 85,47 88,102 3,65 -24,137 -51,172 -19,20 -32,47 -9,65 17,17 39,6 55,-10 52,-65 67,-143 63,-232 -6,-99 -85,-184 -167,-180 -183,9 -319,183 -306,427 14,267 134,403 133,563 0,82 -38,239 -115,243 -75,4 -162,-127 -129,-254 1,-12 8,-27 7,-39 0,-10 -11,-22 -20,-26 -6,-4 -18,-2 -24,1 -22,9 -31,28 -34,50 -14,54 -19,108 -9,165 20,88 120,199 281,191 92,-5 212,-108 223,-268 17,-271 -143,-362 -146,-618z"/>
  <path class="fil0" d="M2876 2119c27,0 53,-7 19,88 0,0 -127,426 -171,570 -10,33 11,46 37,45 26,-2 45,-23 51,-41 6,-17 13,-34 18,-51 96,-366 138,-481 153,-529 7,-23 15,-45 24,-68 6,-17 19,-26 36,-28 16,-3 30,-3 46,-4 7,-2 15,-1 22,-4 4,-2 9,-8 9,-12 1,-6 -2,-12 -7,-14 -5,-3 -11,-5 -19,-5 -15,1 -33,2 -50,4 0,0 -235,21 -235,21 -4,0 -10,2 -11,5 -3,4 -4,10 -1,14 2,5 8,7 14,7 21,2 43,2 65,2z"/>
  <path id="1" class="fil0" d="M3196 2530c-8,-6 -3,-24 1,-35 7,-32 94,-322 99,-337 10,-32 12,-105 -38,-102 -21,1 -43,14 -51,34 0,0 -180,567 -202,636 -21,49 8,84 36,82 19,-1 49,-21 62,-58 11,-32 37,-103 48,-136 3,-11 10,-20 17,-28 8,-6 18,-11 31,-12 39,-3 77,-5 116,-7 8,-1 14,2 17,5 6,4 8,12 7,21 -7,53 -40,121 -33,165 4,20 19,34 41,34 25,2 41,-11 49,-34 11,-37 205,-610 209,-620 16,-48 -4,-100 -47,-98 -13,-1 -27,6 -37,20 -2,4 -5,10 -8,14 -12,34 -84,236 -134,397 -7,26 -14,40 -26,48 -10,6 -25,7 -47,9 -28,2 -55,3 -83,3 -10,1 -21,4 -27,-1z"/>
  <path id="2" class="fil0" d="M3752 2548c8,1 52,-2 58,-3 22,-2 30,-13 29,-22 0,-10 -9,-18 -31,-17 -16,1 -23,1 -37,4 -34,1 -43,-10 -33,-42 45,-163 92,-284 119,-354 10,-26 14,-38 21,-44 7,-5 103,-17 110,-19 5,0 10,-6 10,-11 1,-4 -2,-11 -5,-14 -6,-4 -14,-8 -19,-8 -52,3 -103,6 -153,14 -20,3 -37,15 -45,34 -85,187 -116,293 -159,491 -12,55 -12,167 42,197 33,19 66,18 105,17 6,-1 11,-11 12,-14 1,-16 -25,-19 -40,-23 -23,-3 -28,-18 -34,-40 -2,-8 -4,-19 -4,-29 2,-37 3,-46 13,-83 6,-20 18,-33 41,-34z"/>
  <path id="3" class="fil0" d="M4571 2264c20,-61 41,-159 21,-223 -13,-41 -46,-60 -89,-58 -49,3 -115,37 -158,127 -43,89 -156,344 -150,457 5,98 43,184 115,182 91,-2 150,-154 180,-239 5,-12 4,-28 -10,-30 -8,-1 -20,5 -25,23 -3,17 -73,187 -119,190 -42,2 -36,-108 -26,-147 51,-203 116,-365 172,-469 9,-16 30,-39 50,-40 59,-3 26,146 15,202 -1,5 -4,12 -4,16 -1,7 0,14 7,18 6,4 16,-1 21,-9z"/>
  <path id="4" class="fil0" d="M5026 2065c-4,-65 -35,-104 -88,-102 -116,7 -182,145 -313,473 -2,6 -3,13 -8,19 -9,19 -20,23 -32,22 -14,-4 -29,-16 -38,-23 -12,-8 -26,2 -27,15 -1,36 32,39 50,46 13,5 18,12 14,26 -16,67 -30,106 -46,156 -3,10 -6,33 6,35 9,3 15,-7 18,-16 20,-58 36,-108 59,-164 9,-21 19,-33 40,-37 99,-17 101,-18 124,-14 12,3 18,12 17,24 -5,47 -46,93 -40,147 1,23 21,45 40,47 24,5 45,-4 55,-26 9,-18 16,-36 20,-55 133,-451 151,-523 149,-573zm-224 395c-33,3 -84,9 -117,9 -22,0 -31,-11 -24,-32 5,-18 162,-423 247,-427 34,-2 36,44 28,69 -38,131 -62,212 -99,341 -1,8 -3,14 -6,19 -7,14 -16,19 -29,21z"/>
  <path id="5" class="fil0" d="M5499 2157c13,-143 -40,-211 -152,-224 -41,-5 -79,2 -119,8 -34,5 -40,25 -52,62 -17,49 -144,508 -174,632 -8,38 9,86 48,85 29,-1 44,-16 48,-42 7,-39 17,-75 25,-113 6,-27 22,-45 49,-51 143,-32 313,-193 327,-357zm-336 282c4,-46 122,-427 130,-443 7,-18 32,-24 49,-23 25,0 49,14 62,39 54,107 -94,420 -241,427z"/>
  <path id="6" class="fil0" d="M5709 1926c-25,1 -36,9 -44,27 -7,18 -197,608 -205,669 -6,44 25,60 60,58 21,-1 33,-31 39,-51 0,0 207,-651 207,-651 12,-40 -24,-54 -57,-52z"/>
  <path id="7" class="fil0" d="M5945 1958c28,0 53,-7 19,88 0,0 -127,426 -171,570 -10,33 11,46 37,45 26,-2 45,-23 51,-41 7,-17 13,-34 18,-51 96,-366 138,-481 153,-529 8,-22 15,-44 24,-68 6,-16 19,-26 36,-28 16,-2 30,-3 46,-4 7,-2 15,-1 22,-4 4,-2 9,-8 9,-12 1,-6 -2,-12 -6,-14 -6,-3 -12,-5 -19,-5 -16,1 -34,2 -51,4 0,0 -235,21 -235,21 -4,0 -10,2 -11,5 -3,4 -4,10 -1,15 2,4 8,6 14,6 21,2 43,2 65,2z"/>
  <path id="8" class="fil0" d="M6534 1986c-3,-66 -34,-104 -88,-102 -115,7 -182,145 -312,473 -3,6 -4,13 -8,19 -9,19 -20,23 -32,22 -15,-4 -30,-16 -39,-23 -12,-8 -26,2 -26,15 -1,36 32,39 50,46 13,5 18,12 14,26 -17,67 -31,106 -47,155 -2,11 -5,34 6,36 9,3 16,-8 18,-16 20,-58 37,-108 60,-164 9,-21 18,-33 40,-37 99,-17 100,-18 124,-14 11,2 18,12 17,24 -5,46 -46,93 -40,147 1,23 21,45 40,47 23,4 44,-4 55,-26 9,-18 16,-36 20,-55 133,-451 151,-523 148,-573zm-224 395c-33,3 -83,9 -116,9 -22,0 -32,-12 -24,-32 5,-18 162,-423 247,-427 33,-2 36,44 28,69 -38,131 -63,212 -99,341 -1,8 -4,14 -6,19 -7,14 -17,19 -30,21z"/>
  <path id="9" class="fil0" d="M6737 2564c-55,3 -123,12 -123,12 -18,0 -26,-9 -23,-26 4,-20 8,-41 14,-60 7,-18 92,-294 195,-539 19,-45 7,-85 -23,-84 -19,1 -55,5 -78,40 -10,18 -187,533 -192,636 -1,34 8,94 72,83 50,-13 99,-18 148,-23 18,0 39,-1 40,-19 1,-10 -11,-22 -30,-20z"/>
  <path id="10" class="fil0" d="M7597 1992c-6,-110 -26,-167 -111,-162 -182,9 -271,418 -287,501 -24,135 31,262 110,258 147,-8 300,-379 288,-597zm-34 -14c14,260 -164,553 -230,556 -50,3 -53,-133 -7,-300 28,-105 105,-335 188,-339 42,-2 46,34 49,83z"/>
  <path id="11" class="fil0" d="M7773 2259c-10,1 -3,-14 -2,-18 39,-131 94,-275 115,-342 2,-9 6,-19 10,-28 7,-14 17,-22 32,-22 20,-1 62,-2 82,-9 6,-3 13,-9 13,-17 -1,-5 -5,-12 -16,-13 -29,-4 -156,6 -189,11 -24,3 -38,14 -44,36 -8,28 -170,550 -193,596 -17,32 -27,116 35,116 36,1 58,-19 68,-55 17,-60 34,-120 53,-179 6,-21 20,-31 43,-33 19,-1 43,-2 62,-6 10,-3 21,-11 22,-23 -1,-11 -9,-18 -25,-17 0,0 -40,2 -66,3z"/>
 </g>
</svg>
