<svg xmlns="http://www.w3.org/2000/svg" xml:space="preserve" width="319.349mm" height="120.116mm" version="1.1" style="shape-rendering:geometricPrecision; text-rendering:geometricPrecision; image-rendering:optimizeQuality; fill-rule:evenodd; clip-rule:evenodd"
viewBox="0 0 4153 1562"
 xmlns:xlink="http://www.w3.org/1999/xlink">
 <defs>
  <style type="text/css">
   <![CDATA[
    .fil0 {fill:#2B2A29;fill-rule:nonzero}
   ]]>
  </style>
 </defs>
 <g id="Layer_x0020_1">
  <metadata id="CorelCorpID_0Corel-Layer"/>
  <path class="fil0" d="M794 144c9,0 11,10 11,20 2,18 -142,671 -335,1122 -48,111 -146,193 -271,199 -80,4 -143,-92 -147,-182 -6,-116 88,-308 203,-314 48,-2 64,63 66,98 1,24 -6,58 -24,87 -4,8 -6,17 -5,24 1,23 24,37 54,36 31,-2 63,-21 71,-49 13,-41 16,-85 15,-102 -3,-59 -63,-141 -194,-135 -145,8 -238,201 -231,330 10,192 140,255 213,251 336,-17 399,-263 497,-560 15,-43 20,-54 37,-55 40,-2 53,78 55,116 3,57 -4,197 -1,239 7,132 85,293 225,286 18,-1 25,-3 35,-9 5,-4 10,-13 9,-20 0,-9 -8,-17 -20,-16 -3,0 -12,0 -15,3 -7,2 -12,2 -19,2 -77,4 -102,-148 -106,-223 -4,-76 0,-170 -3,-219 -2,-45 -11,-90 -40,-129 -15,-21 -31,-36 -32,-50 0,-9 4,-16 18,-25 264,-180 460,-800 581,-806 47,-2 10,111 57,108 19,-1 23,-18 22,-37 -3,-63 -43,-120 -121,-116 -268,14 -423,808 -623,819 -12,0 -19,-7 -20,-19 0,0 157,-628 157,-628 8,-23 19,-71 18,-95 -3,-56 -52,-95 -75,-94 -10,1 -19,7 -29,16 -240,234 -662,257 -647,551 5,99 90,185 215,179 99,-6 130,-80 129,-108 -2,-32 -41,-50 -60,-49 -42,2 -54,83 -135,87 -35,2 -77,-29 -81,-107 -12,-243 393,-321 507,-407 12,-9 23,-18 39,-19z"/>
  <path id="1" class="fil0" d="M1104 1140c4,137 62,180 118,182 132,3 245,-194 418,-860 9,-25 15,-55 -12,-53 -20,-1 -26,24 -33,48 -34,117 -208,804 -341,811 -21,1 -39,-40 -39,-73 -8,-163 93,-487 171,-690 10,-22 18,-92 -41,-97 -27,-4 -52,10 -62,32 -58,157 -187,547 -179,700z"/>
  <path id="2" class="fil0" d="M2101 380c-39,-20 -89,1 -131,5 -51,7 -103,11 -154,17 -12,1 -24,0 -27,16 -3,10 10,16 29,17 0,0 70,-5 125,-8 18,1 49,-1 53,13 4,10 -12,32 -22,48 -11,18 -131,226 -241,424 -32,3 -67,7 -102,8 -42,3 -47,7 -49,22 -3,25 9,23 34,25 19,0 40,1 56,0 10,0 22,-1 33,-3 -64,115 -120,219 -146,272 -13,27 -3,46 23,55 29,11 53,7 76,3 69,-13 138,-23 208,-21 15,0 25,-9 26,-16 2,-11 -9,-22 -25,-25 -53,-6 -116,17 -190,10 -15,-1 4,-38 12,-53 43,-79 89,-159 134,-238 53,-8 98,-18 121,-19 0,0 1,0 1,0 12,-1 19,-10 18,-20 0,-11 -8,-21 -20,-22 -7,1 -14,1 -19,1 -25,2 -47,5 -70,6 109,-185 214,-356 268,-453 17,-31 11,-48 -21,-64z"/>
  <path id="3" class="fil0" d="M2392 973c48,-51 226,-170 251,-389 17,-170 -118,-264 -267,-239 -26,3 -41,14 -49,36 1,1 -241,807 -253,846 -11,53 45,55 85,54 151,-1 268,-36 284,-187 6,-52 -19,-102 -51,-121zm-90 -40c-18,-10 -5,-32 -2,-44 55,-208 129,-463 132,-470 6,-18 22,-22 38,-13 70,38 70,167 46,244 -25,83 -89,224 -188,278 -6,3 -17,7 -26,5zm42 166c-1,77 -56,122 -105,124 -13,4 -26,-7 -24,-21 3,-25 5,-37 43,-149 6,-21 18,-25 39,-21 29,9 49,29 47,67z"/>
  <path id="4" class="fil0" d="M3205 439c-4,-78 -41,-125 -106,-122 -139,8 -219,174 -376,569 -3,7 -4,16 -9,23 -11,23 -25,27 -39,27 -17,-5 -36,-20 -46,-28 -15,-9 -32,2 -32,18 -2,43 38,46 60,56 16,6 22,14 17,30 -20,81 -37,128 -56,188 -3,12 -7,40 7,43 11,3 19,-10 22,-20 24,-69 44,-130 71,-197 11,-25 23,-40 49,-45 119,-20 120,-22 149,-16 14,3 21,14 20,28 -6,56 -55,113 -48,177 1,28 26,54 48,57 29,5 54,-5 67,-32 11,-21 18,-42 24,-65 160,-544 181,-630 178,-691zm-269 476c-40,4 -101,10 -141,11 -26,-1 -37,-14 -28,-39 6,-21 195,-508 297,-514 40,-2 43,54 34,84 -46,157 -75,255 -120,410 -1,9 -4,16 -7,23 -8,17 -20,22 -35,25z"/>
  <path id="5" class="fil0" d="M3448 587c-7,-131 57,-251 116,-254 40,-2 61,34 63,74 2,47 -18,98 -37,123 -13,15 -23,35 -7,48 13,11 29,4 40,-7 38,-48 49,-104 45,-168 -3,-71 -60,-133 -120,-130 -132,7 -230,132 -221,308 11,193 98,291 97,406 -1,59 -28,172 -84,175 -53,3 -116,-92 -93,-183 2,-9 6,-20 6,-28 0,-7 -8,-16 -15,-19 -4,-3 -12,-1 -17,1 -16,6 -22,20 -25,36 -10,39 -13,78 -6,119 14,64 86,144 203,138 66,-4 152,-78 160,-194 13,-195 -102,-261 -105,-445z"/>
  <path id="6" class="fil0" d="M3929 562c-6,-131 57,-251 116,-254 40,-2 61,33 63,73 3,47 -17,99 -37,124 -13,15 -22,34 -6,48 13,11 28,3 39,-8 38,-47 49,-103 46,-168 -4,-71 -61,-132 -120,-129 -132,7 -230,132 -221,308 10,193 97,291 96,406 0,59 -28,172 -83,175 -54,3 -117,-92 -93,-183 1,-9 5,-20 5,-29 0,-7 -8,-15 -15,-18 -3,-3 -12,-1 -17,1 -15,6 -22,20 -24,36 -11,39 -14,77 -6,119 13,63 86,143 202,137 66,-3 153,-77 161,-193 12,-196 -103,-261 -106,-445z"/>
 </g>
</svg>
