<?xml version="1.0" encoding="UTF-8"?>
<!DOCTYPE svg PUBLIC "-//W3C//DTD SVG 1.1//EN" "http://www.w3.org/Graphics/SVG/1.1/DTD/svg11.dtd">
<!-- Creator: CorelDRAW X7 -->
<svg xmlns="http://www.w3.org/2000/svg" xml:space="preserve" width="548.123mm" height="135.763mm" version="1.1" style="shape-rendering:geometricPrecision; text-rendering:geometricPrecision; image-rendering:optimizeQuality; fill-rule:evenodd; clip-rule:evenodd"
viewBox="0 0 11125 2755"
 xmlns:xlink="http://www.w3.org/1999/xlink">
 <defs>
  <style type="text/css">
   <![CDATA[
    .fil1 {fill:#2B2A29}
    .fil0 {fill:#2B2A29;fill-rule:nonzero}
   ]]>
  </style>
 </defs>
 <g id="Layer_x0020_1">
  <metadata id="CorelCorpID_0Corel-Layer"/>
  <path class="fil0" d="M3156 453c-8,-152 -67,-238 -192,-232 -192,11 -306,228 -410,468 -131,295 -177,556 -248,559 -141,8 -371,-222 -386,-509 -16,-315 204,-424 204,-424 -2,-38 -64,-73 -110,-71 -166,9 -258,266 -249,440 18,339 321,622 497,656 22,5 33,15 34,34 3,54 -168,620 -199,666 -7,11 -18,17 -29,17 -5,1 -11,1 -16,-1 -22,-7 -154,-82 -311,-74 -182,10 -299,119 -286,350 6,114 104,236 248,229 269,-14 384,-195 474,-295 10,-8 21,-14 32,-14 8,-1 16,1 25,6 131,64 428,434 761,417 179,-9 413,-106 404,-285 -5,-84 -82,-115 -106,-114 0,0 -38,274 -334,290 -238,12 -563,-368 -705,-439 -1,-11 2,-22 6,-36 212,-683 163,-729 291,-736 246,-13 629,-449 605,-902zm-628 781c5,-117 340,-934 459,-940 14,-1 30,6 37,20 80,139 -89,904 -461,924 -10,0 -21,-2 -35,-4zm-750 831c32,-2 65,1 98,14 153,57 167,67 168,91 4,79 -134,331 -368,343 -32,2 -157,-43 -166,-217 -7,-130 137,-225 268,-231z"/>
  <path id="1" class="fil0" d="M3316 856c-46,2 -67,17 -82,50 -14,33 -370,1142 -385,1257 -12,83 47,112 111,109 41,-2 63,-58 75,-97 0,0 389,-1222 389,-1222 21,-74 -46,-101 -108,-97z"/>
  <path id="2" class="fil0" d="M3877 927c14,-55 -38,-99 -81,-105 -50,-11 -81,21 -103,66 -90,200 -338,1178 -337,1246 1,14 1,33 7,43 27,39 68,49 112,49 38,0 47,-35 59,-63 14,-33 48,-220 109,-348 8,-17 32,-19 47,-5 68,69 15,290 148,392 45,35 97,46 153,21 27,-9 39,-35 30,-56 -9,-21 -25,-20 -44,-19 -3,0 -6,0 -9,0 -148,30 -44,-283 -146,-357 -12,-9 -31,-17 -31,-28 4,-16 47,-32 88,-64 111,-79 228,-178 267,-305 82,-252 93,-396 202,-516 63,-74 -50,-109 -105,-76 -140,78 -206,380 -276,596 -68,205 -185,265 -241,282 -26,9 -46,-6 -45,-33 2,-14 4,-25 6,-39 73,-313 127,-387 190,-681z"/>
  <path id="3" class="fil0" d="M4528 1768c13,2 97,-5 108,-6 40,-4 56,-24 55,-40 -1,-19 -18,-35 -59,-33 -30,2 -43,3 -70,7 -63,3 -80,-18 -62,-78 85,-307 174,-535 224,-665 19,-50 26,-72 39,-84 13,-8 194,-31 208,-35 8,0 18,-12 18,-20 2,-8 -4,-22 -10,-26 -11,-8 -25,-15 -36,-15 -98,5 -192,10 -287,26 -38,5 -69,28 -84,64 -160,351 -218,550 -299,921 -22,105 -22,314 79,371 61,35 124,35 197,31 11,-1 21,-20 23,-26 2,-30 -48,-36 -75,-42 -44,-6 -54,-35 -64,-76 -3,-16 -7,-35 -8,-54 4,-70 6,-87 24,-156 12,-38 35,-62 79,-64z"/>
  <path id="4" class="fil0" d="M6222 896c-7,-122 -64,-195 -165,-190 -217,12 -342,271 -587,888 -5,11 -7,25 -14,36 -18,36 -39,43 -61,41 -27,-7 -56,-30 -72,-42 -23,-15 -49,2 -51,27 -2,68 61,73 94,87 25,10 34,23 28,48 -32,126 -58,199 -89,292 -4,20 -10,64 12,68 17,4 29,-15 34,-32 38,-108 68,-202 111,-308 18,-38 35,-61 76,-68 186,-32 188,-35 232,-26 22,4 34,22 32,44 -9,88 -86,176 -75,276 2,43 40,85 76,89 44,8 83,-8 103,-49 17,-34 29,-67 38,-103 249,-848 283,-983 278,-1078zm-421 743c-62,6 -156,16 -219,17 -41,-1 -58,-22 -44,-60 9,-33 304,-794 464,-802 62,-4 67,83 53,130 -72,246 -118,398 -187,641 -2,13 -6,25 -11,36 -13,25 -31,34 -56,38z"/>
  <path id="5" class="fil0" d="M8049 10c-168,8 -261,149 -252,320 11,222 149,563 166,888 27,523 -194,1030 -698,1057 -339,17 -536,-326 -553,-638 -31,-591 293,-942 586,-958 93,-4 175,56 187,298 14,263 -95,674 -348,817 -19,10 -46,22 -44,47 0,10 9,21 20,23 17,4 33,9 50,8 309,-16 528,-503 510,-851 -14,-268 -157,-434 -406,-421 -223,11 -675,299 -638,1001 20,379 226,741 663,718 583,-30 894,-571 867,-1098 -27,-515 -198,-758 -209,-981 -7,-119 50,-182 123,-186 60,-3 98,61 102,137 6,105 -42,119 -39,181 1,30 22,58 82,55 59,-3 87,-88 83,-181 -7,-119 -76,-246 -252,-236z"/>
  <path id="6" class="fil0" d="M8696 574c-46,2 -67,17 -82,50 -14,34 -370,1142 -385,1257 -12,83 47,112 111,109 41,-2 63,-58 75,-97 0,0 389,-1222 389,-1222 21,-74 -46,-101 -108,-97z"/>
  <path id="7" class="fil0" d="M9008 1544c73,-4 110,38 138,94 67,140 64,244 217,296 33,11 79,1 90,-38 7,-28 -29,-42 -57,-54 -28,-15 -49,-38 -55,-70 -33,-165 -77,-211 -113,-237 -26,-17 -10,-37 5,-49 10,-9 24,-12 34,-21 232,-99 415,-383 403,-616 -16,-307 -231,-317 -489,-303 -65,-3 -102,19 -126,80 0,0 -235,906 -305,1136 -23,74 -19,199 62,195 73,-4 84,-61 102,-128 25,-94 37,-135 61,-231 5,-20 17,-53 33,-54zm501 -765c13,244 -133,626 -451,643 -18,1 -25,-10 -25,-23 -2,-43 123,-444 182,-676 22,-93 38,-105 98,-108 132,-7 196,65 196,164z"/>
  <path class="fil1" d="M0 2754l65 1c10,1 13,-1 21,-1 7,0 15,0 22,0l131 -6c8,-1 16,0 24,0 19,-1 44,-3 65,-3 9,0 13,-2 21,-2 31,-1 58,-3 88,-3l152 -8c21,0 44,0 65,-2l132 -5c10,0 13,-2 20,-2 8,0 16,0 24,0 7,0 11,-2 21,-2l44 -1c14,0 45,-3 66,-3l65 -3c10,0 14,-1 21,-2 31,-1 58,-1 89,-3 7,0 10,-2 20,-1l44 -2c17,0 45,-3 65,-3 10,0 14,-1 22,-2 7,0 16,1 23,0 8,0 11,-1 20,-1l67 -3c6,-1 14,0 21,0 21,-1 44,-3 65,-3 10,0 12,-2 20,-2 7,0 16,1 23,0l44 -3c7,0 14,0 21,0 8,-1 12,-2 22,-2 10,1 14,-1 22,-1 7,-1 15,0 23,0 12,-1 29,-2 41,-3 8,-1 16,0 24,0l65 -3c8,0 11,-2 21,-2 8,0 15,0 22,-1l131 -5c10,0 14,-1 22,-2 7,0 15,1 23,0l65 -3c9,0 11,-1 21,-1 36,0 73,-5 109,-5l241 -11c9,0 11,-1 19,-1 0,-16 0,-32 2,-47 -6,0 -13,0 -18,0 -10,0 -13,2 -22,2l-197 8c-11,2 -31,2 -43,3l-44 1c-10,0 -13,1 -20,2 -8,0 -16,-1 -24,0l-131 6c-40,5 -86,4 -128,8l-45 1c-9,0 -12,2 -20,2 -7,0 -16,-1 -23,0 -7,1 -12,1 -22,1 -10,0 -13,2 -21,2 -117,4 -231,13 -348,17l-85 5c-35,-1 -73,4 -108,4l-44 3c-7,1 -15,0 -22,0 -27,3 -59,5 -87,5 -9,0 -11,1 -20,2l-67 3c-9,0 -12,1 -20,1l-45 2c-9,0 -11,1 -21,1 -35,0 -73,5 -108,5 -15,0 -46,3 -67,3l-65 3c-17,0 -43,3 -64,3 -10,0 -13,2 -22,2l-43 1c-9,0 -12,2 -22,2 -9,0 -15,0 -22,1l-109 5c-18,0 -62,7 -82,10 -25,3 -54,8 -79,11 -52,8 -105,15 -156,27zm3549 -155l3 0c29,0 59,-3 88,-3 15,0 45,-3 65,-3l86 -4c8,-1 16,0 23,0 8,-1 12,-2 22,-2 15,0 27,-1 43,-2l132 -6c9,0 12,-1 20,-1 7,-1 15,0 23,0l65 -3c10,0 13,-2 21,-2 8,0 16,0 24,0 9,0 11,-2 21,-2 30,1 57,-3 87,-3l86 -4c7,-1 15,0 22,0l218 -11c7,0 15,0 23,0l108 -5c10,0 12,-1 22,-1 31,0 57,-3 88,-3 10,0 12,-2 21,-2l88 -3c17,0 45,-3 65,-3l87 -5c7,0 16,1 23,0l151 -7c8,-1 16,0 24,0 8,0 11,-2 21,-2 36,0 73,-3 108,-5 8,0 16,1 23,0 8,0 12,-1 22,-1l43 -2c10,0 12,-1 22,-1l65 -3c7,-1 16,0 23,0l63 -3c9,0 12,-2 22,-2 16,0 28,-1 45,-1 9,-1 11,-2 20,-2l45 -2c10,0 13,-1 21,-1 7,0 15,0 22,0 21,-1 45,-3 66,-3l88 -4c21,-2 44,-2 65,-2 21,-1 44,-3 65,-3l87 -5c17,0 28,-2 45,-2l64 -3c10,0 14,-1 22,-1 7,-1 15,0 22,0l66 -3c9,0 11,-2 20,-2 8,0 16,0 23,0l44 -2c7,-1 14,-1 21,-1 10,0 14,-1 22,-2 7,0 16,1 23,0l42 -3c9,-1 49,-1 66,-3l283 -12c10,0 12,-2 21,-2 29,0 58,-3 87,-3l65 -3c19,0 46,-3 66,-3l217 -11c35,0 74,-4 109,-4 15,0 46,-4 65,-4l45 -1c12,-1 30,-2 42,-3l109 -5c10,0 12,-1 22,-1 28,0 60,-3 87,-5l108 -5c9,0 12,-1 21,-1l88 -4c17,-1 55,-1 65,-3l153 -8c19,-2 43,-1 62,-3l217 -11c7,-1 15,0 23,-1 12,0 30,-2 43,-3 29,-1 58,-2 86,-4l152 -8c18,0 68,-5 86,-5 21,1 42,-3 65,-3l87 -4c20,0 67,-5 86,-5 17,0 65,-4 87,-5l302 -17c29,0 58,-4 87,-4l86 -5c42,-5 86,-5 129,-8l408 -24c9,0 13,-2 21,-2 43,-2 88,-3 130,-7l557 -36c13,-2 30,-2 44,-2l0 -1c-17,0 -28,1 -43,1 -10,0 -12,2 -20,2 -8,0 -16,-1 -24,0l-65 3c-8,0 -11,1 -21,1 -22,0 -47,4 -65,3 -21,0 -64,4 -87,5l-43 2c-10,0 -13,1 -21,1 -17,1 -29,2 -45,2l-152 7c-7,1 -15,0 -23,0 -35,2 -72,5 -108,5 -10,0 -12,2 -21,2l-66 3c-7,0 -15,-1 -23,0 -8,0 -11,1 -21,1l-44 2c-14,0 -45,3 -66,3 -15,0 -27,1 -43,1l-87 5c-7,1 -15,0 -23,0 -8,0 -12,2 -21,2 -59,-1 -118,6 -177,6 -9,0 -12,1 -20,1 -7,1 -15,0 -23,0 -9,0 -12,2 -21,2 -44,0 -87,5 -130,5 -10,0 -14,1 -22,1 -7,0 -16,0 -23,0 -8,0 -12,2 -22,2 -44,-1 -86,4 -131,4 -10,0 -12,2 -22,2l-110 4c-27,4 -62,-1 -89,2 -27,3 -59,1 -88,3 -23,2 -67,1 -88,4 -27,3 -60,0 -87,3l-109 4c-10,0 -14,1 -22,2 -7,0 -15,-1 -23,-1 -10,0 -12,2 -22,2 -7,0 -14,0 -21,0 -9,0 -12,2 -22,2 -45,-1 -89,4 -133,4l-66 2c-10,0 -12,1 -22,1 -30,0 -60,1 -88,3 -29,3 -61,0 -88,3 -27,3 -61,0 -87,3 -19,3 -67,1 -88,3 -22,3 -44,2 -66,2l-65 3c-7,1 -16,0 -23,0l-65 3c-8,1 -15,0 -23,0 -10,0 -12,2 -22,2 -7,0 -14,0 -21,0 -10,0 -13,1 -22,2 -8,0 -16,0 -23,-1l-66 3c-14,2 -30,-1 -45,1 -26,4 -62,0 -88,3 -13,2 -30,0 -43,2 -13,1 -31,-1 -45,1 -26,4 -62,1 -87,4 -17,2 -48,2 -67,2l-64 3c-8,0 -16,0 -24,0 -9,0 -12,2 -21,2 -56,0 -122,6 -176,6 -7,0 -15,0 -22,0 -8,0 -12,1 -22,1l-66 2c-9,0 -12,2 -22,1 -53,0 -122,7 -174,7 -16,0 -28,1 -45,1 -9,0 -11,2 -20,2 -8,0 -16,-1 -23,0l-45 2c-16,2 -48,2 -65,2 -10,0 -13,2 -22,2 -7,0 -14,0 -21,0 -9,0 -12,2 -22,1 -52,0 -124,7 -176,7 -16,0 -28,1 -45,1 -9,0 -11,2 -20,2 -7,0 -16,-1 -23,0 -8,0 -12,1 -22,1l-43 2c-10,0 -14,1 -22,1 -7,1 -15,0 -23,0 -8,1 -11,2 -21,2l-65 3c-8,0 -16,0 -23,0l-262 12c-6,1 -15,0 -21,0 -15,0 -46,4 -67,3 -34,0 -73,5 -108,5 -9,0 -12,2 -21,2 -17,0 -28,1 -45,1l-150 8c-10,0 -14,1 -22,1l-43 2c-10,0 -14,1 -22,1 -7,1 -15,0 -23,1l-65 3c-9,0 -11,1 -21,1 -22,0 -48,3 -65,3 -23,0 -42,3 -65,3l-216 13c-7,0 -15,-1 -22,0l-108 6c-10,0 -14,1 -22,1l-65 4c-9,-1 -12,1 -21,1 -25,0 -63,5 -87,5l-63 4c-15,2 -30,1 -45,2l-171 11c-14,1 -29,0 -43,2l-213 14c-12,1 -29,2 -43,2l-171 11c-7,1 -16,0 -23,0l-108 6c-17,1 -28,2 -44,2l-31 1c2,16 3,32 4,48z"/>
 </g>
</svg>
