<?xml version="1.0" encoding="UTF-8"?>
<!DOCTYPE svg PUBLIC "-//W3C//DTD SVG 1.1//EN" "http://www.w3.org/Graphics/SVG/1.1/DTD/svg11.dtd">
<!-- Creator: CorelDRAW X7 -->
<svg xmlns="http://www.w3.org/2000/svg" xml:space="preserve" width="494.931mm" height="132.546mm" version="1.1" style="shape-rendering:geometricPrecision; text-rendering:geometricPrecision; image-rendering:optimizeQuality; fill-rule:evenodd; clip-rule:evenodd"
viewBox="0 0 9128 2444"
 xmlns:xlink="http://www.w3.org/1999/xlink">
 <defs>
  <style type="text/css">
   <![CDATA[
    .fil0 {fill:#2B2A29;fill-rule:nonzero}
   ]]>
  </style>
 </defs>
 <g id="Layer_x0020_1">
  <metadata id="CorelCorpID_0Corel-Layer"/>
  <path class="fil0" d="M1669 1085c-18,-160 -73,-498 -80,-630 -2,-45 -1,-72 -13,-109 -12,-41 -55,-68 -95,-66 -14,1 -27,3 -39,12 -362,209 -194,158 -887,318 -142,30 -291,156 -282,326 9,160 122,248 297,239 133,-7 207,-142 204,-204 -3,-59 -32,-94 -77,-92 -73,4 -73,212 -213,219 -86,4 -137,-72 -141,-148 -6,-121 88,-247 301,-295 22,-6 547,-118 595,-136 3,0 5,-2 8,-2 10,-1 19,1 29,3 0,0 -240,877 -330,1146 -21,61 -186,697 -493,713 -185,10 -292,-128 -302,-332 -17,-326 208,-555 316,-560 104,-6 135,77 138,128 3,52 -25,140 -91,200 -12,8 -45,45 -44,59 2,25 42,33 69,31 148,-8 209,-102 202,-247 -8,-141 -121,-234 -254,-227 -202,11 -487,236 -468,596 19,357 274,417 399,411 299,-16 461,-299 589,-700 157,-491 375,-1236 385,-1236 54,-3 132,732 133,754 2,34 -11,67 -34,98 -86,120 -135,301 -133,345 0,5 3,15 8,17 13,7 21,-26 25,-38 30,-93 55,-142 145,-257 16,115 21,214 0,319 -15,62 -41,113 -88,115 -18,1 -28,-11 -27,4 1,20 39,38 73,36 178,-9 212,-251 204,-409 -3,-56 -14,-117 -16,-154 -3,-55 -4,-87 33,-131 91,-108 177,-204 218,-258 3,-3 10,-6 15,-3 5,2 6,7 6,14 1,20 -146,517 -142,783 5,366 104,608 328,596 29,-2 66,-16 64,-46 0,-10 -11,-16 -21,-16 0,0 -5,0 -9,1 -77,4 -212,-78 -206,-392 16,-819 327,-1305 411,-1534 2,-5 4,-12 4,-20 -1,-24 -31,-62 -72,-60 -47,2 -81,59 -99,99 -130,254 -430,660 -543,720z"/>
  <path id="1" class="fil0" d="M2407 1681c13,2 89,-4 99,-5 37,-4 51,-22 50,-37 -1,-17 -17,-31 -54,-29 -27,1 -39,2 -64,6 -56,3 -72,-16 -55,-72 76,-278 157,-485 203,-603 17,-45 24,-66 35,-76 12,-8 177,-29 189,-32 7,-1 17,-11 16,-18 2,-8 -3,-20 -8,-25 -11,-7 -23,-13 -33,-13 -89,5 -175,9 -261,24 -34,4 -63,25 -76,58 -146,319 -199,500 -272,837 -20,95 -20,285 72,337 56,32 113,31 179,28 10,-1 19,-19 21,-23 1,-28 -44,-33 -69,-39 -39,-5 -48,-32 -58,-68 -3,-15 -6,-32 -7,-50 4,-64 6,-79 22,-142 11,-35 32,-56 71,-58z"/>
  <path id="2" class="fil0" d="M3300 1326c-48,-109 -180,-332 -246,-506 -3,-15 -9,-27 -17,-39 -11,-22 -40,-20 -52,0 -9,21 -15,41 -19,61 -42,182 -311,1041 -338,1139 -13,43 -4,72 21,71 40,-3 62,-48 72,-88 6,-30 192,-675 229,-766 2,-7 14,-15 22,-13 7,0 15,9 21,16 0,0 236,422 236,422 6,17 10,40 6,57 -17,65 -44,148 -63,213 -20,85 -33,131 14,128 29,-2 55,-30 70,-85 14,-60 121,-409 212,-762 27,-100 51,-198 73,-298 18,-83 42,-143 -15,-140 -42,2 -60,35 -86,140 -33,126 -67,231 -123,444 -4,10 -8,23 -17,6z"/>
  <path id="3" class="fil0" d="M4124 215c37,-96 -86,-128 -104,-61 -22,68 -41,133 -57,201 -16,62 77,82 98,29 22,-55 44,-111 63,-169z"/>
  <path id="4" class="fil0" d="M4279 1099c-9,-185 80,-355 164,-359 57,-3 87,47 89,104 4,66 -24,139 -52,175 -19,21 -32,49 -9,67 18,17 40,6 57,-10 53,-67 68,-147 64,-238 -6,-101 -87,-188 -171,-184 -187,10 -326,188 -313,437 14,273 138,412 137,576 -1,84 -39,244 -118,248 -76,4 -165,-130 -132,-260 1,-12 8,-27 7,-40 0,-10 -11,-22 -21,-26 -5,-5 -17,-2 -24,1 -22,9 -31,29 -35,52 -14,55 -19,109 -8,168 19,90 122,204 287,195 93,-5 216,-110 227,-274 18,-277 -145,-370 -149,-632z"/>
  <path id="5" class="fil0" d="M5848 1627c-9,53 -75,256 -157,379 -88,126 -180,204 -348,213 -157,9 -248,-68 -256,-224 -10,-189 138,-195 136,-241 -3,-42 -26,-66 -65,-64 -77,4 -155,122 -148,238 14,276 198,387 397,377 422,-22 560,-491 655,-850 41,-157 188,-284 176,-503 -2,-42 -31,-78 -70,-76 -121,7 -214,407 -243,522 -32,135 -227,180 -249,181 -171,9 -238,-190 -247,-372 -25,-476 314,-1077 681,-1096 72,-4 126,48 130,127 6,108 -126,370 -294,379 -37,1 -68,-39 -70,-76 -7,-121 87,-74 82,-170 -1,-20 -20,-46 -52,-44 -69,4 -149,77 -143,183 5,101 79,191 180,186 222,-12 394,-261 383,-468 -5,-96 -76,-228 -276,-218 -480,26 -778,755 -758,1140 22,419 239,509 410,500 71,-4 116,-36 138,-37 8,-1 10,2 8,14z"/>
  <path id="6" class="fil0" d="M6961 837c-10,-187 -45,-284 -190,-276 -310,16 -462,713 -489,856 -42,229 53,446 187,439 251,-13 512,-647 492,-1019zm-58 -24c23,444 -279,944 -392,950 -87,4 -91,-227 -13,-513 48,-178 180,-571 321,-578 72,-4 79,58 84,141z"/>
  <path id="7" class="fil0" d="M7661 801c-10,-188 -45,-285 -190,-277 -310,16 -462,714 -489,856 -42,229 53,447 186,440 252,-14 512,-647 493,-1019zm-58 -24c23,443 -280,943 -393,949 -86,5 -91,-227 -12,-513 48,-178 180,-570 321,-578 71,-3 79,58 84,142z"/>
  <path id="8" class="fil0" d="M8329 1250c114,-317 130,-783 -242,-763 -116,6 -120,-16 -163,112 -21,65 -270,1010 -302,1068 -6,13 -8,28 -10,43 -3,74 74,90 148,86 197,-10 425,-145 569,-546zm-182 -690c116,-6 160,303 50,625 -100,294 -181,412 -333,514 -12,8 -24,14 -39,20 -19,6 -40,-10 -34,-31 97,-371 296,-1055 304,-1085 11,-28 13,-41 52,-43z"/>
  <path id="9" class="fil0" d="M8810 862c-9,-185 81,-356 164,-360 57,-3 87,48 90,104 3,67 -25,140 -53,176 -18,20 -32,48 -9,67 19,16 40,5 57,-10 53,-67 68,-147 64,-238 -5,-101 -86,-188 -170,-184 -187,10 -326,187 -314,436 15,274 138,413 137,576 -1,84 -39,244 -118,249 -76,4 -165,-130 -132,-260 1,-13 8,-28 8,-40 -1,-10 -11,-22 -21,-27 -6,-4 -18,-1 -25,2 -22,8 -31,28 -35,51 -14,55 -18,110 -8,169 20,90 122,203 287,195 94,-5 217,-111 228,-274 17,-278 -146,-371 -150,-632z"/>
 </g>
</svg>
