<?xml version="1.0" encoding="UTF-8"?>
<!DOCTYPE svg PUBLIC "-//W3C//DTD SVG 1.1//EN" "http://www.w3.org/Graphics/SVG/1.1/DTD/svg11.dtd">
<!-- Creator: CorelDRAW X7 -->
<svg xmlns="http://www.w3.org/2000/svg" xml:space="preserve" width="591.904mm" height="124.651mm" version="1.1" style="shape-rendering:geometricPrecision; text-rendering:geometricPrecision; image-rendering:optimizeQuality; fill-rule:evenodd; clip-rule:evenodd"
viewBox="0 0 12559 2645"
 xmlns:xlink="http://www.w3.org/1999/xlink">
 <defs>
  <style type="text/css">
   <![CDATA[
    .fil1 {fill:#2B2A29}
    .fil0 {fill:#2B2A29;fill-rule:nonzero}
   ]]>
  </style>
 </defs>
 <g id="Layer_x0020_1">
  <metadata id="CorelCorpID_0Corel-Layer"/>
  <path class="fil0" d="M913 1048c-34,-3 -46,-29 -56,-51 -131,-271 -79,-521 45,-653 43,-45 90,-84 147,-116 103,-54 -75,-141 -172,-101 -56,22 -105,62 -143,107 -77,98 -124,239 -121,401 5,204 95,399 202,487 9,5 15,13 24,21 24,22 28,50 18,79 -2,14 -7,29 -12,40 -88,267 -109,461 -92,744 15,289 206,626 544,608 530,-28 927,-901 895,-1516 -10,-196 -57,-378 -154,-455 -45,-35 -64,-80 -61,-134 0,-142 -49,-278 -282,-266 -323,17 -624,462 -760,784 -5,9 -16,16 -22,21zm1210 -23c44,839 -545,1478 -795,1488 -252,8 -374,-318 -388,-573 -10,-131 9,-365 78,-587 14,-52 27,-64 79,-53 72,14 143,10 213,6 55,0 67,11 80,58 56,185 165,256 213,253 42,-7 52,-33 37,-55 -34,-50 -63,-99 -74,-156 -4,-19 -8,-39 -12,-59 -12,-76 16,-128 85,-172 193,-115 283,-404 290,-427 20,-55 54,-63 96,-20 54,57 92,181 98,297zm-244 -544c3,71 3,79 -50,90 -19,7 -42,14 -64,18 -98,25 -163,88 -225,162 -80,101 -122,211 -147,335 -2,17 -1,34 -12,49 -7,17 -20,38 -38,44 -69,30 -143,31 -218,9 -23,-10 -33,-32 -25,-55 15,-47 330,-748 676,-766 59,-7 92,23 101,80 0,11 1,22 2,34 0,0 0,0 0,0zm-248 533c-25,6 2,-63 44,-139 46,-85 115,-177 147,-161 19,22 5,45 -5,62 -28,62 -128,220 -186,238z"/>
  <path id="1" class="fil0" d="M2217 2063c6,224 101,293 192,297 216,6 401,-317 683,-1403 14,-41 23,-90 -19,-87 -34,-1 -44,39 -56,79 -55,191 -337,1311 -556,1323 -34,2 -63,-65 -63,-119 -14,-266 152,-795 280,-1126 15,-35 29,-149 -68,-159 -44,-6 -85,16 -100,54 -95,255 -306,892 -293,1141z"/>
  <path id="2" class="fil0" d="M3259 1875c77,-4 116,39 145,97 70,147 67,255 226,310 35,12 83,1 94,-40 8,-28 -30,-43 -59,-56 -30,-15 -51,-40 -58,-74 -34,-171 -80,-220 -118,-247 -27,-18 -11,-39 6,-51 10,-9 25,-12 35,-22 242,-104 434,-401 422,-644 -18,-321 -242,-331 -512,-317 -68,-3 -107,20 -132,83 0,0 -245,948 -318,1188 -25,78 -21,209 65,204 76,-4 87,-64 106,-134 26,-97 38,-141 64,-241 5,-21 17,-55 34,-56zm524 -801c13,255 -139,656 -471,673 -20,1 -26,-10 -27,-24 -2,-45 130,-465 191,-707 23,-97 39,-110 102,-113 138,-7 205,69 205,171z"/>
  <path id="3" class="fil0" d="M5296 378c-4,100 -480,1967 -479,1981 3,59 75,81 109,79 28,-1 53,-19 68,-52 0,0 298,-1161 339,-1350 64,-285 469,-923 741,-938 88,-4 118,137 122,224 18,340 -219,1189 -542,1206 -62,3 -120,-62 -125,-156 -7,-142 58,-313 178,-413 11,-12 21,-26 20,-41 -1,-25 -22,-50 -62,-47 -164,8 -257,354 -250,493 10,176 118,286 336,275 405,-21 655,-836 635,-1221 -14,-270 -115,-418 -337,-406 -209,11 -466,379 -558,461 -9,1 -3,-11 -4,-23 2,-11 52,-193 86,-254 10,-20 15,-38 14,-55 -2,-48 -55,-77 -81,-89 -12,-8 -24,-10 -38,-10 -107,6 -405,562 -774,581 -147,8 -250,-64 -258,-214 -6,-113 109,-199 104,-281 -1,-37 -46,-83 -103,-80 -91,5 -177,157 -169,307 11,213 164,350 458,334 196,-10 367,-118 501,-265 16,-18 43,-45 69,-46z"/>
  <path id="4" class="fil0" d="M7142 841c-7,-127 -68,-204 -173,-198 -226,12 -357,283 -613,927 -5,12 -7,26 -15,38 -18,38 -41,45 -63,43 -29,-7 -59,-31 -76,-44 -24,-16 -52,3 -53,28 -2,71 63,76 98,92 26,9 36,23 29,49 -33,133 -61,208 -92,306 -5,21 -11,67 12,71 17,5 30,-16 35,-33 40,-113 71,-211 117,-322 18,-41 36,-64 78,-72 195,-33 198,-36 243,-27 24,4 36,24 34,46 -9,92 -90,184 -79,289 3,45 42,89 79,92 46,9 88,-7 108,-51 18,-35 31,-70 40,-107 261,-886 296,-1027 291,-1127zm-440 777c-65,6 -164,17 -229,17 -43,0 -61,-22 -46,-63 10,-34 318,-829 485,-838 65,-3 70,87 55,136 -75,257 -123,416 -195,670 -2,14 -7,26 -12,37 -13,27 -32,36 -58,41z"/>
  <path id="5" class="fil0" d="M7372 1659c77,-4 116,40 145,98 70,147 67,255 227,309 34,12 82,2 94,-39 7,-29 -31,-44 -60,-56 -29,-16 -51,-41 -58,-74 -34,-172 -80,-221 -118,-247 -26,-19 -10,-39 6,-51 11,-10 25,-13 36,-22 241,-104 434,-401 421,-645 -17,-320 -242,-331 -512,-317 -68,-2 -107,20 -132,84 0,0 -245,948 -318,1187 -25,78 -20,209 65,205 76,-4 87,-65 106,-134 26,-98 39,-141 65,-242 4,-20 17,-55 33,-56zm524 -800c14,255 -139,655 -471,673 -19,1 -26,-11 -26,-25 -3,-45 129,-464 190,-706 23,-98 40,-110 102,-113 139,-8 205,68 205,171z"/>
  <path id="6" class="fil0" d="M8398 662c53,0 104,-14 37,171 0,0 -249,838 -336,1121 -20,63 21,89 72,87 51,-3 89,-45 101,-80 12,-34 25,-66 35,-101 189,-717 271,-943 301,-1039 14,-43 29,-86 46,-133 13,-32 38,-50 71,-55 32,-4 60,-6 91,-8 14,-3 29,-1 42,-7 9,-3 19,-15 19,-24 2,-12 -4,-23 -13,-28 -11,-5 -23,-10 -37,-9 -32,2 -66,3 -99,8 0,0 -462,41 -462,41 -8,1 -19,4 -22,10 -5,8 -7,20 -1,28 3,9 15,14 26,13 43,3 85,4 129,5z"/>
  <path id="7" class="fil0" d="M9451 1184c-55,-125 -208,-382 -284,-582 -3,-17 -10,-31 -19,-45 -13,-25 -46,-23 -60,0 -10,24 -17,47 -21,70 -49,210 -359,1198 -389,1311 -15,48 -5,82 24,81 45,-3 71,-55 83,-101 6,-35 220,-777 263,-881 2,-9 16,-18 25,-16 8,0 18,11 24,19 0,0 272,486 272,486 7,19 11,45 6,65 -18,75 -50,171 -72,245 -23,98 -37,150 17,148 33,-2 63,-35 80,-98 16,-69 140,-471 244,-877 30,-115 59,-228 84,-343 20,-95 48,-165 -17,-161 -48,2 -69,40 -99,161 -39,145 -78,266 -141,511 -6,11 -10,26 -20,7z"/>
  <path id="8" class="fil0" d="M10005 1510c14,2 102,-5 114,-6 42,-5 58,-26 57,-43 -1,-20 -19,-36 -61,-33 -32,1 -46,2 -74,6 -65,3 -84,-18 -64,-82 88,-320 181,-558 234,-694 20,-52 27,-75 41,-88 13,-9 203,-33 216,-37 9,0 20,-12 19,-20 3,-9 -4,-23 -10,-28 -11,-8 -26,-16 -37,-15 -103,5 -202,10 -300,26 -40,6 -73,30 -88,68 -168,367 -228,574 -313,962 -23,110 -23,329 83,388 64,37 130,36 206,33 11,-1 22,-22 24,-27 1,-32 -50,-38 -79,-45 -45,-6 -56,-36 -67,-78 -3,-17 -7,-37 -8,-57 5,-74 6,-92 25,-163 13,-41 37,-65 82,-67z"/>
  <path id="9" class="fil0" d="M10530 1494c77,-4 116,39 145,97 70,147 67,255 226,310 35,12 83,1 95,-40 7,-28 -31,-43 -60,-56 -29,-15 -51,-40 -58,-74 -34,-171 -80,-220 -118,-247 -27,-18 -10,-39 6,-51 11,-9 25,-13 36,-22 241,-104 433,-401 421,-644 -17,-321 -242,-332 -512,-317 -68,-3 -107,20 -132,83 0,0 -245,948 -318,1188 -25,78 -21,209 65,204 76,-4 87,-64 106,-134 26,-98 38,-141 64,-241 5,-21 17,-55 34,-56zm524 -801c13,255 -139,656 -471,673 -19,1 -26,-10 -26,-25 -3,-44 129,-464 190,-706 23,-97 39,-110 102,-113 139,-8 205,69 205,171z"/>
  <path id="10" class="fil0" d="M11583 870c-11,-213 93,-409 189,-413 65,-4 100,54 103,119 4,77 -29,161 -60,202 -22,24 -37,56 -11,77 21,19 46,7 65,-11 62,-77 79,-169 74,-274 -6,-116 -99,-217 -196,-212 -215,12 -375,216 -360,503 16,314 158,474 157,662 -1,97 -45,281 -136,286 -88,4 -190,-150 -152,-299 2,-14 9,-32 9,-46 0,-11 -13,-25 -24,-30 -6,-6 -20,-2 -29,1 -25,10 -35,33 -39,59 -17,64 -22,126 -10,194 22,104 140,234 330,224 108,-5 249,-126 262,-315 20,-319 -167,-426 -172,-727z"/>
  <path class="fil1" d="M0 2643l73 2c11,0 15,-2 25,-2 8,0 16,0 24,0l148 -8c9,0 18,1 27,0 22,0 50,-4 73,-4 11,1 15,-1 24,-2 35,-1 65,-3 100,-3l170 -10c24,-1 51,0 74,-3l150 -6c10,0 14,-2 22,-2l1 0c-12,-15 -24,-31 -34,-48 -17,1 -35,2 -52,2 -17,0 -52,4 -75,4l-73 4c-20,-1 -49,4 -74,3 -11,0 -14,2 -24,2l-49 2c-10,0 -13,2 -24,2 -10,0 -17,0 -25,2l-124 6c-19,0 -69,9 -91,12 -29,4 -61,10 -90,14 -58,9 -119,18 -176,33zm1592 -71c3,0 6,0 9,0 23,0 49,-4 73,-3 11,0 14,-2 23,-2 8,-1 18,0 26,-1l49 -3c8,-1 17,0 24,0 9,-1 14,-2 25,-2 11,0 15,-1 24,-2 9,-1 18,1 26,0 14,-1 34,-2 48,-4 8,0 17,1 26,0l73 -4c10,0 13,-2 24,-2 9,0 17,1 25,-1l148 -6c11,0 16,-2 24,-2 9,-1 18,0 27,0l73 -4c10,0 13,-2 24,-2 41,0 82,-6 122,-5l272 -14c11,0 13,-2 23,-2 8,0 18,1 26,0l73 -3c11,0 14,-2 25,-3 19,0 31,-1 50,-1 11,0 14,-2 23,-2l51 -2c11,0 15,-2 24,-2l99 -4c8,-1 13,-2 23,-2l49 -2c8,-1 13,-2 24,-2 11,0 16,0 23,-1l100 -4c11,0 14,-2 24,-2 8,0 18,0 26,0l73 -4c12,0 15,-2 25,-2 8,0 18,1 26,0l98 -6c10,0 15,0 22,-1 9,-1 18,0 26,-1l49 -3c8,-1 17,0 25,0l122 -8c8,-1 18,0 26,0 23,-1 49,-4 73,-4 11,0 14,-2 24,-2 33,0 67,-4 100,-3 17,0 51,-5 73,-4l98 -6c8,-1 18,0 26,0 9,-1 13,-2 24,-2 18,0 31,-2 49,-2l149 -7c10,0 14,-2 22,-2 9,-1 18,0 26,0l74 -4c11,0 15,-2 24,-2 9,0 18,0 26,0 5,0 8,-1 11,-1 -7,-23 -10,-46 -10,-70l-225 16c-13,2 -33,3 -48,3l-193 14c-9,0 -18,-1 -26,0l-123 7c-18,1 -31,2 -49,2l-73 4c-11,0 -14,2 -24,2 -19,0 -32,2 -51,2 -11,0 -13,2 -22,2 -25,1 -52,0 -76,3l-147 7c-9,1 -14,1 -25,1l-147 8c-18,0 -50,4 -75,4l-48 2c-8,2 -16,2 -25,1 -17,0 -50,4 -73,4 -11,0 -15,2 -24,2 -9,1 -18,0 -27,0 -21,1 -50,4 -73,4l-96 6c-8,0 -18,-1 -26,0 -14,1 -34,2 -47,3l-51 2c-10,0 -15,2 -22,2l-51 2c-20,0 -49,4 -73,4 -11,0 -14,2 -25,2l-222 10c-13,2 -35,2 -48,3l-51 2c-10,0 -14,1 -22,2 -9,1 -18,0 -26,0l-148 8c-46,6 -98,5 -145,9l-51 2c-11,0 -13,2 -23,2 -8,0 -17,-1 -25,0 -9,1 -15,2 -25,2 -11,0 -15,2 -25,2 -101,3 -201,11 -302,17 -9,19 -19,38 -31,55zm3529 -173l69 -4c9,0 18,1 26,0l123 -6c10,0 13,-2 24,-2 35,0 65,-3 99,-3 12,0 15,-2 25,-2l99 -4c18,0 50,-4 73,-4l98 -5c8,-1 18,0 26,-1l171 -9c9,-1 18,0 26,0 10,0 14,-2 25,-2 40,0 83,-3 122,-6 8,0 18,1 26,0 9,0 13,-2 24,-2l49 -1c11,0 14,-2 25,-2l73 -4c8,-1 18,0 26,0l72 -4c10,0 13,-2 24,-2 18,0 31,-2 51,-2 9,0 12,-2 22,-2l51 -2c11,0 15,-1 24,-2 8,0 17,1 25,1 23,-1 51,-4 75,-4l99 -4c24,-3 49,-3 73,-4 24,-1 49,-4 74,-4l97 -6c19,0 32,-1 51,-1l73 -4c11,0 16,-2 24,-2 8,-1 17,0 25,0l75 -4c10,0 13,-2 22,-2 9,0 18,0 27,0l49 -3c8,-1 16,-1 24,-1 11,0 15,-1 24,-2 9,0 18,1 26,0l48 -3c10,-1 55,-1 75,-4l319 -15c11,0 13,-2 24,-2 32,0 65,-4 98,-4l73 -4c22,0 53,-4 75,-4l244 -13c40,0 84,-6 124,-6 16,0 52,-4 73,-4l51 -2c13,-1 33,-2 47,-3l124 -6c11,0 13,-2 24,-2 31,0 68,-3 98,-6l122 -5c11,0 14,-2 24,-2l100 -4c19,-3 62,-3 73,-4l172 -10c22,-3 49,-1 71,-5l244 -13c8,-1 17,0 26,-1 14,0 35,-3 49,-3 33,-2 66,-3 97,-6l171 -10c20,1 78,-6 98,-5 23,0 48,-4 73,-4l98 -6c23,0 76,-6 97,-6 20,1 73,-5 98,-5l342 -21c32,0 65,-6 98,-6l97 -6c48,-6 97,-6 145,-9l460 -31c12,0 16,-1 25,-2 48,-2 99,-3 147,-9l628 -43c15,-3 34,-3 50,-3l0 -2c-19,0 -31,2 -49,2 -11,0 -14,2 -23,2 -8,0 -17,0 -26,0l-73 4c-9,0 -13,2 -25,2 -24,0 -52,4 -73,4 -23,-1 -72,4 -97,5l-49 2c-12,0 -15,2 -25,2 -18,1 -32,2 -50,2l-171 10c-9,0 -18,-1 -26,0 -40,2 -82,5 -123,5 -10,0 -13,2 -24,2l-73 4c-8,1 -18,0 -26,0 -10,0 -13,2 -25,2l-49 2c-16,0 -51,4 -75,4 -16,0 -30,1 -48,1l-98 6c-8,1 -18,0 -26,0 -10,0 -13,2 -25,2 -65,0 -132,8 -198,8 -11,0 -14,1 -23,2 -9,0 -18,-1 -26,0 -10,0 -13,2 -25,2 -48,-1 -98,6 -146,5 -11,0 -15,2 -25,2 -8,1 -17,0 -26,0 -9,0 -13,2 -24,2 -51,0 -98,6 -148,6 -11,0 -14,2 -25,2l-125 4c-29,5 -69,0 -100,4 -31,3 -66,0 -99,3 -26,3 -76,1 -99,4 -30,5 -68,1 -99,5l-123 4c-11,0 -15,2 -24,2 -9,1 -18,0 -27,0 -11,0 -13,2 -24,2 -8,0 -16,0 -25,0 -10,0 -13,2 -24,2 -51,0 -100,6 -150,6l-75 2c-11,0 -13,2 -24,2 -34,0 -68,1 -100,3 -33,3 -68,0 -99,4 -31,4 -70,-1 -98,4 -22,3 -76,1 -99,4 -25,3 -51,2 -75,2l-73 4c-9,0 -18,0 -27,0l-73 4c-9,0 -17,-1 -26,-1 -11,0 -14,2 -24,2 -9,1 -17,0 -25,0 -11,0 -14,2 -24,2 -9,1 -18,0 -26,0l-74 4c-16,2 -35,-1 -51,1 -29,5 -70,-1 -100,3 -14,3 -34,0 -49,2 -14,3 -35,0 -50,3 -29,4 -70,0 -99,4 -19,3 -54,2 -75,2l-73 4c-8,1 -17,0 -26,0 -11,0 -13,2 -24,2 -64,0 -137,8 -199,8 -8,0 -17,-1 -25,0 -9,0 -13,2 -24,2l-75 1c-10,1 -13,3 -24,2 -61,0 -138,8 -197,8 -18,0 -32,2 -51,2 -11,0 -13,2 -23,2 -8,0 -17,0 -26,0l-50 2c-18,3 -54,4 -74,4 -11,-1 -15,1 -24,2 -8,0 -17,-1 -25,-1 -10,1 -13,2 -24,2 -59,0 -140,8 -199,8 -17,0 -31,2 -50,2 -11,0 -13,2 -23,2 -8,0 -18,-1 -26,0 -9,0 -13,2 -25,2l-48 2c-12,0 -16,1 -25,2 -8,0 -18,-1 -26,-1 -9,1 -13,3 -24,2l-74 4c-8,1 -17,0 -26,0l-295 15c-7,1 -17,0 -24,0 -17,0 -52,5 -75,4 -39,0 -83,6 -122,6 -11,0 -14,2 -24,2 -19,0 -32,2 -51,2l-169 9c-11,0 -16,1 -25,2l-48 2c-11,0 -17,1 -25,2 -8,1 -18,0 -26,0l-73 4c-10,0 -14,2 -25,2 -24,0 -53,4 -73,4 -26,-1 -47,3 -73,3l-244 16c-8,0 -17,-1 -25,0l-122 7c-11,0 -16,2 -24,2l-74 4c-11,0 -14,2 -24,2 -15,0 -36,2 -55,3 4,26 3,52 -2,77z"/>
 </g>
</svg>
