<svg xmlns="http://www.w3.org/2000/svg" xml:space="preserve" width="663.355mm" height="129.478mm" version="1.1" style="shape-rendering:geometricPrecision; text-rendering:geometricPrecision; image-rendering:optimizeQuality; fill-rule:evenodd; clip-rule:evenodd"
viewBox="0 0 15380 3002"
 xmlns:xlink="http://www.w3.org/1999/xlink">
 <defs>
  <style type="text/css">
   <![CDATA[
    .fil0 {fill:#2B2A29;fill-rule:nonzero}
   ]]>
  </style>
 </defs>
 <g id="Layer_x0020_1">
  <metadata id="CorelCorpID_0Corel-Layer"/>
  <path class="fil0" d="M1131 749c-3,109 -524,2149 -523,2164 3,65 82,89 119,87 31,-1 58,-22 75,-57 0,0 325,-1268 370,-1476 70,-311 512,-1008 810,-1024 96,-4 128,149 134,245 19,371 -240,1298 -593,1317 -68,4 -131,-68 -136,-170 -8,-155 63,-342 193,-451 12,-13 24,-29 23,-45 -1,-28 -25,-55 -68,-52 -179,9 -281,387 -273,539 10,192 128,313 367,300 443,-23 716,-913 694,-1334 -16,-295 -126,-456 -368,-443 -229,11 -509,414 -610,504 -10,0 -4,-13 -5,-25 3,-13 57,-211 94,-278 12,-23 17,-42 16,-60 -3,-53 -60,-84 -89,-98 -13,-9 -26,-11 -41,-10 -117,6 -443,613 -846,634 -161,9 -273,-69 -282,-234 -7,-123 119,-217 114,-307 -2,-40 -51,-90 -113,-87 -99,5 -193,171 -184,336 12,232 178,382 500,365 214,-12 400,-130 547,-290 18,-19 47,-49 75,-50z"/>
  <path id="1" class="fil0" d="M3149 1255c-8,-140 -74,-223 -189,-217 -247,13 -391,309 -670,1014 -6,13 -8,28 -17,41 -19,41 -44,49 -69,47 -31,-8 -64,-34 -83,-49 -26,-17 -56,4 -57,31 -2,78 69,84 107,100 29,11 39,26 31,54 -36,145 -66,228 -100,335 -6,22 -12,72 13,77 19,5 33,-17 39,-36 43,-123 77,-231 127,-352 20,-44 40,-70 86,-78 212,-36 215,-40 265,-30 26,5 39,26 37,51 -10,100 -98,200 -86,315 3,49 46,97 87,101 50,10 95,-8 118,-56 19,-38 33,-76 43,-117 285,-968 324,-1122 318,-1231zm-481 848c-71,7 -179,19 -250,19 -47,0 -67,-24 -51,-68 11,-38 348,-907 530,-916 71,-4 77,95 61,148 -82,281 -135,455 -213,733 -3,15 -8,28 -14,40 -14,29 -35,40 -63,44z"/>
  <path id="2" class="fil0" d="M3977 1587c43,-129 88,-340 43,-477 -26,-89 -96,-129 -190,-124 -105,6 -247,79 -339,273 -93,191 -334,738 -322,979 11,211 92,396 247,391 196,-4 322,-330 387,-514 11,-25 9,-59 -22,-64 -16,-2 -43,11 -54,50 -7,37 -156,402 -255,407 -90,5 -77,-232 -57,-314 111,-437 251,-783 370,-1007 20,-35 64,-84 107,-86 127,-7 57,314 33,433 -3,12 -9,25 -8,35 -2,15 -2,31 14,40 13,8 34,-3 46,-22z"/>
  <path id="3" class="fil0" d="M4543 1076c16,-63 -43,-113 -93,-119 -57,-13 -92,23 -117,75 -103,229 -386,1346 -385,1423 1,16 2,38 8,49 31,45 78,56 128,56 43,1 53,-40 67,-72 17,-38 56,-251 125,-398 9,-19 37,-20 53,-5 79,79 17,331 169,447 52,41 112,53 176,25 30,-11 44,-40 34,-64 -11,-24 -29,-23 -51,-22 -3,0 -6,0 -9,0 -169,34 -52,-323 -168,-407 -13,-11 -35,-20 -36,-32 6,-19 54,-37 102,-74 126,-90 260,-203 305,-348 93,-288 106,-453 230,-590 73,-85 -56,-124 -120,-87 -160,89 -235,435 -315,681 -78,234 -211,303 -275,322 -30,11 -53,-6 -52,-37 2,-16 5,-28 7,-44 84,-359 145,-442 217,-779z"/>
  <path id="4" class="fil0" d="M5903 1111c-8,-140 -74,-223 -189,-218 -248,14 -391,310 -671,1014 -5,13 -7,29 -16,42 -20,41 -44,48 -69,47 -31,-8 -64,-34 -83,-49 -26,-17 -56,3 -57,31 -3,78 69,83 107,100 29,11 39,26 31,54 -36,145 -66,228 -101,335 -5,22 -11,72 14,77 19,5 33,-17 39,-37 42,-123 77,-230 127,-351 19,-45 39,-70 85,-79 213,-36 216,-39 266,-29 26,5 39,26 37,51 -10,99 -98,200 -86,314 3,50 46,98 86,102 51,10 96,-9 118,-56 20,-38 34,-77 44,-117 285,-969 323,-1123 318,-1231zm-481 848c-71,7 -179,19 -250,19 -47,0 -67,-24 -51,-69 11,-37 347,-906 530,-916 71,-3 76,96 60,149 -81,281 -134,455 -213,732 -2,16 -7,29 -13,41 -14,29 -35,39 -63,44z"/>
  <path id="5" class="fil0" d="M6876 1087c-8,-170 -75,-254 -186,-247 -440,22 -729,789 -709,1176 13,258 53,473 331,458 186,-9 297,-208 346,-412 24,-67 29,-148 115,-152 13,-1 15,-20 15,-29 -1,-13 -5,-28 -20,-27 -100,2 -133,23 -273,21 -28,-2 -51,21 -50,39 1,22 23,30 51,29 15,-1 -28,1 -9,0 46,-2 36,32 28,73 -40,174 -61,376 -222,385 -99,5 -118,-230 -123,-329 -28,-542 339,-1118 522,-1127 46,-2 120,31 94,253 -7,50 -23,97 -39,145 -5,19 -8,34 -4,53 1,9 14,21 24,23 9,3 25,-1 30,-8 12,-6 21,-22 27,-35 30,-76 57,-199 52,-289z"/>
  <path id="6" class="fil0" d="M7235 1935c15,2 111,-5 124,-6 46,-6 63,-28 62,-47 -1,-22 -20,-39 -67,-37 -34,2 -49,3 -80,8 -71,3 -91,-21 -70,-90 96,-350 198,-610 255,-759 22,-57 30,-82 45,-95 15,-10 222,-37 237,-41 9,0 21,-13 21,-22 2,-10 -5,-25 -11,-31 -13,-9 -29,-17 -42,-17 -111,6 -219,12 -327,30 -43,6 -80,32 -96,73 -184,402 -250,628 -342,1052 -25,120 -25,359 90,424 70,40 142,40 226,35 12,-1 23,-23 26,-29 1,-34 -55,-41 -86,-49 -50,-6 -61,-39 -73,-85 -4,-19 -9,-41 -10,-62 6,-81 8,-100 28,-179 14,-44 40,-70 90,-73z"/>
  <path id="7" class="fil0" d="M9644 11c-193,10 -299,170 -289,366 14,254 171,643 190,1015 31,597 -221,1176 -797,1206 -387,20 -613,-371 -631,-728 -36,-675 335,-1076 669,-1094 105,-5 199,64 214,340 15,301 -109,770 -399,934 -21,11 -51,25 -50,53 1,12 11,24 24,26 18,5 37,10 56,10 353,-19 603,-576 583,-972 -16,-307 -179,-497 -464,-482 -254,13 -771,342 -729,1144 23,433 259,846 758,821 666,-36 1021,-653 990,-1255 -31,-588 -226,-867 -239,-1120 -7,-137 57,-208 141,-213 68,-4 112,69 117,156 6,120 -49,136 -45,207 2,34 25,67 94,63 67,-4 99,-101 94,-207 -7,-136 -86,-281 -287,-270z"/>
  <path id="8" class="fil0" d="M10230 1778c16,2 112,-5 124,-6 46,-6 64,-28 63,-47 -1,-22 -21,-39 -67,-37 -35,2 -50,3 -81,8 -71,3 -91,-21 -70,-90 97,-350 198,-610 256,-759 22,-57 30,-82 44,-95 15,-10 222,-37 237,-41 10,0 21,-13 21,-22 3,-10 -5,-25 -11,-31 -13,-9 -29,-17 -41,-17 -112,6 -220,12 -328,30 -43,6 -79,32 -96,73 -183,402 -249,629 -342,1052 -25,120 -25,359 91,424 70,40 142,40 225,35 12,-1 24,-23 26,-29 2,-34 -54,-41 -86,-49 -50,-6 -61,-39 -73,-85 -4,-19 -8,-41 -9,-62 5,-81 7,-100 28,-179 13,-44 40,-70 89,-73z"/>
  <path id="9" class="fil0" d="M10804 1761c83,-5 126,43 158,106 76,161 73,279 247,338 38,14 90,2 103,-43 8,-31 -33,-47 -65,-61 -32,-17 -55,-44 -63,-81 -38,-187 -87,-241 -129,-270 -29,-20 -12,-42 6,-55 12,-11 27,-14 39,-25 265,-113 474,-438 460,-704 -18,-350 -264,-362 -558,-346 -75,-3 -117,22 -145,91 0,0 -268,1036 -348,1298 -26,85 -22,228 71,223 84,-4 96,-70 117,-146 28,-107 41,-154 70,-264 5,-22 19,-60 37,-61zm572 -875c15,279 -152,716 -514,735 -22,1 -29,-11 -29,-27 -3,-49 141,-507 207,-772 26,-106 44,-119 112,-123 152,-8 224,75 224,187z"/>
  <path id="10" class="fil0" d="M11885 1831c-15,1 -19,-20 -13,-64 5,-38 130,-970 107,-1112 -6,-52 -38,-84 -100,-81 -72,3 -91,42 -100,114 -38,340 -109,1123 -121,1245 -2,28 -7,54 -8,81 -4,110 86,167 123,168 13,-1 25,-5 37,-18 56,-49 771,-1453 791,-1492 11,-25 22,-53 27,-85 5,-15 1,-34 -15,-45 -19,-12 -37,-1 -49,15 -17,22 -35,48 -49,74 -271,511 -591,1158 -591,1158 -12,25 -26,41 -39,42z"/>
  <path id="11" class="fil0" d="M12935 522c-53,2 -77,19 -93,57 -17,38 -423,1305 -440,1436 -14,94 53,128 127,124 46,-2 71,-66 85,-110 0,0 445,-1396 445,-1396 23,-85 -53,-115 -124,-111z"/>
  <path id="12" class="fil0" d="M13867 1069c43,-130 88,-340 44,-478 -27,-88 -97,-128 -190,-123 -105,5 -248,78 -340,272 -92,191 -333,738 -321,980 11,211 92,396 247,391 195,-4 322,-331 386,-514 12,-26 10,-60 -22,-64 -16,-2 -42,11 -53,49 -8,38 -156,403 -255,408 -90,4 -78,-232 -57,-314 111,-437 251,-783 370,-1007 20,-35 64,-84 107,-86 127,-7 57,313 32,433 -2,12 -8,25 -8,34 -2,16 -1,31 15,40 13,8 34,-2 45,-21z"/>
  <path id="13" class="fil0" d="M14226 1569c16,2 112,-6 124,-7 46,-5 64,-28 63,-46 -1,-22 -21,-40 -68,-37 -34,2 -49,3 -80,7 -71,4 -91,-20 -70,-89 97,-350 198,-610 255,-759 23,-57 30,-82 45,-96 15,-10 222,-36 237,-40 9,-1 21,-14 21,-23 2,-9 -5,-25 -11,-30 -13,-9 -29,-17 -41,-17 -112,6 -220,11 -328,30 -43,5 -79,32 -96,73 -183,401 -249,628 -342,1052 -25,119 -25,359 90,424 71,40 143,39 226,35 12,-1 24,-23 26,-29 2,-35 -55,-41 -86,-49 -50,-6 -61,-40 -73,-86 -4,-18 -8,-40 -9,-62 5,-80 7,-100 28,-178 13,-44 39,-71 89,-73z"/>
  <path id="14" class="fil0" d="M14981 921c-12,-233 101,-447 206,-452 72,-4 109,59 112,131 5,83 -31,175 -65,220 -24,26 -41,61 -12,85 23,20 51,6 71,-13 67,-85 87,-185 81,-300 -7,-126 -109,-236 -214,-231 -235,13 -410,236 -394,549 18,344 173,519 172,724 -1,106 -50,307 -149,312 -95,6 -207,-163 -166,-326 2,-16 11,-35 10,-51 0,-12 -14,-27 -26,-33 -7,-5 -23,-2 -31,2 -28,11 -39,36 -44,65 -18,69 -24,138 -11,212 25,113 154,255 361,245 118,-7 273,-139 287,-345 22,-349 -183,-466 -188,-794z"/>
 </g>
</svg>
