<?xml version="1.0" encoding="UTF-8"?>
<!DOCTYPE svg PUBLIC "-//W3C//DTD SVG 1.1//EN" "http://www.w3.org/Graphics/SVG/1.1/DTD/svg11.dtd">
<!-- Creator: CorelDRAW X7 -->
<svg xmlns="http://www.w3.org/2000/svg" xml:space="preserve" width="459.317mm" height="128.175mm" version="1.1" style="shape-rendering:geometricPrecision; text-rendering:geometricPrecision; image-rendering:optimizeQuality; fill-rule:evenodd; clip-rule:evenodd"
viewBox="0 0 7951 2219"
 xmlns:xlink="http://www.w3.org/1999/xlink">
 <defs>
  <style type="text/css">
   <![CDATA[
    .fil1 {fill:#2B2A29}
    .fil0 {fill:#2B2A29;fill-rule:nonzero}
   ]]>
  </style>
 </defs>
 <g id="Layer_x0020_1">
  <metadata id="CorelCorpID_0Corel-Layer"/>
  <path class="fil0" d="M1228 516c-3,82 -391,1605 -391,1616 3,49 62,66 89,65 24,-1 44,-16 56,-42 0,0 243,-947 276,-1102 53,-233 383,-753 605,-765 72,-3 96,111 100,183 15,277 -179,969 -442,983 -51,3 -98,-50 -102,-127 -6,-116 47,-255 144,-337 9,-9 18,-21 17,-33 -1,-21 -18,-41 -51,-39 -134,7 -209,289 -203,403 7,143 95,233 274,224 330,-17 534,-682 518,-996 -12,-220 -94,-341 -275,-332 -171,9 -380,310 -456,377 -7,0 -2,-9 -3,-19 2,-9 43,-157 70,-207 9,-17 13,-31 12,-45 -2,-40 -45,-63 -67,-73 -9,-7 -19,-8 -30,-8 -88,5 -331,458 -632,474 -120,6 -204,-52 -210,-175 -5,-92 88,-162 85,-229 -2,-30 -38,-68 -85,-65 -74,4 -144,128 -137,251 9,173 133,285 374,272 159,-8 298,-97 408,-216 13,-15 35,-37 56,-38z"/>
  <path id="1" class="fil0" d="M2171 1601c62,-3 94,32 118,79 57,121 54,209 185,253 28,10 67,1 76,-32 6,-24 -24,-36 -48,-46 -24,-13 -42,-33 -47,-60 -29,-140 -66,-180 -97,-202 -21,-15 -8,-32 5,-41 9,-8 20,-11 29,-19 197,-84 354,-327 344,-525 -14,-262 -198,-271 -418,-259 -55,-2 -87,16 -107,68 0,0 -201,774 -260,969 -20,64 -17,170 53,167 62,-3 71,-52 87,-109 21,-80 31,-115 52,-197 4,-17 14,-45 28,-46zm427 -653c11,208 -114,534 -384,549 -16,1 -21,-9 -22,-20 -2,-37 106,-379 155,-577 19,-79 33,-89 84,-92 113,-6 167,56 167,140z"/>
  <path id="2" class="fil0" d="M3066 712c-39,2 -58,15 -70,43 -12,29 -315,974 -328,1072 -11,71 39,96 94,93 35,-2 54,-49 64,-82 0,0 332,-1043 332,-1043 18,-63 -39,-86 -92,-83z"/>
  <path id="3" class="fil0" d="M3762 1121c32,-97 66,-254 32,-357 -19,-66 -72,-95 -141,-92 -79,4 -185,59 -254,203 -69,143 -249,552 -240,732 8,157 69,296 185,292 146,-3 240,-247 288,-384 8,-19 7,-44 -16,-48 -12,-1 -32,9 -40,37 -6,28 -117,301 -191,304 -67,4 -58,-173 -42,-234 82,-326 187,-585 276,-752 15,-26 48,-62 80,-64 95,-5 43,234 24,323 -2,9 -6,19 -6,26 -1,12 -1,23 11,30 10,6 26,-2 34,-16z"/>
  <path id="4" class="fil0" d="M4030 1494c11,2 83,-4 92,-5 35,-4 48,-21 47,-35 -1,-16 -15,-29 -50,-27 -26,1 -37,2 -60,5 -53,3 -68,-15 -52,-66 72,-262 147,-456 190,-567 17,-42 23,-61 34,-71 11,-8 166,-27 177,-31 7,0 16,-10 15,-17 2,-6 -3,-18 -8,-22 -10,-7 -22,-13 -31,-13 -83,5 -164,9 -245,22 -32,5 -59,24 -71,55 -137,300 -186,469 -256,786 -18,89 -18,268 68,316 53,30 106,30 168,26 10,0 18,-17 20,-22 1,-25 -41,-30 -64,-36 -37,-4 -46,-30 -55,-64 -3,-14 -6,-30 -7,-46 4,-60 6,-75 21,-133 10,-33 30,-53 67,-55z"/>
  <path id="5" class="fil0" d="M6089 204c-7,-130 -57,-204 -164,-198 -164,8 -261,194 -350,398 -112,252 -151,474 -211,477 -121,7 -316,-189 -329,-434 -14,-269 173,-362 173,-362 -1,-32 -54,-62 -93,-60 -142,8 -220,227 -213,375 16,289 274,531 424,560 19,4 28,13 29,29 3,46 -143,529 -169,568 -7,9 -16,14 -25,15 -5,0 -9,0 -14,-2 -19,-6 -131,-69 -265,-62 -155,8 -255,101 -244,298 5,97 89,201 212,195 228,-12 327,-166 404,-251 9,-7 18,-12 27,-13 7,0 14,2 21,6 112,54 365,370 650,356 152,-9 352,-91 344,-244 -4,-71 -70,-98 -91,-97 0,0 -32,234 -284,247 -203,11 -480,-313 -602,-374 0,-10 2,-19 6,-31 180,-582 139,-622 248,-627 210,-11 536,-383 516,-769zm-536 665c4,-100 290,-796 392,-802 11,0 26,6 31,17 69,120 -76,772 -393,789 -9,0 -18,-2 -30,-4zm-640 709c28,-2 56,1 84,12 130,48 142,57 144,78 3,67 -115,282 -315,292 -27,2 -134,-37 -141,-185 -6,-111 117,-191 228,-197z"/>
  <path id="6" class="fil0" d="M6225 547c-39,2 -57,14 -70,43 -12,28 -315,974 -328,1072 -11,70 40,95 95,93 35,-2 53,-50 63,-83 0,0 333,-1042 333,-1042 17,-64 -40,-86 -93,-83z"/>
  <path id="7" class="fil0" d="M6627 904c-9,-174 75,-334 154,-338 53,-2 81,45 83,98 4,62 -23,131 -49,165 -17,19 -30,45 -8,63 17,15 37,5 53,-10 50,-63 64,-138 60,-223 -5,-95 -81,-177 -160,-173 -176,9 -306,176 -294,410 13,257 129,387 128,540 0,79 -37,230 -111,233 -71,4 -154,-122 -124,-243 2,-12 8,-26 8,-38 -1,-9 -11,-20 -20,-25 -5,-4 -17,-1 -23,2 -21,8 -29,27 -33,48 -13,51 -17,103 -8,158 19,85 115,191 270,183 88,-5 203,-103 214,-257 16,-261 -137,-348 -140,-593z"/>
  <path id="8" class="fil0" d="M7175 569c44,0 85,-12 31,139 0,0 -204,684 -275,915 -16,52 18,73 60,71 41,-2 72,-36 82,-65 10,-28 20,-54 28,-83 155,-585 221,-769 245,-847 12,-36 24,-71 39,-109 10,-26 30,-41 58,-44 25,-4 48,-5 74,-7 11,-3 23,-1 34,-6 7,-3 15,-13 15,-19 2,-10 -3,-19 -10,-23 -10,-4 -19,-8 -31,-8 -25,2 -53,3 -81,7 0,0 -376,33 -376,33 -7,1 -16,3 -18,8 -4,7 -6,17 -1,23 3,7 12,11 21,11 35,3 70,3 105,4z"/>
  <path class="fil1" d="M0 2217l46 2c7,0 9,-1 16,-1 5,0 10,0 15,0l94 -5c5,0 11,1 17,1 14,-1 31,-3 46,-3 7,0 10,-1 15,-1 22,-1 42,-2 63,-2l109 -6c15,-1 32,1 46,-2l95 -4c7,1 9,-1 14,-1 6,0 11,1 17,0 5,0 8,-1 15,-1l31 -1c11,0 33,-3 48,-2l35 -2c-2,-14 -3,-28 -1,-43 -5,1 -6,2 -11,2l-48 2c-7,0 -9,1 -14,1l-32 1c-7,0 -9,2 -16,2 -25,-1 -52,3 -77,3 -11,0 -33,3 -48,2l-46 3c-13,-1 -31,2 -46,2 -7,0 -9,1 -16,1l-31 1c-6,0 -8,2 -15,2 -7,-1 -11,-1 -16,0l-78 4c-13,0 -44,7 -58,9 -19,3 -39,7 -57,11 -37,6 -76,13 -112,25zm1066 -44c2,0 5,-1 8,-1 5,0 11,1 17,0l31 -2c5,0 10,1 15,0 5,0 9,-1 16,-1 7,0 10,-1 15,-1 5,-1 11,0 17,0 8,-1 21,-2 30,-3 5,0 11,1 16,1l46 -3c7,0 9,-1 16,-1 6,0 10,0 16,-1l93 -3c7,0 10,-1 16,-2 5,0 11,1 16,1l47 -3c6,0 8,-1 15,-1 26,1 52,-4 77,-3l173 -8c6,0 8,-2 14,-2 5,0 11,1 16,1l47 -3c7,0 8,-1 15,-1 12,0 20,-1 32,-1 7,0 9,-1 15,-1l32 -1c7,0 9,-2 15,-2l63 -2c5,-1 8,-1 14,-1l31 -1c6,-1 9,-2 16,-1 6,0 10,-1 14,-1l63 -3c7,0 9,-1 16,-1 5,0 11,1 16,0l47 -2c7,0 9,-1 15,-1 5,0 11,0 16,0l62 -4c7,0 10,0 15,-1 5,-1 11,1 16,0l31 -2c5,-1 11,0 16,0l77 -5c5,0 11,0 17,0 14,0 30,-2 46,-2 7,0 8,-2 15,-1 21,0 42,-3 63,-2 11,0 32,-3 47,-3l62 -3c5,-1 11,0 16,0 6,0 8,-2 15,-1 12,0 20,-1 31,-1l94 -5c7,0 9,-1 15,-1 5,-1 11,0 16,0l47 -2c7,0 9,-2 15,-2 5,0 11,1 17,1 6,0 8,-2 15,-2 21,1 41,-2 62,-2l62 -3c5,-1 10,0 15,0l156 -8c5,-1 11,0 16,0l78 -3c7,0 8,-2 15,-2 22,0 41,-2 63,-2 7,0 9,-1 15,-1l64 -2c11,0 31,-3 46,-3l62 -3c5,-1 11,0 16,0l108 -6c6,0 12,0 17,0 6,0 8,-1 15,-1 26,1 53,-2 78,-3 5,-1 11,0 16,0 6,0 9,-1 16,-1l31 -1c7,0 8,-2 15,-2l47 -2c5,0 11,1 16,0l45 -2c7,0 9,-2 16,-1 11,0 20,-1 32,-1 6,0 8,-2 14,-2l32 -1c7,1 10,-1 16,-1 5,0 10,0 15,0 15,0 32,-2 48,-2l62 -2c16,-2 32,-2 47,-2 15,-1 31,-3 46,-3l62 -3c12,0 21,-2 32,-1l46 -3c8,0 10,-1 16,-1 5,0 10,1 15,0l1 0c-17,-21 -33,-43 -45,-68 -5,0 -9,0 -14,0 -7,0 -8,2 -14,2 -6,0 -12,-1 -17,-1 -5,1 -8,2 -15,2l-31 1c-7,0 -10,1 -16,1 -5,0 -11,0 -16,0 -6,0 -9,1 -16,1l-46 2c-6,1 -11,0 -17,0l-186 9c-5,1 -11,0 -16,0 -10,0 -33,3 -47,3 -25,-1 -53,3 -78,3 -6,0 -8,1 -15,1 -12,0 -20,1 -32,1l-107 6c-7,0 -10,1 -16,1l-31 2c-6,-1 -10,0 -15,1 -5,0 -11,-1 -17,0l-46 2c-6,0 -8,1 -15,1 -16,0 -34,3 -47,2 -16,0 -30,3 -46,3l-155 10c-5,0 -10,-1 -15,0l-78 4c-7,0 -9,1 -15,2l-46 2c-7,0 -9,1 -16,1 -17,0 -45,4 -62,4l-45 3c-10,2 -21,1 -32,2l-123 9c-10,1 -20,-1 -30,1l-153 12c-8,1 -20,1 -30,2l-122 9c-6,0 -12,-1 -17,-1l-77 5c-12,0 -20,1 -31,1l-47 2c-7,0 -9,2 -15,2 -12,0 -20,1 -32,1 -7,0 -9,1 -14,1 -16,1 -33,-1 -48,2l-94 4c-5,1 -8,1 -15,1l-93 5c-11,-1 -32,2 -47,2l-31 2c-5,1 -10,0 -16,0 -11,0 -31,3 -46,2 -7,0 -10,2 -16,2 -5,0 -11,-1 -16,-1 -14,1 -32,3 -47,3l-60 3c-6,1 -12,0 -17,0 -8,1 -21,2 -30,3l-32 1c-6,0 -9,1 -14,1l-32 1c-13,0 -31,3 -46,2 -8,0 -9,2 -16,2l-141 6c-8,1 -22,1 -30,2l-32 1c-7,0 -9,1 -14,1 -6,1 -12,0 -17,0l-94 5c-29,4 -61,3 -92,6l-32 1c-6,0 -8,1 -14,1 -5,0 -11,-1 -16,0 -5,1 -9,1 -16,1 -7,0 -9,1 -15,1 -53,2 -105,6 -157,9 3,15 4,29 3,44zm5442 -260l58 -3c15,0 49,-4 62,-4 13,1 46,-3 62,-3l217 -14c20,1 41,-4 61,-3l62 -4c30,-4 62,-4 92,-6l291 -20c8,0 10,-1 16,-1 31,-2 62,-2 93,-6l398 -29c9,-2 22,-2 31,-2l0 -1c-11,-1 -19,1 -30,1 -7,-1 -9,1 -15,1 -5,0 -11,-1 -16,0l-47 2c-6,0 -8,2 -15,1 -16,0 -34,3 -47,3 -14,-1 -46,2 -61,3l-31 1c-7,0 -10,2 -16,2 -12,0 -20,1 -32,1l-108 6c-5,0 -11,-1 -17,-1 -25,2 -51,4 -77,4 -7,0 -8,1 -15,1l-47 2c-5,1 -11,0 -16,0 -6,0 -9,2 -16,1l-31 1c-10,0 -32,3 -47,3 -11,-1 -19,1 -31,1l-62 3c-5,1 -11,0 -16,0 -6,0 -9,2 -16,1 -41,-1 -84,5 -126,4 -6,0 -8,2 -14,2 -5,0 -11,-1 -17,-1 -6,0 -8,2 -15,2 -31,-1 -62,4 -93,3 -7,0 -9,1 -15,1 -6,0 -11,0 -17,0 -6,0 -8,1 -15,1 -32,-1 -62,4 -94,3 -7,0 -9,2 -16,2l-79 2c-19,4 -43,-1 -63,2 -19,2 -42,0 -63,2 -2,0 -5,0 -8,0 1,12 2,24 1,36z"/>
 </g>
</svg>
