<svg xmlns="http://www.w3.org/2000/svg" xml:space="preserve" version="1.1"
    style="shape-rendering:geometricPrecision; text-rendering:geometricPrecision; image-rendering:optimizeQuality; fill-rule:evenodd; clip-rule:evenodd"
    viewBox="0 0 5857 1736" xmlns:xlink="http://www.w3.org/1999/xlink">
    <g id="Layer_x0020_1">
        <path 
            d="M1607 7c-124,6 -194,111 -187,238 9,164 111,417 123,658 21,388 -143,764 -517,783 -251,13 -398,-241 -410,-472 -23,-438 218,-699 435,-710 68,-4 129,41 138,220 10,195 -70,500 -258,606 -14,7 -34,16 -33,35 1,8 7,15 16,17 12,3 24,6 36,6 229,-12 392,-373 378,-631 -10,-199 -115,-322 -300,-312 -165,8 -501,221 -473,742 14,281 167,549 491,533 432,-23 663,-424 643,-814 -20,-382 -147,-563 -155,-728 -5,-88 37,-135 91,-138 44,-2 73,45 76,101 4,78 -32,89 -29,135 1,22 16,43 61,41 44,-3 64,-66 61,-134 -5,-89 -56,-183 -187,-176z" />
        <path id="1" 
            d="M1988 1154c10,1 73,-4 81,-4 29,-4 41,-18 40,-30 -1,-15 -13,-26 -43,-24 -23,1 -33,1 -52,4 -47,3 -60,-13 -46,-58 63,-227 128,-396 166,-492 14,-37 19,-53 29,-62 10,-7 144,-24 154,-26 6,-1 13,-9 13,-15 2,-6 -3,-16 -7,-20 -9,-6 -19,-11 -27,-11 -72,4 -143,8 -213,19 -28,4 -51,21 -62,48 -119,260 -162,408 -222,683 -16,77 -16,233 59,275 45,26 92,26 146,23 8,-1 16,-15 17,-19 1,-22 -35,-27 -56,-32 -32,-4 -39,-26 -47,-56 -2,-12 -5,-26 -6,-40 3,-52 5,-65 18,-116 9,-28 26,-45 58,-47z" />
        <path id="2" 
            d="M2360 1143c55,-3 82,28 103,69 50,104 48,181 161,219 24,9 58,1 66,-28 5,-20 -21,-30 -42,-39 -21,-12 -36,-29 -41,-53 -24,-122 -57,-156 -84,-175 -19,-13 -7,-28 4,-36 8,-7 18,-9 26,-16 171,-73 307,-284 298,-457 -12,-227 -171,-235 -362,-225 -49,-1 -76,14 -94,60 0,0 -174,672 -226,842 -17,55 -14,148 46,145 54,-3 62,-46 76,-95 18,-70 27,-100 45,-172 3,-14 12,-39 24,-39zm372 -568c9,181 -99,465 -334,477 -14,1 -19,-7 -19,-17 -2,-32 92,-329 135,-501 16,-69 28,-78 72,-80 99,-6 146,48 146,121z" />
        <path id="3" 
            d="M3062 1189c-10,0 -12,-14 -8,-42 3,-25 84,-630 69,-722 -4,-34 -25,-55 -65,-53 -46,3 -59,28 -65,74 -25,221 -70,730 -78,809 -1,18 -5,34 -6,52 -2,71 56,108 80,109 9,0 17,-3 24,-11 37,-33 501,-944 514,-969 7,-16 14,-35 17,-55 3,-10 1,-22 -10,-30 -12,-7 -24,0 -31,10 -12,15 -23,31 -32,48 -176,332 -384,752 -384,752 -7,17 -17,27 -25,28z" />
        <path id="4" 
            d="M3744 339c-35,1 -50,12 -61,37 -11,25 -274,847 -286,932 -9,61 35,83 83,80 30,-1 46,-43 55,-71 0,0 289,-906 289,-906 15,-55 -34,-75 -80,-72z" />
        <path id="5" 
            d="M4349 694c27,-84 57,-221 28,-310 -17,-58 -63,-83 -123,-80 -69,3 -161,51 -221,176 -60,125 -217,480 -208,636 7,137 59,257 160,254 127,-3 209,-215 251,-334 7,-16 6,-38 -15,-41 -10,-2 -27,7 -34,32 -5,24 -101,261 -166,264 -58,3 -50,-150 -37,-203 72,-284 163,-509 240,-654 13,-23 42,-54 70,-56 82,-4 37,204 21,281 -2,8 -6,17 -5,23 -2,10 -1,20 9,26 8,5 22,-2 30,-14z" />
        <path id="6" 
            d="M4581 1018c10,2 73,-3 81,-4 30,-3 41,-18 41,-30 -1,-14 -14,-26 -44,-24 -22,1 -32,2 -52,5 -46,2 -60,-14 -46,-59 63,-227 129,-395 166,-492 14,-37 19,-53 29,-62 10,-6 144,-24 154,-26 6,-1 14,-9 13,-15 2,-6 -3,-16 -7,-20 -8,-6 -19,-11 -27,-11 -72,4 -142,8 -212,20 -28,3 -52,20 -62,47 -120,261 -162,408 -223,683 -16,77 -16,233 59,275 46,26 92,26 146,23 9,-1 16,-15 18,-19 1,-22 -36,-27 -56,-32 -33,-4 -40,-26 -48,-55 -2,-13 -5,-27 -6,-41 4,-52 5,-64 18,-115 9,-29 26,-46 58,-48z" />
        <path id="7" 
            d="M5071 598c-7,-151 66,-290 134,-294 47,-2 71,39 73,85 3,54 -20,114 -43,143 -15,17 -26,40 -7,55 15,14 33,4 46,-8 44,-55 56,-120 52,-195 -4,-82 -70,-153 -139,-150 -152,9 -266,153 -255,357 11,223 112,336 111,470 0,68 -32,199 -96,202 -62,4 -135,-106 -108,-212 1,-10 7,-22 7,-32 -1,-8 -10,-18 -18,-22 -4,-4 -14,-1 -20,1 -18,7 -25,24 -28,42 -12,45 -15,90 -7,138 16,73 100,166 234,159 77,-4 177,-90 186,-224 15,-226 -119,-302 -122,-515z" />
        <path 
            d="M0 1665l34 2c5,1 7,-1 11,-1 4,0 8,1 12,1l69 -4c4,0 8,1 12,1 10,0 24,-2 34,-2 6,0 7,-1 12,-1 16,0 30,-1 46,-1l80 -5c11,0 23,1 34,-1l70 -2c5,0 7,-1 10,-1 4,-1 9,0 13,0 4,0 6,-1 11,-1l23 -1c8,0 24,-2 35,-1l34 -2c5,0 7,-1 11,-1 14,-1 26,-1 39,-1 -6,-12 -11,-24 -16,-37 -13,1 -28,2 -40,2 -5,0 -6,1 -11,1l-35 2c-5,0 -7,1 -10,1l-24 0c-5,0 -6,2 -11,2 -19,-1 -39,3 -57,2 -8,0 -24,2 -35,2l-35 1c-9,0 -22,2 -34,2 -5,0 -6,1 -11,1l-23 1c-5,0 -6,1 -11,1 -5,0 -8,0 -12,0l-57 3c-10,0 -33,5 -43,7 -14,3 -29,6 -42,9 -28,6 -56,11 -83,21zm1560 -65l11 -1c5,0 7,-1 12,-1 3,0 8,1 12,1l34 -2c5,0 7,-1 11,-1 4,0 9,1 12,0l46 -2c5,0 7,-1 11,-1 4,-1 8,0 12,0l23 -2c3,0 7,0 11,0l57 -3c4,-1 8,0 12,0 11,0 23,-2 34,-2 5,0 7,-1 12,-1 15,0 31,-2 46,-1 8,0 24,-2 34,-2l46 -2c4,-1 8,0 12,0 4,0 6,-2 11,-1 8,0 14,-1 23,-1l69 -3c5,0 7,-1 11,-1 4,-1 8,0 12,0l34 -2c5,1 7,-1 12,-1 4,0 8,1 12,1 4,0 6,-2 11,-1 16,0 30,-2 46,-2l45 -2c4,-1 8,0 12,0l114 -6c4,0 9,0 12,0l57 -2c5,0 7,-1 12,-1 16,0 30,-2 46,-1 5,0 7,-2 11,-2l47 -1c8,0 23,-2 34,-2l46 -2c4,-1 8,0 12,0l79 -4c4,-1 9,0 13,0 4,0 6,-1 11,-1 19,1 39,-1 57,-2 4,-1 8,0 12,0 4,0 6,-1 12,-1l22 -1c5,1 7,-1 12,-1l34 -1c4,-1 8,0 12,0l33 -2c5,0 7,-1 12,-1 8,1 15,0 23,0 5,0 6,-2 11,-1l24 -1c5,0 7,-1 11,-1 4,0 8,0 11,0 11,0 24,-2 35,-1l47 -2c11,-2 23,-1 34,-1 11,-1 23,-2 34,-2l45 -3c9,0 16,-1 24,0l34 -2c5,0 8,-1 12,-1 3,0 7,0 11,0l35 -2c5,1 6,-1 11,-1 4,0 8,1 12,1l23 -2c3,0 7,0 11,0 5,0 7,-1 11,-1 4,0 9,1 12,0l23 -1c5,-1 25,-1 35,-2l148 -7c5,0 7,-1 12,-1 15,1 30,-2 45,-1l34 -2c10,1 25,-2 35,-1l114 -7c19,1 39,-2 58,-2 8,0 24,-2 34,-2l24 0c6,-1 15,-2 22,-2l57 -3c5,1 7,-1 12,-1 14,1 31,-1 45,-2l57 -3c5,0 7,-1 12,-1l46 -1c9,-2 29,-1 34,-2l81 -5c10,-2 23,0 33,-2l113 -6c4,-1 8,0 12,0 7,0 17,-2 23,-2 16,-1 31,-1 46,-3l80 -4c9,0 36,-3 45,-3 11,1 22,-2 34,-1l46 -3c10,0 36,-3 45,-3 9,0 34,-3 46,-3l159 -10c16,1 31,-3 46,-2l45 -3c23,-4 46,-4 68,-5l215 -15c5,0 7,-1 11,-1 23,-2 46,-1 69,-5l293 -22c7,-1 16,-1 23,-1l0 -1c-8,-1 -14,1 -22,0 -5,0 -7,1 -11,1 -4,0 -8,0 -12,0l-34 2c-5,0 -6,1 -12,1 -11,-1 -24,2 -34,1 -11,0 -34,2 -45,3l-23 1c-5,-1 -7,1 -12,1 -8,0 -15,1 -23,0l-80 5c-4,0 -8,-1 -12,-1 -19,2 -38,3 -57,3 -5,0 -6,1 -11,1l-35 1c-3,1 -8,0 -12,0 -4,0 -6,1 -11,1l-23 1c-8,0 -24,2 -35,1 -8,0 -14,1 -23,1l-45 3c-4,0 -8,-1 -12,-1 -5,1 -6,2 -12,2 -30,-2 -62,3 -92,2 -5,0 -7,1 -11,1 -4,0 -8,0 -12,0 -5,0 -6,1 -12,1 -22,-1 -45,3 -68,2 -5,0 -7,1 -11,1 -4,0 -8,-1 -12,0 -5,0 -7,1 -12,1 -23,-1 -45,2 -69,2 -5,-1 -6,1 -11,1l-58 1c-14,3 -33,-1 -47,1 -15,2 -31,0 -46,1 -13,2 -36,0 -47,2 -14,3 -31,-1 -46,2l-57 1c-5,0 -7,1 -11,1 -4,0 -9,0 -13,0 -5,0 -6,1 -11,1 -4,0 -8,0 -11,0 -5,0 -7,1 -12,1 -24,-1 -47,2 -70,2l-35 0c-5,0 -6,1 -11,1 -16,0 -32,0 -46,1 -16,2 -32,-1 -47,1 -14,3 -32,-1 -45,2 -11,2 -36,-1 -47,1 -11,2 -23,1 -35,1l-34 1c-4,0 -8,0 -12,0l-34 2c-4,0 -8,-1 -12,-1 -5,0 -7,2 -12,1 -3,0 -7,0 -11,0 -5,0 -7,1 -11,1 -4,0 -9,0 -13,0l-34 1c-7,1 -16,-1 -24,0 -13,3 -32,-1 -46,1 -7,2 -16,0 -23,1 -7,1 -16,-1 -23,1 -14,3 -33,-1 -47,2 -8,1 -25,1 -34,0l-34 2c-4,0 -9,0 -13,0 -5,-1 -6,1 -11,1 -29,-1 -64,3 -93,2 -3,0 -7,0 -11,0 -4,0 -6,1 -11,1l-35 0c-5,0 -7,2 -12,1 -28,-1 -64,4 -92,3 -8,0 -14,1 -23,1 -5,0 -6,1 -11,1 -4,0 -8,-1 -12,-1l-23 1c-9,2 -26,2 -35,2 -5,-1 -7,1 -11,1 -4,0 -8,-1 -11,-1 -5,0 -7,2 -12,1 -27,-1 -65,4 -93,3 -8,0 -14,1 -23,1 -5,0 -6,1 -11,1 -4,0 -8,-1 -12,-1 -4,1 -6,2 -11,1l-23 1c-5,0 -7,1 -11,1 -4,0 -9,0 -13,0 -4,0 -6,1 -11,1l-34 1c-4,1 -8,0 -12,0l-138 7c-3,0 -8,0 -11,-1 -8,0 -24,3 -35,2 -18,-1 -39,3 -57,3 -5,-1 -6,1 -11,1 -9,-1 -15,0 -24,0l-79 5c-5,-1 -7,0 -11,1l-23 0c-5,0 -8,1 -12,1 -3,1 -8,0 -12,0l-34 2c-5,0 -6,1 -11,1 -12,-1 -25,2 -34,1 -13,0 -22,2 -35,2l-114 7c-3,1 -7,0 -11,0l-57 4c-5,0 -7,1 -11,1l-34 2c-6,-1 -7,1 -12,1 -13,0 -33,3 -45,2l-34 3c-7,2 -16,0 -23,1l-91 7c-7,1 -15,-1 -22,1l-113 9c-6,1 -15,1 -22,1l-90 7c-4,0 -8,-1 -12,0l-57 4c-9,0 -15,1 -23,0l-34 2c-5,0 -7,1 -12,1 -8,0 -14,1 -23,1 -5,-1 -7,1 -11,1 -11,0 -24,-1 -35,1l-69 3c-4,0 -6,1 -11,0l-69 4c-8,-1 -23,2 -35,1l-19 2c-1,14 -3,28 -6,42z" />
    </g>
</svg>