<?xml version="1.0" encoding="UTF-8"?>
<!DOCTYPE svg PUBLIC "-//W3C//DTD SVG 1.1//EN" "http://www.w3.org/Graphics/SVG/1.1/DTD/svg11.dtd">
<!-- Creator: CorelDRAW X7 -->
<svg xmlns="http://www.w3.org/2000/svg" xml:space="preserve" width="329.677mm" height="115.403mm" version="1.1" style="shape-rendering:geometricPrecision; text-rendering:geometricPrecision; image-rendering:optimizeQuality; fill-rule:evenodd; clip-rule:evenodd"
viewBox="0 0 4318 1512"
 xmlns:xlink="http://www.w3.org/1999/xlink">
 <defs>
  <style type="text/css">
   <![CDATA[
    .fil0 {fill:#2B2A29;fill-rule:nonzero}
   ]]>
  </style>
 </defs>
 <g id="Layer_x0020_1">
  <metadata id="CorelCorpID_0Corel-Layer"/>
  <path class="fil0" d="M940 6c-108,6 -168,97 -163,207 8,143 97,363 108,573 17,338 -125,665 -451,682 -218,11 -346,-210 -356,-411 -20,-382 189,-609 378,-619 59,-3 112,37 120,193 9,169 -61,434 -224,527 -12,6 -30,14 -29,30 0,7 6,14 13,15 11,3 22,6 32,5 200,-10 341,-325 329,-549 -9,-173 -100,-280 -261,-272 -144,8 -436,193 -412,646 13,245 146,478 428,464 376,-20 577,-369 559,-709 -17,-332 -127,-490 -135,-633 -4,-77 32,-117 80,-120 38,-2 63,39 66,88 3,68 -28,77 -26,117 1,19 15,38 53,36 39,-2 57,-58 54,-117 -4,-77 -49,-159 -163,-153z"/>
  <path id="1" class="fil0" d="M1293 946c-9,-7 -3,-28 1,-43 9,-39 115,-390 121,-408 12,-39 15,-127 -47,-124 -24,2 -51,17 -61,42 0,0 -218,687 -245,771 -25,59 10,101 43,100 23,-2 61,-26 76,-71 14,-40 44,-125 58,-165 4,-14 12,-25 21,-34 10,-8 22,-13 38,-14 47,-4 92,-7 140,-9 10,-1 17,2 21,5 7,5 9,16 8,26 -9,64 -48,147 -40,201 5,24 23,41 49,41 30,2 51,-13 60,-41 13,-45 249,-740 253,-753 20,-57 -4,-120 -57,-118 -16,-1 -33,7 -44,24 -3,5 -7,12 -10,18 -15,41 -102,286 -162,480 -9,32 -17,49 -32,58 -12,8 -30,9 -58,12 -33,2 -66,3 -99,3 -13,1 -26,5 -34,-1z"/>
  <path id="2" class="fil0" d="M2351 443c-4,-79 -41,-126 -106,-123 -140,8 -221,175 -379,573 -3,7 -4,16 -9,23 -12,24 -25,28 -39,27 -18,-5 -37,-20 -47,-28 -15,-9 -32,2 -33,18 -1,44 39,47 61,56 16,6 22,15 18,31 -21,82 -38,128 -57,189 -3,12 -7,41 7,43 11,3 19,-9 22,-20 24,-70 44,-130 72,-199 11,-25 22,-39 48,-44 120,-21 122,-22 151,-17 14,3 21,15 20,29 -6,56 -55,113 -48,178 1,28 25,55 49,57 28,6 54,-5 66,-32 11,-21 19,-43 25,-66 161,-547 183,-634 179,-695zm-271 479c-40,4 -101,11 -142,11 -26,0 -37,-14 -28,-39 6,-21 196,-512 299,-518 40,-2 43,54 34,85 -46,158 -76,256 -120,413 -2,9 -4,16 -8,23 -8,17 -20,22 -35,25z"/>
  <path id="3" class="fil0" d="M2522 1018c-9,0 -11,-12 -8,-36 3,-22 74,-548 61,-628 -4,-30 -22,-48 -57,-46 -40,2 -51,24 -56,64 -22,192 -62,635 -69,704 -1,15 -4,30 -4,46 -3,61 48,94 69,94 7,0 14,-2 21,-10 32,-28 436,-821 447,-843 6,-14 12,-30 15,-48 3,-9 1,-19 -8,-26 -11,-6 -21,0 -28,9 -10,13 -20,27 -28,42 -153,289 -334,654 -334,654 -6,15 -14,24 -21,24z"/>
  <path id="4" class="fil0" d="M3115 278c-30,2 -44,11 -53,33 -9,21 -239,737 -249,811 -8,53 30,72 72,70 26,-1 40,-37 48,-62 0,0 252,-789 252,-789 13,-48 -30,-65 -70,-63z"/>
  <path id="5" class="fil0" d="M3626 662c-34,-77 -128,-236 -175,-359 -2,-11 -6,-19 -12,-28 -8,-15 -29,-14 -37,0 -6,15 -11,29 -13,43 -30,130 -221,740 -240,809 -9,31 -3,51 15,50 28,-1 43,-34 51,-62 4,-21 136,-479 162,-544 2,-5 10,-11 16,-9 5,0 11,6 15,11 0,0 168,300 168,300 4,12 6,28 4,41 -12,46 -32,105 -45,151 -14,60 -23,93 10,91 21,-1 39,-22 49,-61 10,-42 87,-290 151,-541 19,-71 37,-141 52,-212 13,-58 30,-101 -10,-99 -30,2 -43,25 -62,100 -23,89 -47,164 -87,315 -3,7 -6,16 -12,4z"/>
  <path id="6" class="fil0" d="M4315 355c-5,-96 -42,-143 -105,-139 -249,12 -412,446 -401,664 8,146 30,267 188,259 105,-5 167,-118 195,-233 13,-38 16,-83 65,-86 7,0 9,-11 8,-16 0,-7 -2,-16 -11,-15 -56,1 -75,12 -154,11 -16,-1 -29,12 -29,23 1,12 14,17 29,16 9,-1 -15,1 -5,0 26,-1 21,18 16,41 -23,98 -34,213 -125,218 -56,3 -67,-130 -70,-186 -16,-307 192,-632 295,-637 26,-1 68,18 53,143 -4,28 -13,55 -22,82 -3,11 -4,19 -2,30 1,5 8,12 13,13 6,1 14,-1 18,-4 6,-4 11,-13 15,-21 16,-42 32,-112 29,-163z"/>
 </g>
</svg>
