<svg version="1" xmlns="http://www.w3.org/2000/svg" width="682.667" height="682.667" viewBox="0 0 512.000000 512.000000"><path d="M0 256v256h512V0H0v256zM289 52.1c11.9 1.2 12.9 1.5 14.1 4.6 1.3 3.5 1.1 13.6-.3 15.6-1 1.2-5.6 2.3-17.3 4.2-8.8 1.4-16.6 2.5-17.2 2.5-1 0-1.3 4.6-1.3 19.5V118h-7.7c-4.3 0-14.2.3-22 .7l-14.3.6V99.2c0-13.6-.3-20.2-1.1-20.2-2.6 0-34.3-5.1-34.8-5.6-.3-.3-.8-4.1-.9-8.4-.6-12.2.1-12.6 30.8-14 18.1-.9 58.3-.3 72 1.1zM139.3 157.6c1.3.4 1.7 1.6 1.7 5.1v4.5l-4.7-.6c-13.3-1.8-13.2-1.8-13.3-8.5 0-2.3.1-2.4 7.3-1.7 3.9.4 8 .9 9 1.2zm145.8 4.7c5.4 2.1 9.2 5.7 11.4 10.9.8 2.1 1.3 3.8 1.1 3.8-.3 0-2-.9-3.8-2-4-2.3-13.1-4.6-21-5.3l-5.8-.6V336h-44V169h-25v-9.1l41.3.3c36.3.3 41.7.6 45.8 2.1zM214 270.5v4.5h-16v-9h16v4.5zm72.1-2.4c7 1.8 14.9 9.2 14.9 14.1 0 1.9 0 1.9-2.7 0-4.2-2.8-10.7-5.1-16.8-5.8l-5.5-.7v-9.9l3.3.7c1.7.4 4.8 1.1 6.8 1.6zm56.7 89.1c-1.3 2.3-4.7 6.8-7.7 10-10.3 11.3-30.3 18.4-54.8 19.5l-13.3.6V416h72c39.6 0 72-.1 72-.3.1-.1 2-10.3 4.4-22.7l4.2-22.4 3.5-.9c4.2-1.1 13.6-.4 15.1 1.1 1.9 1.9 2.6 10.2 3.3 35.7.5 17.9.3 25.9-.7 31.5l-1.3 7.5-96.5-.2c-105.5-.2-154.7-1.2-156-3.3-2.1-3.4-1.8-15.5.4-17.7.3-.3 8.4-1.7 18.1-3.2l17.5-2.6v-31.2l-24.7-.7c-13.7-.3-35.5-.9-48.5-1.3-13-.3-24.2-.9-24.8-1.3-.6-.4-1.4-2.6-1.7-5l-.6-4.2 14.9.6c52.7 2.4 134.7 3.2 150.2 1.6 23.1-2.5 41.8-9.8 52.2-20.2 4.7-4.7 5.6-4.6 2.8.4z"/></svg>