<svg xmlns="http://www.w3.org/2000/svg" xml:space="preserve" version="1.1"
    viewBox="0 0 6224 6655" xmlns:xlink="http://www.w3.org/1999/xlink">
    <defs>
        <style type="text/css">
            <![CDATA[
            .fil01 {
                fill: #eeeeee;
                fill-rule: nonzero
            }

            .fil11 {
                fill: #eeeeee;
                fill-rule: nonzero
            }
            ]]>
        </style>
    </defs>
    <g id="Layer_x0020_1">
        <metadata id="CorelCorpID_0Corel-Layer" />
        <path class="fil01"
            d="M1938 2707c-80,11 -160,21 -239,32 0,0 -12,28 -12,71 0,40 12,68 12,68 0,0 174,7 422,14 249,7 573,14 873,14 275,0 464,-49 585,-141 121,-93 173,-229 173,-403 0,-46 0,-93 0,-140 0,-223 -106,-379 -361,-447 227,-65 323,-214 323,-425 0,-37 0,-74 0,-112 0,-342 -198,-531 -720,-531 -300,0 -624,7 -872,14 -249,7 -423,13 -423,13 0,0 -12,28 -12,68 0,44 12,72 12,72 80,11 159,21 239,31 0,301 0,602 0,902 0,300 0,600 0,900zm345 -826c77,0 155,0 232,0 0,-68 0,-135 0,-202 -77,0 -155,0 -232,0 0,-255 0,-510 0,-764 237,0 474,0 711,0 283,0 379,105 379,323 0,37 0,75 0,112 0,195 -75,302 -288,325 0,70 0,140 0,210 241,20 325,132 325,337 0,47 0,94 0,140 0,233 -105,335 -416,336 -237,0 -474,0 -711,0 0,-272 0,-544 0,-817z" />
        <g id="_674001232">
            <path class="fil11"
                d="M434 6612l-51 6c0,0 -3,6 -3,16 0,8 3,14 3,14 0,0 75,6 204,6 118,0 163,-42 163,-117l0 -30c0,-48 -23,-81 -77,-96 48,-14 69,-46 69,-92l0 -24c0,-73 -43,-114 -155,-114 -129,0 -204,6 -204,6 0,0 -3,6 -3,15 0,9 3,15 3,15l51 7 0 388zm74 -178l79 0c67,0 90,24 90,73l0 30c0,50 -23,73 -90,73l-79 0 0 -176zm0 -208l79 0c61,0 82,23 82,69l0 24c0,48 -21,71 -82,71l-79 0 0 -164zm475 386l-47 6c0,0 -3,6 -3,15 0,9 3,15 3,15 0,0 29,5 72,5 68,0 98,-5 98,-5 0,0 3,-6 3,-15 0,-9 -3,-15 -3,-15l-52 -6 28 -95 160 0 28 95 -51 6c0,0 -3,6 -3,15 0,9 3,15 3,15 0,0 30,5 98,5 43,0 72,-5 72,-5 0,0 3,-6 3,-15 0,-9 -3,-15 -3,-15l-48 -6 -129 -426c0,0 -23,-3 -49,-3 -72,0 -109,5 -109,5 0,0 -4,7 -4,15 0,10 4,15 4,15l47 7 -118 387zm180 -372l68 233 -138 0 70 -233zm685 374l-36 4c0,0 -3,6 -3,15 0,9 3,15 3,15 0,0 30,5 92,5 38,0 69,-5 69,-5 0,0 2,-6 2,-15 0,-9 -2,-15 -2,-15l-52 -6 -83 -169c60,-15 84,-52 84,-107l0 -39c0,-74 -44,-116 -159,-116 -118,0 -195,7 -195,7 0,0 -2,6 -2,15 0,9 2,14 2,14l52 7 0 388 -52 6c0,0 -2,6 -2,15 0,9 2,15 2,15 0,0 31,5 88,5 59,0 89,-5 89,-5 0,0 3,-6 3,-15 0,-9 -3,-15 -3,-15l-51 -6 0 -164c0,0 25,3 69,3l8 0 77 163zm-154 -388l69 0c64,0 86,21 86,71l0 39c0,49 -22,70 -86,70l-69 0 0 -180zm510 386l-51 6c0,0 -3,6 -3,16 0,8 3,14 3,14 0,0 75,6 204,6 119,0 164,-42 164,-117l0 -30c0,-48 -23,-81 -78,-96 49,-14 70,-46 70,-92l0 -24c0,-73 -43,-114 -156,-114 -129,0 -204,6 -204,6 0,0 -3,6 -3,15 0,9 3,15 3,15l51 7 0 388zm75 -178l78 0c67,0 90,24 90,73l0 30c0,50 -23,73 -90,73l-78 0 0 -176zm0 -208l78 0c61,0 82,23 82,69l0 24c0,48 -21,71 -82,71l-78 0 0 -164zm729 60c0,0 6,3 15,3 9,0 15,-3 15,-3 0,0 5,-22 5,-75 0,-16 -3,-28 -3,-28l-137 0c-112,0 -190,4 -190,4 0,0 -3,6 -3,15 0,9 3,15 3,15l51 6 0 389 -51 6c0,0 -3,6 -3,15 0,9 3,15 3,15 0,0 78,4 190,4l140 0c0,0 3,-12 3,-28 0,-53 -4,-75 -4,-75 0,0 -6,-3 -16,-3 -9,0 -14,3 -14,3l-14 58 -159 0 0 -173 161 0c0,0 3,-10 3,-23 0,-13 -3,-23 -3,-23l-161 0 0 -159 156 0 13 57zm505 328l-35 4c0,0 -3,6 -3,15 0,9 3,15 3,15 0,0 30,5 92,5 37,0 68,-5 68,-5 0,0 3,-6 3,-15 0,-9 -3,-15 -3,-15l-52 -6 -82 -169c59,-15 84,-52 84,-107l0 -39c0,-74 -44,-116 -160,-116 -118,0 -194,7 -194,7 0,0 -3,6 -3,15 0,9 3,14 3,14l51 7 0 388 -51 6c0,0 -3,6 -3,15 0,9 3,15 3,15 0,0 30,5 88,5 58,0 89,-5 89,-5 0,0 2,-6 2,-15 0,-9 -2,-15 -2,-15l-52 -6 0 -164c0,0 25,3 69,3l8 0 77 163zm-154 -388l69 0c64,0 86,21 86,71l0 39c0,49 -22,70 -86,70l-69 0 0 -180zm524 359l-10 -59c0,0 -8,-2 -21,-2 -13,0 -22,2 -22,2 0,0 -6,35 -6,86 0,0 45,43 155,43 115,0 158,-41 158,-116l0 -29c0,-140 -234,-96 -234,-184l0 -29c0,-49 21,-72 82,-72 55,0 82,26 82,26l10 58c0,0 9,2 21,2 12,0 22,-2 22,-2 0,0 5,-35 5,-86 0,0 -38,-43 -140,-43 -113,0 -155,42 -155,117l0 29c0,135 234,89 234,184l0 29c0,50 -22,71 -86,71 -63,0 -95,-25 -95,-25l0 0zm498 27l-51 6c0,0 -3,6 -3,15 0,9 3,15 3,15 0,0 30,5 88,5 58,0 89,-5 89,-5 0,0 2,-6 2,-15 0,-9 -2,-15 -2,-15l-52 -6 0 -177 186 0 0 177 -51 6c0,0 -4,6 -4,15 0,9 4,15 4,15 0,0 30,5 88,5 57,0 88,-5 88,-5 0,0 3,-6 3,-15 0,-9 -3,-15 -3,-15l-51 -6 0 -388 51 -6c0,0 3,-5 3,-15 0,-8 -3,-15 -3,-15 0,0 -31,-5 -88,-5 -58,0 -88,5 -88,5 0,0 -4,7 -4,15 0,10 4,15 4,15l51 6 0 166 -186 0 0 -166 52 -6c0,0 2,-5 2,-15 0,-8 -2,-15 -2,-15 0,0 -31,-5 -89,-5 -58,0 -88,5 -88,5 0,0 -3,7 -3,15 0,10 3,15 3,15l51 6 0 388zm578 -73c0,74 46,116 166,116 120,0 166,-42 166,-116l0 -242c0,-74 -46,-117 -166,-117 -120,0 -166,43 -166,117l0 242zm73 -242c0,-50 23,-72 93,-72 69,0 92,22 92,72l0 242c0,49 -23,71 -92,71 -70,0 -93,-22 -93,-71l0 -242zm503 315l-52 6c0,0 -3,6 -3,15 0,9 3,15 3,15 0,0 31,5 88,5 59,0 89,-5 89,-5 0,0 3,-6 3,-15 0,-9 -3,-15 -3,-15l-51 -6 0 -162c0,0 22,2 66,2 116,0 160,-40 160,-114l0 -41c0,-74 -44,-116 -160,-116 -114,0 -192,6 -192,6 0,0 -3,6 -3,15 0,9 3,15 3,15l52 7 0 388zm74 -386l66 0c64,0 86,21 86,71l0 41c0,48 -22,70 -86,70l-66 0 0 -182z" />
            <path class="fil11"
                d="M159 5732l-149 22c0,0 -10,20 -10,54 0,30 10,50 10,50 0,0 235,14 570,14l397 0c0,0 11,-40 11,-94 0,-157 -15,-229 -15,-229 0,0 -22,-6 -54,-6 -32,0 -54,6 -54,6l-44 165 -398 0 0 -1098 149 -22c0,0 10,-20 10,-54 0,-30 -10,-49 -10,-49 0,0 -100,-20 -281,-20 -181,0 -281,20 -281,20 0,0 -10,19 -10,49 0,34 10,54 10,54l149 22 0 1116zm1088 -211c0,233 138,363 504,363 365,0 505,-130 505,-363l0 -694c0,-233 -140,-362 -505,-362 -366,0 -504,129 -504,362l0 694zm263 -694c0,-143 60,-205 241,-205 180,0 241,62 241,205l0 694c0,143 -61,205 -241,205 -181,0 -241,-62 -241,-205l0 -694zm1821 40c0,0 32,6 76,6 46,0 78,-6 78,-6 0,0 20,-109 20,-269 0,0 -128,-133 -453,-133 -363,0 -494,129 -494,362l0 694c0,233 139,363 524,363 251,0 403,-82 403,-82 0,0 16,-32 16,-82 0,-50 -16,-80 -16,-80 0,2 -160,86 -401,86 -201,0 -263,-62 -263,-205l0 -694c0,-143 54,-205 231,-205 164,0 245,76 245,76l34 169zm506 865l-136 22c0,0 -8,20 -8,54 0,30 8,50 8,50 0,0 94,20 226,20 215,0 314,-20 314,-20 0,0 10,-20 10,-50 0,-34 -10,-54 -10,-54l-151 -22 72 -251 434 0 70 251 -151 22c0,0 -8,20 -8,54 0,30 8,50 8,50 0,0 101,20 316,20 132,0 224,-20 224,-20 0,0 10,-20 10,-50 0,-34 -10,-54 -10,-54l-136 -22 -363 -1249c0,0 -83,-12 -177,-12 -229,0 -355,20 -355,20 0,0 -8,19 -8,49 0,34 8,54 8,54l138 22 -325 1116zm542 -1060l181 650 -362 0 181 -650zm1016 1060l-150 22c0,0 -10,20 -10,54 0,30 10,50 10,50 0,0 236,14 570,14l397 0c0,0 12,-40 12,-94 0,-157 -16,-229 -16,-229 0,0 -22,-6 -54,-6 -32,0 -54,6 -54,6l-43 165 -399 0 0 -1098 149 -22c0,0 10,-20 10,-54 0,-30 -10,-49 -10,-49 0,0 -99,-20 -281,-20 -181,0 -281,20 -281,20 0,0 -10,19 -10,49 0,34 10,54 10,54l150 22 0 1116z" />
        </g>
        <path class="fil01" d="M2258 299c0,59 18,88 18,88 80,13 159,25 238,37l0 -85c-83,-13 -167,-26 -250,-39l-6 -1z" />
        <path class="fil01"
            d="M2257 3672l0 2c0,49 19,86 19,86 0,0 -4,6 120,12 123,6 375,12 884,12 216,0 432,0 648,0 215,0 431,0 647,0 0,0 10,-33 18,-86l-624 0c-232,0 -470,-2 -695,-4 -208,-3 -388,-6 -535,-9 -299,-6 -466,-12 -466,-12l-16 -1z" />
        <path class="fil11"
            d="M1688 959c-1,5 -1,11 -1,16 0,44 12,72 12,72 51,6 102,13 153,20l0 -87c-58,-7 -114,-14 -164,-21l0 0z" />
        <path class="fil11"
            d="M2369 1087l232 0 0 743c0,261 0,521 0,781 131,0 261,0 393,0 2,0 3,0 5,0 0,-260 0,-520 0,-781l0 -743c132,1 223,25 282,73 -8,-45 -24,-78 -49,-101 -43,-39 -119,-58 -238,-58l-625 0 0 86z" />
        <polygon class="fil11" points="2515,1968 2369,1967 2369,2053 2515,2054 " />
        <path class="fil11" d="M3317 2136c-8,-39 -21,-71 -43,-94 -43,-48 -123,-66 -189,-70l0 85c79,4 173,29 232,79z" />
        <path class="fil11"
            d="M2999 620c0,-118 0,-237 0,-356 108,-16 217,-32 325,-49 0,0 18,-30 18,-91 0,-50 -18,-87 -18,-87 0,0 -48,-37 -527,-37 -472,0 -521,37 -521,37 0,0 -18,37 -18,86 0,62 18,92 18,92 108,17 217,33 325,49 0,120 0,240 0,360 130,-2 264,-4 393,-4 2,0 3,0 5,0z" />
        <path class="fil11"
            d="M2601 3361c-109,16 -217,32 -325,49 0,0 -19,30 -19,91 0,49 19,86 19,86 0,0 168,7 464,13 297,6 720,12 1229,12 202,0 404,0 606,0 0,0 25,-80 25,-190 0,-484 -31,-496 -31,-496 0,0 -37,-18 -86,-18 -49,0 -86,18 -86,18 -27,139 -53,277 -79,416 -220,0 -440,0 -660,0 -219,0 -439,0 -659,0l0 -264c272,-1 460,-50 580,-141 65,-50 110,-113 138,-187 -24,30 -53,58 -86,83 -69,53 -158,94 -266,120 -105,26 -227,39 -371,39 -137,0 -295,-2 -457,-5 -151,-2 -294,-6 -418,-9 -253,-7 -423,-14 -423,-14l-8 0c-1,5 -1,12 -1,18 0,40 12,68 12,68 0,0 174,7 422,14 142,4 308,8 480,11l0 286z" />
        <path class="fil01" d="M3085 424c80,-12 160,-24 239,-37 0,0 17,-28 18,-87l-5 0c-84,13 -168,26 -252,39l0 85z" />
    </g>
</svg>