<svg
   xml:space="preserve"
   version="1.1"
   style="clip-rule:evenodd;fill-rule:evenodd;image-rendering:optimizeQuality;shape-rendering:geometricPrecision;text-rendering:geometricPrecision"
   viewBox="0 0 8887.3281 6655"
   id="svg11"
   sodipodi:docname="logo 2.svg"
   width="8887.3281"
   height="6655"
   inkscape:version="1.3 (0e150ed, 2023-07-21)"
   inkscape:export-filename="logo-white.svg"
   inkscape:export-xdpi="96"
   inkscape:export-ydpi="96"
   xmlns:inkscape="http://www.inkscape.org/namespaces/inkscape"
   xmlns:sodipodi="http://sodipodi.sourceforge.net/DTD/sodipodi-0.dtd"
   xmlns="http://www.w3.org/2000/svg"
   xmlns:svg="http://www.w3.org/2000/svg"><sodipodi:namedview
   id="namedview11"
   pagecolor="#ffffff"
   bordercolor="#000000"
   borderopacity="0.25"
   inkscape:showpageshadow="2"
   inkscape:pageopacity="0.0"
   inkscape:pagecheckerboard="0"
   inkscape:deskcolor="#d1d1d1"
   inkscape:zoom="0.078061608"
   inkscape:cx="2587.6997"
   inkscape:cy="3984.0327"
   inkscape:window-width="2560"
   inkscape:window-height="1387"
   inkscape:window-x="2560"
   inkscape:window-y="25"
   inkscape:window-maximized="1"
   inkscape:current-layer="_674001232" /> <defs
   id="defs1"><style
     type="text/css"
     id="style1">   <![CDATA[
    .fil0 {fill:#E31E24;fill-rule:nonzero}
    .fil1 {fill:#ffffff;fill-rule:nonzero}
   ]]>  </style></defs> <g
   id="Layer_x0020_1"
   inkscape:label="Layer 1"
   style="clip-rule:evenodd;fill-rule:evenodd;image-rendering:optimizeQuality;shape-rendering:geometricPrecision;text-rendering:geometricPrecision"
   inkscape:groupmode="layer"
   transform="translate(1394.9552)">  <metadata
   id="CorelCorpID_0Corel-Layer" />  <path
   class="fil0"
   d="m 1938,2707 c -80,11 -160,21 -239,32 0,0 -12,28 -12,71 0,40 12,68 12,68 0,0 174,7 422,14 249,7 573,14 873,14 275,0 464,-49 585,-141 121,-93 173,-229 173,-403 0,-46 0,-93 0,-140 0,-223 -106,-379 -361,-447 227,-65 323,-214 323,-425 0,-37 0,-74 0,-112 0,-342 -198,-531 -720,-531 -300,0 -624,7 -872,14 -249,7 -423,13 -423,13 0,0 -12,28 -12,68 0,44 12,72 12,72 80,11 159,21 239,31 0,301 0,602 0,902 0,300 0,600 0,900 z m 345,-826 c 77,0 155,0 232,0 0,-68 0,-135 0,-202 -77,0 -155,0 -232,0 0,-255 0,-510 0,-764 237,0 474,0 711,0 283,0 379,105 379,323 0,37 0,75 0,112 0,195 -75,302 -288,325 0,70 0,140 0,210 241,20 325,132 325,337 0,47 0,94 0,140 0,233 -105,335 -416,336 -237,0 -474,0 -711,0 0,-272 0,-544 0,-817 z"
   id="path1"
   style="fill:#ffffff" />  <g
   id="_674001232"
   style="display:inline;fill:#ffffff">        <path
   d="m 5636.0667,8502.7503 c -4.5334,0.5333 -5.0667,0.9333 -5.0667,4.2667 0,3.3333 0.5333,3.8666 5.3333,4.6666 l 5.3334,0.8 v 38.5334 38.5333 l -5.3334,0.9333 c -4.8,0.8 -5.3333,1.3334 -5.3333,4.6667 v 3.8667 l 34,0.1333 34,0.1333 v -9.7333 c 0,-11.2 -1.0667,-13.4667 -5.4667,-12.8 -2.4,0.2667 -3.4666,1.7333 -4.6666,5.7333 l -1.4667,5.3334 -13.3333,0.4 c -10.9334,0.2666 -13.6,0 -14.1334,-1.6 -0.5333,-1.2 -0.6666,-18.1334 -0.5333,-37.7334 l 0.2667,-35.6 5.3333,-1.6 c 4.2667,-1.2 5.3333,-2 5.3333,-4.6666 0,-2.8 -0.8,-3.3334 -6.6666,-4.1334 -7.0667,-0.9333 -19.4667,-0.9333 -27.6,-0.1333 z"
   id="path11-3"
   style="clip-rule:evenodd;display:inline;fill:#ffffff;fill-rule:evenodd;stroke-width:0.133333;image-rendering:optimizeQuality;shape-rendering:geometricPrecision;text-rendering:geometricPrecision"
   transform="matrix(14.296296,0,0,14.296296,-81897.398,-117074.32)" /><path
   d="m 5729.2667,8503.1503 c -7.7334,2 -12.4,4.8 -15.8667,9.6 -2.9333,4.2667 -3.0667,5.4667 -3.4667,35.6 -0.5333,42 0.6667,45.3333 19.8667,50.2667 18.1333,4.6666 39.6,0 46.1333,-10 2.9334,-4.4 3.0667,-5.4667 3.0667,-37.4667 0,-32.1333 -0.1333,-33.0667 -3.0667,-37.4667 -5.3333,-7.8666 -12.4,-10.8 -28,-11.3333 -7.4666,-0.2667 -15.8666,0.1333 -18.6666,0.8 z m 23.4666,10.8 c 8.1334,2.2667 8.9334,5.7333 8.9334,37.2 0,31.4667 -0.8,34.9333 -8.9334,37.2 -9.7333,2.8 -20,0.5333 -22.9333,-4.9333 -0.9333,-1.7334 -1.4667,-14 -1.4667,-33.3334 0,-29.8666 0,-30.5333 3.0667,-33.2 4.6667,-4.4 12.4,-5.4666 21.3333,-2.9333 z"
   id="path12"
   style="clip-rule:evenodd;display:inline;fill:#ffffff;fill-rule:evenodd;stroke-width:0.133333;image-rendering:optimizeQuality;shape-rendering:geometricPrecision;text-rendering:geometricPrecision"
   transform="matrix(14.296296,0,0,14.296296,-81897.398,-117074.32)" /><path
   d="m 5812.0667,8503.5503 c -8.8,2.5333 -12.9334,5.7333 -15.8667,12 -2.1333,4.9333 -2.5333,9.0667 -2.5333,35.4667 0,27.6 0.2666,30.4 2.8,35.6 2.1333,4.6666 4.2666,6.5333 10.2666,9.4666 6.9334,3.4667 8.8,3.7334 22.2667,3.7334 11.0667,-0.1334 16.5333,-0.8 22,-2.6667 7.0667,-2.5333 7.3333,-2.9333 7.7333,-7.8667 0.4,-4.8 0.2667,-5.0666 -2.6666,-4.4 -25.0667,6 -34.8,6 -40.5334,0.2667 -3.2,-3.2 -3.2,-3.4667 -3.2,-33.2 0,-19.7333 0.5334,-31.2 1.4667,-33.3333 2.9333,-6.4 15.6,-7.7334 27.0667,-2.9334 3.8666,1.6 4.5333,2.6667 5.3333,8 0.9333,6 1.0667,6.1334 6.1333,6.1334 6,0 6.6667,-1.2 6.6667,-12 v -7.8667 l -7.2,-3.4667 c -6,-2.9333 -9.6,-3.7333 -20.4,-4.1333 -8.4,-0.4 -15.3333,0.1333 -19.3333,1.2 z"
   id="path13"
   style="clip-rule:evenodd;display:inline;fill:#ffffff;fill-rule:evenodd;stroke-width:0.133333;image-rendering:optimizeQuality;shape-rendering:geometricPrecision;text-rendering:geometricPrecision"
   transform="matrix(14.296296,0,0,14.296296,-81897.398,-117074.32)" /><path
   d="m 5877,8503.017 c -4.5333,0.6666 -5.3333,1.3333 -5.7333,4.2666 -0.4,3.2 0.1333,3.6 4.9333,4.4 l 5.4667,0.8 v 38.6667 38.6667 l -5.4667,0.8 c -4.8,0.8 -5.3333,1.2 -4.9333,4.4 l 0.4,3.4666 33.7333,0.4 33.7333,0.2667 -0.4,-10.9333 c -0.4,-10.9334 -0.4,-11.0667 -4,-11.4667 -3.3333,-0.4 -3.7333,0.1333 -5.2,5.6 l -1.4666,6.1333 H 5914.2 5900.3333 v -37.8666 -37.8667 l 5.0667,-1.2 c 4,-0.9333 4.9333,-1.7333 4.9333,-4.4 0,-2.9333 -0.8,-3.4667 -6,-4.2667 -7.2,-1.0666 -20,-1.0666 -27.3333,0.1334 z"
   id="path14"
   style="clip-rule:evenodd;display:inline;fill:#ffffff;fill-rule:evenodd;stroke-width:0.133333;image-rendering:optimizeQuality;shape-rendering:geometricPrecision;text-rendering:geometricPrecision"
   transform="matrix(14.296296,0,0,14.296296,-81897.398,-117074.32)" /><path
   d="m 5979,8503.017 c -5.3333,0.6666 -6,1.2 -6,4.1333 0,2.6667 0.9333,3.4667 4.8,4.4 l 4.8,1.0667 -8.9333,30.9333 c -4.9334,17.0667 -10,34.4 -11.2,38.5333 -2.1334,7.0667 -2.6667,7.7334 -6.8,8.5334 -4.5334,0.8 -6.4,3.0666 -5.2,6.4 0.9333,2.4 16.8,3.7333 28.5333,2.4 8.1333,-0.9334 8.6667,-1.2 9.0667,-4.5334 0.4,-3.2 -0.1334,-3.6 -5.0667,-4.4 -4.2667,-0.6666 -5.3333,-1.4666 -4.8,-3.0666 0.4,-1.3334 1.3333,-5.0667 2.2667,-8.6667 l 1.4666,-6.2667 h 15.6 15.6 l 1.8667,6.9334 c 0.9333,3.8666 2,7.8666 2.2667,8.6666 0.4,1.0667 -1.3334,2 -4.8,2.5334 -4.8,0.8 -5.4667,1.3333 -5.4667,4.5333 0,3.6 0.1333,3.6 9.8667,4.4 14.6666,1.0667 25.7333,-0.2667 26.5333,-3.0667 0.9333,-3.3333 -0.5333,-4.9333 -5.3333,-5.8666 -4,-0.9334 -4.5334,-1.6 -7.6,-11.8667 -5.2,-17.3333 -18.2667,-62.4 -20,-68.9333 -1.4667,-5.6 -2,-6 -6.9334,-6.9334 -6,-1.0666 -16,-1.0666 -24.5333,0.1334 z m 25.2,37.0666 c 2.9333,11.0667 5.4667,20.5334 5.4667,20.9334 0,0.4 -5.4667,0.8 -12.1334,0.8 -10.9333,0 -12.1333,-0.2667 -11.6,-2.4 8.5334,-32 11.2,-41.3334 11.8667,-40.5334 0.5333,0.5334 3.3333,10 6.4,21.2 z"
   id="path15"
   style="clip-rule:evenodd;display:inline;fill:#ffffff;fill-rule:evenodd;stroke-width:0.133333;image-rendering:optimizeQuality;shape-rendering:geometricPrecision;text-rendering:geometricPrecision"
   transform="matrix(14.296296,0,0,14.296296,-81897.398,-117074.32)" /><path
   d="m 6061,8503.017 c -4.5333,0.6666 -5.3333,1.3333 -5.3333,4.1333 0,2.6667 0.9333,3.4667 5.0666,4.4 l 4.9334,1.2 v 38.4 38.4 l -4.9334,1.2 c -4.1333,0.9333 -5.0666,1.7333 -5.0666,4.4 0,3.0667 0.6666,3.4667 8,4.2667 4.4,0.5333 12.9333,0.6666 18.9333,0.1333 8.8,-0.6667 10.9333,-1.2 11.4667,-3.0667 0.9333,-3.6 -0.5334,-4.9333 -6.1334,-6 L 6083,8589.5503 v -30.8 c 0,-16.9333 0.2667,-30.4 0.6667,-30 0.4,0.4 5.4666,12.9333 11.2,27.8667 l 10.4,27.2 h 7.8666 7.8667 l 10.9333,-28 10.9334,-28 0.1333,30.9333 v 30.8 l -4.9333,1.2 c -4.1334,0.9333 -5.0667,1.7333 -5.0667,4.4 0,3.0667 0.6667,3.3333 8.6667,4.2667 11.8666,1.3333 28.9333,-0.1334 29.8666,-2.4 1.3334,-3.4667 -0.6666,-5.6 -6,-6.5334 l -5.2,-0.9333 v -38.4 -38.4 l 5.2,-0.9333 c 5.3334,-0.9334 7.3334,-3.0667 6,-6.5334 -0.9333,-2.5333 -21.3333,-4.2666 -29.6,-2.6666 l -5.8666,1.2 -10.5334,27.3333 c -5.7333,15.0667 -10.8,28.2667 -11.2,29.3333 -1.0666,2.4 -2.8,-1.4666 -14.8,-32.9333 l -9.2,-24.1333 -4.6666,-0.8 c -5.6,-0.9334 -17.2,-0.8 -24.6667,0.4 z"
   id="path16"
   style="clip-rule:evenodd;display:inline;fill:#ffffff;fill-rule:evenodd;stroke-width:0.133333;image-rendering:optimizeQuality;shape-rendering:geometricPrecision;text-rendering:geometricPrecision"
   transform="matrix(14.296296,0,0,14.296296,-81897.398,-117074.32)" /><path
   d="m 6183.9333,8504.0836 c -0.5333,0.4 -0.9333,2.1334 -0.9333,3.7334 0,2.4 0.9333,3.2 5.3333,3.8666 l 5.3333,0.8 v 38.5334 38.5333 l -5.3333,0.9333 c -4.8,0.8 -5.3333,1.3334 -5.3333,4.8 v 3.8667 h 34.5333 34.5333 l 0.4,-3.0667 c 0.2667,-1.6 0.2667,-6.5333 -0.1333,-10.9333 -0.6667,-7.4667 -0.9333,-8 -4.1333,-8.4 -3.0667,-0.4 -3.6,0.2667 -5.2,5.6 l -1.7334,6.1333 h -14.4 -14.5333 v -16.6666 -16.6667 h 15.2 c 16.2667,0 16.8,-0.2667 16.8,-7.4667 v -3.2 h -16 -16 v -15.3333 -15.4667 l 14.2667,0.4 14.1333,0.4 1.4667,5.3334 c 1.2,4.2666 2.2666,5.4666 4.9333,5.7333 4.2667,0.5333 5.2,-2 5.2,-14.1333 v -8.2667 H 6218.6 c -18.6667,0 -34.2667,0.4 -34.6667,0.9333 z"
   id="path17"
   style="clip-rule:evenodd;display:inline;fill:#ffffff;fill-rule:evenodd;stroke-width:0.133333;image-rendering:optimizeQuality;shape-rendering:geometricPrecision;text-rendering:geometricPrecision"
   transform="matrix(14.296296,0,0,14.296296,-81897.398,-117074.32)" /></g>  <path
   class="fil0"
   d="m 2258,299 c 0,59 18,88 18,88 80,13 159,25 238,37 v -85 c -83,-13 -167,-26 -250,-39 z"
   id="path4"
   style="fill:#ffffff" />  <path
   class="fil0"
   d="m 2257,3672 v 2 c 0,49 19,86 19,86 0,0 -4,6 120,12 123,6 375,12 884,12 216,0 432,0 648,0 215,0 431,0 647,0 0,0 10,-33 18,-86 h -624 c -232,0 -470,-2 -695,-4 -208,-3 -388,-6 -535,-9 -299,-6 -466,-12 -466,-12 z"
   id="path5"
   style="fill:#ffffff" />  <path
   class="fil1"
   d="m 1688,959 c -1,5 -1,11 -1,16 0,44 12,72 12,72 51,6 102,13 153,20 v -87 c -58,-7 -114,-14 -164,-21 z"
   id="path6"
   style="fill:#ffffff" />  <path
   class="fil1"
   d="m 2369,1087 h 232 v 743 c 0,261 0,521 0,781 131,0 261,0 393,0 2,0 3,0 5,0 0,-260 0,-520 0,-781 v -743 c 132,1 223,25 282,73 -8,-45 -24,-78 -49,-101 -43,-39 -119,-58 -238,-58 h -625 z"
   id="path7"
   style="fill:#ffffff" />  <polygon
   class="fil1"
   points="2515,1968 2369,1967 2369,2053 2515,2054 "
   id="polygon7"
   style="fill:#ffffff" />  <path
   class="fil1"
   d="m 3317,2136 c -8,-39 -21,-71 -43,-94 -43,-48 -123,-66 -189,-70 v 85 c 79,4 173,29 232,79 z"
   id="path8"
   style="fill:#ffffff" />  <path
   class="fil1"
   d="m 2999,620 c 0,-118 0,-237 0,-356 108,-16 217,-32 325,-49 0,0 18,-30 18,-91 0,-50 -18,-87 -18,-87 0,0 -48,-37 -527,-37 -472,0 -521,37 -521,37 0,0 -18,37 -18,86 0,62 18,92 18,92 108,17 217,33 325,49 0,120 0,240 0,360 130,-2 264,-4 393,-4 2,0 3,0 5,0 z"
   id="path9"
   style="fill:#ffffff" />  <path
   class="fil1"
   d="m 2601,3361 c -109,16 -217,32 -325,49 0,0 -19,30 -19,91 0,49 19,86 19,86 0,0 168,7 464,13 297,6 720,12 1229,12 202,0 404,0 606,0 0,0 25,-80 25,-190 0,-484 -31,-496 -31,-496 0,0 -37,-18 -86,-18 -49,0 -86,18 -86,18 -27,139 -53,277 -79,416 -220,0 -440,0 -660,0 -219,0 -439,0 -659,0 v -264 c 272,-1 460,-50 580,-141 65,-50 110,-113 138,-187 -24,30 -53,58 -86,83 -69,53 -158,94 -266,120 -105,26 -227,39 -371,39 -137,0 -295,-2 -457,-5 -151,-2 -294,-6 -418,-9 -253,-7 -423,-14 -423,-14 h -8 c -1,5 -1,12 -1,18 0,40 12,68 12,68 0,0 174,7 422,14 142,4 308,8 480,11 z"
   id="path10"
   style="fill:#ffffff" />  <path
   class="fil0"
   d="m 3085,424 c 80,-12 160,-24 239,-37 0,0 17,-28 18,-87 h -5 c -84,13 -168,26 -252,39 z"
   id="path11"
   style="fill:#ffffff" /> </g></svg>
